<svg xmlns="http://www.w3.org/2000/svg" id="sprotty_root" class="sprotty-graph sprotty-state-machine statemachine" style="font-family:&quot;Noto Sans&quot;, Helvetica, Arial, sans-serif;-webkit-locale:&quot;en&quot;;perspective-origin:0px 0px;transform-origin:0px 0px;" version="1.1" viewBox="10 10 644.3125 384.4806640625" width="644.3125" height="384.4806640625"><g transform="scale(1) translate(0,0)"><g id="sprotty_fsm$l1d_bank_fencei_flush_state_q" class="statemachine" transform="translate(15, 15)"><g class="sprotty-block" style="fill:rgb(255, 255, 255);stroke:rgb(48, 48, 48);stroke-dasharray:0px;"><rect x="0" y="0" rx="1" ry="1" width="634.3125" height="374.4806640625"/><text x="317.15625" y="12" class="sprotty-block-name" style="cursor:pointer;font-weight:700;perspective-origin:211.438px 0px;fill:rgb(48, 48, 48);stroke:rgba(0, 0, 0, 0);dominant-baseline:middle;text-anchor:middle;">l1d_bank_fencei_flush_state_q</text><line x1="0" y1="20" x2="634.3125" y2="20"/></g><g id="sprotty_fsm$l1d_bank_fencei_flush_state_q/state$FLUSH_READ_DATA_RAM_WRITE_LST" class="state" transform="translate(318.46875, 261.04498697916665)"><ellipse cx="146.421875" cy="20.0078125" rx="146.421875" ry="20.0078125" class="sprotty-node clickable" style="fill:rgb(255, 255, 255);stroke:rgb(48, 48, 48);"/><text class="clickable sprotty-label state" id="sprotty_fsm$l1d_bank_fencei_flush_state_q/state$FLUSH_READ_DATA_RAM_WRITE_LST/label" transform="translate(6, 8) translate(140.21875, 18.671875)" style="cursor:default;perspective-origin:0.135417px 0px;fill:rgb(48, 48, 48);text-anchor:middle;">FLUSH_READ_DATA_RAM_WRITE_LST</text></g><g id="sprotty_fsm$l1d_bank_fencei_flush_state_q/state$FLUSH_READ_LST" class="state" transform="translate(49.59895833333336, 191.02936197916665)"><ellipse cx="73.6015625" cy="20.0078125" rx="73.6015625" ry="20.0078125" class="sprotty-node clickable" style="fill:rgb(255, 255, 255);stroke:rgb(48, 48, 48);"/><text class="clickable sprotty-label state" id="sprotty_fsm$l1d_bank_fencei_flush_state_q/state$FLUSH_READ_LST/label" transform="translate(6, 8) translate(67.390625, 18.671875)" style="cursor:default;perspective-origin:0.135417px 0px;fill:rgb(48, 48, 48);text-anchor:middle;">FLUSH_READ_LST</text></g><g id="sprotty_fsm$l1d_bank_fencei_flush_state_q/state$FLUSH_ENQUEUE_EVICT_QUEUE" class="state" transform="translate(289.2483072916667, 121.01373697916665)"><ellipse cx="129.828125" cy="20.0078125" rx="129.828125" ry="20.0078125" class="sprotty-node clickable" style="fill:rgb(255, 255, 255);stroke:rgb(48, 48, 48);"/><text class="clickable sprotty-label state" id="sprotty_fsm$l1d_bank_fencei_flush_state_q/state$FLUSH_ENQUEUE_EVICT_QUEUE/label" transform="translate(6, 8) translate(123.828125, 18.671875)" style="cursor:default;perspective-origin:0px 0px;fill:rgb(48, 48, 48);text-anchor:middle;">FLUSH_ENQUEUE_EVICT_QUEUE</text></g><g id="sprotty_fsm$l1d_bank_fencei_flush_state_q/state$FLUSH_FINISH" class="state" transform="translate(326.28906250000006, 322.4650390625)"><ellipse cx="60.734375" cy="20.0078125" rx="60.734375" ry="20.0078125" class="sprotty-node clickable" style="fill:rgb(255, 255, 255);stroke:rgb(48, 48, 48);"/><text class="clickable sprotty-label state" id="sprotty_fsm$l1d_bank_fencei_flush_state_q/state$FLUSH_FINISH/label" transform="translate(6, 8) translate(54.734375, 18.671875)" style="cursor:default;perspective-origin:0px 0px;fill:rgb(48, 48, 48);text-anchor:middle;">FLUSH_FINISH</text></g><g id="sprotty_fsm$l1d_bank_fencei_flush_state_q/state$FLUSH_PENDING" class="state" transform="translate(53.27864583333336, 121.01373697916665)"><ellipse cx="69.921875" cy="20.0078125" rx="69.921875" ry="20.0078125" class="sprotty-node clickable" style="fill:rgb(255, 255, 255);stroke:rgb(48, 48, 48);"/><text class="clickable sprotty-label state" id="sprotty_fsm$l1d_bank_fencei_flush_state_q/state$FLUSH_PENDING/label" transform="translate(6, 8) translate(63.921875, 18.671875)" style="cursor:default;perspective-origin:0px 0px;fill:rgb(48, 48, 48);text-anchor:middle;">FLUSH_PENDING</text></g><g id="sprotty_fsm$l1d_bank_fencei_flush_state_q/state$FLUSH_WAIT_EVICT_QUEUE_CLEAN" class="state" transform="translate(12, 261.04498697916665)"><ellipse cx="140.734375" cy="20.0078125" rx="140.734375" ry="20.0078125" class="sprotty-node clickable" style="fill:rgb(255, 255, 255);stroke:rgb(48, 48, 48);"/><text class="clickable sprotty-label state" id="sprotty_fsm$l1d_bank_fencei_flush_state_q/state$FLUSH_WAIT_EVICT_QUEUE_CLEAN/label" transform="translate(6, 8) translate(134.734375, 18.671875)" style="cursor:default;perspective-origin:0px 0px;fill:rgb(48, 48, 48);text-anchor:middle;">FLUSH_WAIT_EVICT_QUEUE_CLEAN</text></g><g id="sprotty_fsm$l1d_bank_fencei_flush_state_q/state$FLUSH_IDLE" class="state" transform="translate(93.12044270833336, 36)"><ellipse cx="52.140625" cy="20.0078125" rx="52.140625" ry="20.0078125" class="sprotty-node clickable" style="fill:rgb(255, 255, 255);stroke:rgb(48, 48, 48);"/><text class="clickable sprotty-label state" id="sprotty_fsm$l1d_bank_fencei_flush_state_q/state$FLUSH_IDLE/label" transform="translate(6, 8) translate(46.140625, 18.671875)" style="cursor:default;perspective-origin:0px 0px;fill:rgb(48, 48, 48);text-anchor:middle;">FLUSH_IDLE</text></g><g id="sprotty_fsm$l1d_bank_fencei_flush_state_q/state$FLUSH_IDLE_to_fsm$l1d_bank_fencei_flush_state_q/state$FLUSH_READ_LST" class="sprotty-edge transition" style="fill:none;stroke:rgb(48, 48, 48);stroke-linejoin:round;"><g><path d=" M119.19075520833336,76.015625 C42.27864583333336,98.51468098958333 42.27864583333336,109.76420898437499 42.27864583333336,118.72360839843748 C42.27864583333336,127.68300781249998 42.27864583333336,134.3522786458333 42.27864583333336,141.02154947916665 C42.27864583333336,147.69082031249997 42.27864583333336,154.3600911458333 42.27864583333336,161.44472656249997 C42.27864583333336,168.52936197916665 42.27864583333336,176.02936197916665 86.39973958333336,191.02936197916665"/><path d=" M119.19075520833336,76.015625 C42.27864583333336,98.51468098958333 42.27864583333336,109.76420898437499 42.27864583333336,118.72360839843748 C42.27864583333336,127.68300781249998 42.27864583333336,134.3522786458333 42.27864583333336,141.02154947916665 C42.27864583333336,147.69082031249997 42.27864583333336,154.3600911458333 42.27864583333336,161.44472656249997 C42.27864583333336,168.52936197916665 42.27864583333336,176.02936197916665 86.39973958333336,191.02936197916665" class="clickable"/></g><path d="M 86.39973958333336,191.02936197916665 L 93.39973958333336,188.52936197916665 L 93.39973958333336,193.52936197916665 Z" transform="rotate(-161.22333089782262 86.39973958333336 191.02936197916665)" class="arrow" style="fill:rgb(48, 48, 48);stroke-linejoin:miter;stroke-miterlimit:2;"/></g><g id="sprotty_fsm$l1d_bank_fencei_flush_state_q/state$FLUSH_IDLE_to_fsm$l1d_bank_fencei_flush_state_q/state$FLUSH_PENDING" class="sprotty-edge transition" style="fill:none;stroke:rgb(48, 48, 48);stroke-linejoin:round;"><g><path d=" M145.26106770833337,76.015625 C145.26106770833337,76.015625 125.40657552083336,98.51468098958333 123.20052083333336,121.01373697916665"/><path d=" M145.26106770833337,76.015625 C145.26106770833337,76.015625 125.40657552083336,98.51468098958333 123.20052083333336,121.01373697916665" class="clickable"/></g><path d="M 123.20052083333336,121.01373697916665 L 130.20052083333337,118.51373697916665 L 130.20052083333337,123.51373697916665 Z" transform="rotate(-84.3999925347002 123.20052083333336 121.01373697916665)" class="arrow" style="fill:rgb(48, 48, 48);stroke-linejoin:miter;stroke-miterlimit:2;"/></g><g id="sprotty_fsm$l1d_bank_fencei_flush_state_q/state$FLUSH_PENDING_to_fsm$l1d_bank_fencei_flush_state_q/state$FLUSH_READ_LST" class="sprotty-edge transition" style="fill:none;stroke:rgb(48, 48, 48);stroke-linejoin:round;"><g><path d=" M123.20052083333336,161.02936197916665 C123.20052083333336,161.02936197916665 123.20052083333336,176.02936197916665 123.20052083333336,191.02936197916665"/><path d=" M123.20052083333336,161.02936197916665 C123.20052083333336,161.02936197916665 123.20052083333336,176.02936197916665 123.20052083333336,191.02936197916665" class="clickable"/></g><path d="M 123.20052083333336,191.02936197916665 L 130.20052083333337,188.52936197916665 L 130.20052083333337,193.52936197916665 Z" transform="rotate(-90 123.20052083333336 191.02936197916665)" class="arrow" style="fill:rgb(48, 48, 48);stroke-linejoin:miter;stroke-miterlimit:2;"/></g><g id="sprotty_fsm$l1d_bank_fencei_flush_state_q/state$FLUSH_READ_LST_to_fsm$l1d_bank_fencei_flush_state_q/state$FLUSH_READ_DATA_RAM_WRITE_LST" class="sprotty-edge transition" style="fill:none;stroke:rgb(48, 48, 48);stroke-linejoin:round;"><g><path d=" M147.73437500000003,231.04498697916665 C147.73437500000003,231.04498697916665 172.12890625,246.04498697916665 391.6796875,261.04498697916665"/><path d=" M147.73437500000003,231.04498697916665 C147.73437500000003,231.04498697916665 172.12890625,246.04498697916665 391.6796875,261.04498697916665" class="clickable"/></g><path d="M 391.6796875,261.04498697916665 L 398.6796875,258.54498697916665 L 398.6796875,263.54498697916665 Z" transform="rotate(-176.0915502400837 391.6796875 261.04498697916665)" class="arrow" style="fill:rgb(48, 48, 48);stroke-linejoin:miter;stroke-miterlimit:2;"/></g><g id="sprotty_fsm$l1d_bank_fencei_flush_state_q/state$FLUSH_READ_LST_to_fsm$l1d_bank_fencei_flush_state_q/state$FLUSH_WAIT_EVICT_QUEUE_CLEAN" class="sprotty-edge transition" style="fill:none;stroke:rgb(48, 48, 48);stroke-linejoin:round;"><g><path d=" M98.66666666666669,231.04498697916665 C98.66666666666669,231.04498697916665 102.24479166666669,246.04498697916665 105.82291666666667,261.04498697916665"/><path d=" M98.66666666666669,231.04498697916665 C98.66666666666669,231.04498697916665 102.24479166666669,246.04498697916665 105.82291666666667,261.04498697916665" class="clickable"/></g><path d="M 105.82291666666667,261.04498697916665 L 112.82291666666667,258.54498697916665 L 112.82291666666667,263.54498697916665 Z" transform="rotate(-103.4167015549688 105.82291666666667 261.04498697916665)" class="arrow" style="fill:rgb(48, 48, 48);stroke-linejoin:miter;stroke-miterlimit:2;"/></g><g id="sprotty_fsm$l1d_bank_fencei_flush_state_q/state$FLUSH_READ_DATA_RAM_WRITE_LST_to_fsm$l1d_bank_fencei_flush_state_q/state$FLUSH_ENQUEUE_EVICT_QUEUE" class="sprotty-edge transition" style="fill:none;stroke:rgb(48, 48, 48);stroke-linejoin:round;"><g><path d=" M464.890625,261.04498697916665 C464.890625,246.04498697916665 464.890625,232.29108072916665 464.890625,220.82949218749997 C464.890625,209.3679036458333 464.89062500000006,200.1986328125 464.89062499999994,191.8639973958333 C464.89062499999994,183.52936197916665 464.890625,176.02936197916665 445.0420572916667,161.02936197916665"/><path d=" M464.890625,261.04498697916665 C464.890625,246.04498697916665 464.890625,232.29108072916665 464.890625,220.82949218749997 C464.890625,209.3679036458333 464.89062500000006,200.1986328125 464.89062499999994,191.8639973958333 C464.89062499999994,183.52936197916665 464.890625,176.02936197916665 445.0420572916667,161.02936197916665" class="clickable"/></g><path d="M 445.0420572916667,161.02936197916665 L 452.0420572916667,158.52936197916665 L 452.0420572916667,163.52936197916665 Z" transform="rotate(37.079145046765255 445.0420572916667 161.02936197916665)" class="arrow" style="fill:rgb(48, 48, 48);stroke-linejoin:miter;stroke-miterlimit:2;"/></g><g id="sprotty_fsm$l1d_bank_fencei_flush_state_q/state$FLUSH_ENQUEUE_EVICT_QUEUE_to_fsm$l1d_bank_fencei_flush_state_q/state$FLUSH_WAIT_EVICT_QUEUE_CLEAN" class="sprotty-edge transition" style="fill:none;stroke:rgb(48, 48, 48);stroke-linejoin:round;"><g><path d=" M393.11080729166673,161.02936197916665 C264.39348958333335,176.02936197916665 264.39348958333335,183.52936197916665 264.39348958333335,190.6139973958333 C264.39348958333335,197.69863281249997 264.39348958333335,204.3679036458333 264.39348958333335,211.03717447916665 C264.39348958333335,217.70644531249997 264.39348958333335,224.3757161458333 264.39348958333335,231.46035156249997 C264.39348958333335,238.54498697916665 264.39348958333335,246.04498697916665 199.64583333333334,261.04498697916665"/><path d=" M393.11080729166673,161.02936197916665 C264.39348958333335,176.02936197916665 264.39348958333335,183.52936197916665 264.39348958333335,190.6139973958333 C264.39348958333335,197.69863281249997 264.39348958333335,204.3679036458333 264.39348958333335,211.03717447916665 C264.39348958333335,217.70644531249997 264.39348958333335,224.3757161458333 264.39348958333335,231.46035156249997 C264.39348958333335,238.54498697916665 264.39348958333335,246.04498697916665 199.64583333333334,261.04498697916665" class="clickable"/></g><path d="M 199.64583333333334,261.04498697916665 L 206.64583333333334,258.54498697916665 L 206.64583333333334,263.54498697916665 Z" transform="rotate(-13.043532693188105 199.64583333333334 261.04498697916665)" class="arrow" style="fill:rgb(48, 48, 48);stroke-linejoin:miter;stroke-miterlimit:2;"/></g><g id="sprotty_fsm$l1d_bank_fencei_flush_state_q/state$FLUSH_ENQUEUE_EVICT_QUEUE_to_fsm$l1d_bank_fencei_flush_state_q/state$FLUSH_READ_LST" class="sprotty-edge transition" style="fill:none;stroke:rgb(48, 48, 48);stroke-linejoin:round;"><g><path d=" M341.1795572916667,161.02936197916665 C341.1795572916667,161.02936197916665 178.1191276041667,176.02936197916665 160.00130208333337,191.02936197916665"/><path d=" M341.1795572916667,161.02936197916665 C341.1795572916667,161.02936197916665 178.1191276041667,176.02936197916665 160.00130208333337,191.02936197916665" class="clickable"/></g><path d="M 160.00130208333337,191.02936197916665 L 167.00130208333337,188.52936197916665 L 167.00130208333337,193.52936197916665 Z" transform="rotate(-39.621830580390444 160.00130208333337 191.02936197916665)" class="arrow" style="fill:rgb(48, 48, 48);stroke-linejoin:miter;stroke-miterlimit:2;"/></g><g id="sprotty_fsm$l1d_bank_fencei_flush_state_q/state$FLUSH_ENQUEUE_EVICT_QUEUE_to_fsm$l1d_bank_fencei_flush_state_q/state$FLUSH_READ_DATA_RAM_WRITE_LST" class="sprotty-edge transition" style="fill:none;stroke:rgb(48, 48, 48);stroke-linejoin:round;"><g><path d=" M496.97330729166674,161.02936197916665 C537.6359375,176.02936197916665 537.6359375,183.52936197916665 537.6359375,190.6139973958333 C537.6359375,197.69863281249997 537.6359375,204.3679036458333 537.6359375,211.03717447916665 C537.6359375,217.70644531249997 537.6359375,224.3757161458333 537.6359375,231.46035156249997 C537.6359375,238.54498697916665 537.6359375,246.04498697916665 538.1015625,261.04498697916665"/><path d=" M496.97330729166674,161.02936197916665 C537.6359375,176.02936197916665 537.6359375,183.52936197916665 537.6359375,190.6139973958333 C537.6359375,197.69863281249997 537.6359375,204.3679036458333 537.6359375,211.03717447916665 C537.6359375,217.70644531249997 537.6359375,224.3757161458333 537.6359375,231.46035156249997 C537.6359375,238.54498697916665 537.6359375,246.04498697916665 538.1015625,261.04498697916665" class="clickable"/></g><path d="M 538.1015625,261.04498697916665 L 545.1015625,258.54498697916665 L 545.1015625,263.54498697916665 Z" transform="rotate(-91.77798555560888 538.1015625 261.04498697916665)" class="arrow" style="fill:rgb(48, 48, 48);stroke-linejoin:miter;stroke-miterlimit:2;"/></g><g id="sprotty_fsm$l1d_bank_fencei_flush_state_q/state$FLUSH_WAIT_EVICT_QUEUE_CLEAN_to_fsm$l1d_bank_fencei_flush_state_q/state$FLUSH_FINISH" class="sprotty-edge transition" style="fill:none;stroke:rgb(48, 48, 48);stroke-linejoin:round;"><g><path d=" M152.734375,301.06061197916665 C152.734375,301.06061197916665 174.13880208333333,311.7628255208333 366.77864583333337,322.4650390625"/><path d=" M152.734375,301.06061197916665 C152.734375,301.06061197916665 174.13880208333333,311.7628255208333 366.77864583333337,322.4650390625" class="clickable"/></g><path d="M 366.77864583333337,322.4650390625 L 373.77864583333337,319.9650390625 L 373.77864583333337,324.9650390625 Z" transform="rotate(-176.82016988013578 366.77864583333337 322.4650390625)" class="arrow" style="fill:rgb(48, 48, 48);stroke-linejoin:miter;stroke-miterlimit:2;"/></g><g id="sprotty_fsm$l1d_bank_fencei_flush_state_q/state$FLUSH_FINISH_to_fsm$l1d_bank_fencei_flush_state_q/state$FLUSH_IDLE" class="sprotty-edge transition" style="fill:none;stroke:rgb(48, 48, 48);stroke-linejoin:round;"><g><path d=" M407.26822916666674,322.4650390625 C621.3125,311.7628255208333 621.3125,306.41171875 621.3125,299.15152994791663 C621.3125,291.8913411458333 621.3125,282.7220703125 621.3125,273.55279947916665 C621.3125,264.3835286458333 621.3125,255.2142578125 621.3124999999998,238.96035156249997 C621.3124999999998,222.70644531249997 621.3124999999998,199.3679036458333 621.3125,183.11399739583328 C621.3125,166.86009114583328 621.3125,157.69082031249997 621.3125,148.52154947916665 C621.3125,139.3522786458333 621.3125,130.18300781249997 621.3125,119.97360839843748 C621.3125,109.76420898437499 621.3125,98.51468098958333 171.33138020833337,76.015625"/><path d=" M407.26822916666674,322.4650390625 C621.3125,311.7628255208333 621.3125,306.41171875 621.3125,299.15152994791663 C621.3125,291.8913411458333 621.3125,282.7220703125 621.3125,273.55279947916665 C621.3125,264.3835286458333 621.3125,255.2142578125 621.3124999999998,238.96035156249997 C621.3124999999998,222.70644531249997 621.3124999999998,199.3679036458333 621.3125,183.11399739583328 C621.3125,166.86009114583328 621.3125,157.69082031249997 621.3125,148.52154947916665 C621.3125,139.3522786458333 621.3125,130.18300781249997 621.3125,119.97360839843748 C621.3125,109.76420898437499 621.3125,98.51468098958333 171.33138020833337,76.015625" class="clickable"/></g><path d="M 171.33138020833337,76.015625 L 178.33138020833337,73.515625 L 178.33138020833337,78.515625 Z" transform="rotate(2.862405226111747 171.33138020833337 76.015625)" class="arrow" style="fill:rgb(48, 48, 48);stroke-linejoin:miter;stroke-miterlimit:2;"/></g></g></g></svg>