<svg xmlns="http://www.w3.org/2000/svg" id="sprotty_root" class="sprotty-graph sprotty-state-machine statemachine" style="font-family:&quot;Noto Sans&quot;, Helvetica, Arial, sans-serif;-webkit-locale:&quot;en&quot;;perspective-origin:0px 0px;transform-origin:0px 0px;" version="1.1" viewBox="10 10 248.046875 298.0625" width="248.046875" height="298.0625"><g transform="scale(1) translate(0,0)"><g id="sprotty_fsm$stb_evict_state_q" class="statemachine" transform="translate(15, 15)"><g class="sprotty-block" style="fill:rgb(255, 255, 255);stroke:rgb(48, 48, 48);stroke-dasharray:0px;"><rect x="0" y="0" rx="1" ry="1" width="238.046875" height="288.0625"/><text x="119.0234375" y="12" class="sprotty-block-name" style="cursor:pointer;font-weight:700;perspective-origin:79.125px 0px;fill:rgb(48, 48, 48);stroke:rgba(0, 0, 0, 0);dominant-baseline:middle;text-anchor:middle;">stb_evict_state_q</text><line x1="0" y1="20" x2="238.046875" y2="20"/></g><g id="sprotty_fsm$stb_evict_state_q/state$SELECTED_EVICT" class="state" transform="translate(74, 106.015625)"><ellipse cx="70.5234375" cy="20.0078125" rx="70.5234375" ry="20.0078125" class="sprotty-node clickable" style="fill:rgb(255, 255, 255);stroke:rgb(48, 48, 48);"/><text class="clickable sprotty-label state" id="sprotty_fsm$stb_evict_state_q/state$SELECTED_EVICT/label" transform="translate(6, 8) translate(64.3125, 18.671875)" style="cursor:default;perspective-origin:0.135417px 0px;fill:rgb(48, 48, 48);text-anchor:middle;">SELECTED_EVICT</text></g><g id="sprotty_fsm$stb_evict_state_q/state$IN_AGE_EVICT" class="state" transform="translate(82.28515625, 36)"><ellipse cx="59.6484375" cy="20.0078125" rx="59.6484375" ry="20.0078125" class="sprotty-node clickable" style="fill:rgb(255, 255, 255);stroke:rgb(48, 48, 48);"/><text class="clickable sprotty-label state" id="sprotty_fsm$stb_evict_state_q/state$IN_AGE_EVICT/label" transform="translate(6, 8) translate(53.4375, 18.671875)" style="cursor:default;perspective-origin:0.135417px 0px;fill:rgb(48, 48, 48);text-anchor:middle;">IN_AGE_EVICT</text></g><g id="sprotty_fsm$stb_evict_state_q/state$IDLE" class="state" transform="translate(108.30859375, 176.03125)"><ellipse cx="25" cy="20.0078125" rx="25" ry="20.0078125" class="sprotty-node clickable" style="fill:rgb(255, 255, 255);stroke:rgb(48, 48, 48);"/><text class="clickable sprotty-label state" id="sprotty_fsm$stb_evict_state_q/state$IDLE/label" transform="translate(8.109375, 8) translate(16.890625, 18.671875)" style="cursor:default;perspective-origin:0px 0px;fill:rgb(48, 48, 48);text-anchor:middle;">IDLE</text></g><g id="sprotty_fsm$stb_evict_state_q/state$FLUSH" class="state" transform="translate(100.35026041666667, 236.046875)"><ellipse cx="30.78125" cy="20.0078125" rx="30.78125" ry="20.0078125" class="sprotty-node clickable" style="fill:rgb(255, 255, 255);stroke:rgb(48, 48, 48);"/><text class="clickable sprotty-label state" id="sprotty_fsm$stb_evict_state_q/state$FLUSH/label" transform="translate(6, 8) translate(24.78125, 18.671875)" style="cursor:default;perspective-origin:0px 0px;fill:rgb(48, 48, 48);text-anchor:middle;">FLUSH</text></g><g id="sprotty_fsm$stb_evict_state_q/state$IDLE_to_fsm$stb_evict_state_q/state$FLUSH" class="sprotty-edge transition" style="fill:none;stroke:rgb(48, 48, 48);stroke-linejoin:round;"><g><path d=" M124.97526041666667,216.046875 C124.97526041666667,216.046875 124.97526041666667,226.046875 124.97526041666667,236.046875"/><path d=" M124.97526041666667,216.046875 C124.97526041666667,216.046875 124.97526041666667,226.046875 124.97526041666667,236.046875" class="clickable"/></g><path d="M 124.97526041666667,236.046875 L 131.97526041666669,233.546875 L 131.97526041666669,238.546875 Z" transform="rotate(-90 124.97526041666667 236.046875)" class="arrow" style="fill:rgb(48, 48, 48);stroke-linejoin:miter;stroke-miterlimit:2;"/></g><g id="sprotty_fsm$stb_evict_state_q/state$IDLE_to_fsm$stb_evict_state_q/state$SELECTED_EVICT" class="sprotty-edge transition" style="fill:none;stroke:rgb(48, 48, 48);stroke-linejoin:round;"><g><path d=" M128.30859375,176.03125 C111.16640625,161.03125 109.26171875,146.03125 109.26171875,146.03125"/><path d=" M128.30859375,176.03125 C111.16640625,161.03125 109.26171875,146.03125 109.26171875,146.03125" class="clickable"/></g><path d="M 109.26171875,146.03125 L 116.26171875,143.53125 L 116.26171875,148.53125 Z" transform="rotate(82.76335766938496 109.26171875 146.03125)" class="arrow" style="fill:rgb(48, 48, 48);stroke-linejoin:miter;stroke-miterlimit:2;"/></g><g id="sprotty_fsm$stb_evict_state_q/state$IDLE_to_fsm$stb_evict_state_q/state$IN_AGE_EVICT" class="sprotty-edge transition" style="fill:none;stroke:rgb(48, 48, 48);stroke-linejoin:round;"><g><path d=" M118.30859375,176.03125 C63,161.03125 63,153.53125 63,146.44661458333331 C63,139.36197916666666 63,132.69270833333331 63,126.0234375 C63,119.35416666666666 63,112.68489583333333 63,105.60026041666666 C63,98.515625 63,91.015625 122.05078125,76.015625"/><path d=" M118.30859375,176.03125 C63,161.03125 63,153.53125 63,146.44661458333331 C63,139.36197916666666 63,132.69270833333331 63,126.0234375 C63,119.35416666666666 63,112.68489583333333 63,105.60026041666666 C63,98.515625 63,91.015625 122.05078125,76.015625" class="clickable"/></g><path d="M 122.05078125,76.015625 L 129.05078125,73.515625 L 129.05078125,78.515625 Z" transform="rotate(165.74725457032176 122.05078125 76.015625)" class="arrow" style="fill:rgb(48, 48, 48);stroke-linejoin:miter;stroke-miterlimit:2;"/></g><g id="sprotty_fsm$stb_evict_state_q/state$SELECTED_EVICT_to_fsm$stb_evict_state_q/state$FLUSH" class="sprotty-edge transition" style="fill:none;stroke:rgb(48, 48, 48);stroke-linejoin:round;"><g><path d=" M179.78515625,146.03125 C183.5703125,161.03125 183.5703125,168.53125 183.5703125,175.61588541666666 C183.5703125,182.70052083333331 183.5703125,189.36979166666666 183.5703125,196.0390625 C183.5703125,202.70833333333331 183.5703125,209.37760416666666 183.5703125,215.21223958333331 C183.5703125,221.046875 183.5703125,226.046875 149.60026041666669,236.046875"/><path d=" M179.78515625,146.03125 C183.5703125,161.03125 183.5703125,168.53125 183.5703125,175.61588541666666 C183.5703125,182.70052083333331 183.5703125,189.36979166666666 183.5703125,196.0390625 C183.5703125,202.70833333333331 183.5703125,209.37760416666666 183.5703125,215.21223958333331 C183.5703125,221.046875 183.5703125,226.046875 149.60026041666669,236.046875" class="clickable"/></g><path d="M 149.60026041666669,236.046875 L 156.60026041666669,233.546875 L 156.60026041666669,238.546875 Z" transform="rotate(-16.40321295651838 149.60026041666669 236.046875)" class="arrow" style="fill:rgb(48, 48, 48);stroke-linejoin:miter;stroke-miterlimit:2;"/></g><g id="sprotty_fsm$stb_evict_state_q/state$SELECTED_EVICT_to_fsm$stb_evict_state_q/state$IN_AGE_EVICT" class="sprotty-edge transition" style="fill:none;stroke:rgb(48, 48, 48);stroke-linejoin:round;"><g><path d=" M121.015625,106.015625 C123.107421875,91.015625 141.93359375,76.015625 141.93359375,76.015625"/><path d=" M121.015625,106.015625 C123.107421875,91.015625 141.93359375,76.015625 141.93359375,76.015625" class="clickable"/></g><path d="M 141.93359375,76.015625 L 148.93359375,73.515625 L 148.93359375,78.515625 Z" transform="rotate(141.45345449648084 141.93359375 76.015625)" class="arrow" style="fill:rgb(48, 48, 48);stroke-linejoin:miter;stroke-miterlimit:2;"/></g><g id="sprotty_fsm$stb_evict_state_q/state$SELECTED_EVICT_to_fsm$stb_evict_state_q/state$IDLE" class="sprotty-edge transition" style="fill:none;stroke:rgb(48, 48, 48);stroke-linejoin:round;"><g><path d=" M144.5234375,146.03125 C144.5234375,146.03125 143.901953125,161.03125 138.30859375,176.03125"/><path d=" M144.5234375,146.03125 C144.5234375,146.03125 143.901953125,161.03125 138.30859375,176.03125" class="clickable"/></g><path d="M 138.30859375,176.03125 L 145.30859375,173.53125 L 145.30859375,178.53125 Z" transform="rotate(-69.54998613989434 138.30859375 176.03125)" class="arrow" style="fill:rgb(48, 48, 48);stroke-linejoin:miter;stroke-miterlimit:2;"/></g><g id="sprotty_fsm$stb_evict_state_q/state$IN_AGE_EVICT_to_fsm$stb_evict_state_q/state$FLUSH" class="sprotty-edge transition" style="fill:none;stroke:rgb(48, 48, 48);stroke-linejoin:round;"><g><path d=" M102.16796875,76.015625 C12,91.015625 12,98.515625 12,106.85026041666667 C12,115.18489583333333 12,124.35416666666667 12,133.5234375 C12,142.69270833333331 12,151.86197916666666 12,165.61588541666666 C12,179.36979166666666 12,197.70833333333334 12,209.37760416666669 C12,221.04687500000003 12,226.046875 112.66276041666667,236.046875"/><path d=" M102.16796875,76.015625 C12,91.015625 12,98.515625 12,106.85026041666667 C12,115.18489583333333 12,124.35416666666667 12,133.5234375 C12,142.69270833333331 12,151.86197916666666 12,165.61588541666666 C12,179.36979166666666 12,197.70833333333334 12,209.37760416666669 C12,221.04687500000003 12,226.046875 112.66276041666667,236.046875" class="clickable"/></g><path d="M 112.66276041666667,236.046875 L 119.66276041666667,233.546875 L 119.66276041666667,238.546875 Z" transform="rotate(-174.32675915272753 112.66276041666667 236.046875)" class="arrow" style="fill:rgb(48, 48, 48);stroke-linejoin:miter;stroke-miterlimit:2;"/></g><g id="sprotty_fsm$stb_evict_state_q/state$IN_AGE_EVICT_to_fsm$stb_evict_state_q/state$SELECTED_EVICT" class="sprotty-edge transition" style="fill:none;stroke:rgb(48, 48, 48);stroke-linejoin:round;"><g><path d=" M161.81640625,76.015625 C161.81640625,76.015625 167.409765625,91.015625 168.03125,106.015625"/><path d=" M161.81640625,76.015625 C161.81640625,76.015625 167.409765625,91.015625 168.03125,106.015625" class="clickable"/></g><path d="M 168.03125,106.015625 L 175.03125,103.515625 L 175.03125,108.515625 Z" transform="rotate(-92.37253847493062 168.03125 106.015625)" class="arrow" style="fill:rgb(48, 48, 48);stroke-linejoin:miter;stroke-miterlimit:2;"/></g><g id="sprotty_fsm$stb_evict_state_q/state$IN_AGE_EVICT_to_fsm$stb_evict_state_q/state$IDLE" class="sprotty-edge transition" style="fill:none;stroke:rgb(48, 48, 48);stroke-linejoin:round;"><g><path d=" M181.69921875,76.015625 C225.046875,91.015625 225.046875,98.515625 225.046875,105.60026041666666 C225.046875,112.68489583333333 225.046875,119.35416666666666 225.046875,126.0234375 C225.046875,132.69270833333331 225.046875,139.36197916666666 225.046875,146.44661458333331 C225.046875,153.53125 225.046875,161.03125 148.30859375,176.03125"/><path d=" M181.69921875,76.015625 C225.046875,91.015625 225.046875,98.515625 225.046875,105.60026041666666 C225.046875,112.68489583333333 225.046875,119.35416666666666 225.046875,126.0234375 C225.046875,132.69270833333331 225.046875,139.36197916666666 225.046875,146.44661458333331 C225.046875,153.53125 225.046875,161.03125 148.30859375,176.03125" class="clickable"/></g><path d="M 148.30859375,176.03125 L 155.30859375,173.53125 L 155.30859375,178.53125 Z" transform="rotate(-11.060126366858713 148.30859375 176.03125)" class="arrow" style="fill:rgb(48, 48, 48);stroke-linejoin:miter;stroke-miterlimit:2;"/></g><g id="sprotty_fsm$stb_evict_state_q/state$FLUSH_to_fsm$stb_evict_state_q/state$IDLE" class="sprotty-edge transition" style="fill:none;stroke:rgb(48, 48, 48);stroke-linejoin:round;"><g><path d=" M137.28776041666669,236.046875 C141.20651041666667,226.046875 141.64192708333334,216.046875 141.64192708333334,216.046875"/><path d=" M137.28776041666669,236.046875 C141.20651041666667,226.046875 141.64192708333334,216.046875 141.64192708333334,216.046875" class="clickable"/></g><path d="M 141.64192708333334,216.046875 L 148.64192708333334,213.546875 L 148.64192708333334,218.546875 Z" transform="rotate(92.49317894208846 141.64192708333334 216.046875)" class="arrow" style="fill:rgb(48, 48, 48);stroke-linejoin:miter;stroke-miterlimit:2;"/></g></g></g></svg>