<svg xmlns="http://www.w3.org/2000/svg" id="sprotty_root" class="sprotty-graph sprotty-state-machine statemachine" style="font-family:&quot;Noto Sans&quot;, Helvetica, Arial, sans-serif;-webkit-locale:&quot;en&quot;;perspective-origin:0px 0px;transform-origin:0px 0px;" version="1.1" viewBox="10 10 390.95703125 398.09375" width="390.95703125" height="398.09375"><g transform="scale(1) translate(0,0)"><g id="sprotty_fsm$l1d_fencei_state_q" class="statemachine" transform="translate(15, 15)"><g class="sprotty-block" style="fill:rgb(255, 255, 255);stroke:rgb(48, 48, 48);stroke-dasharray:0px;"><rect x="0" y="0" rx="1" ry="1" width="380.95703125" height="388.09375"/><text x="190.478515625" y="12" class="sprotty-block-name" style="cursor:pointer;font-weight:700;perspective-origin:126.979px 0px;fill:rgb(48, 48, 48);stroke:rgba(0, 0, 0, 0);dominant-baseline:middle;text-anchor:middle;">l1d_fencei_state_q</text><line x1="0" y1="20" x2="380.95703125" y2="20"/></g><g id="sprotty_fsm$l1d_fencei_state_q/state$FENCEI_IDLE" class="state" transform="translate(98.4453125, 36)"><ellipse cx="54.40625" cy="20.0078125" rx="54.40625" ry="20.0078125" class="sprotty-node clickable" style="fill:rgb(255, 255, 255);stroke:rgb(48, 48, 48);"/><text class="clickable sprotty-label state" id="sprotty_fsm$l1d_fencei_state_q/state$FENCEI_IDLE/label" transform="translate(6, 8) translate(48.40625, 18.671875)" style="cursor:default;perspective-origin:0px 0px;fill:rgb(48, 48, 48);text-anchor:middle;">FENCEI_IDLE</text></g><g id="sprotty_fsm$l1d_fencei_state_q/state$FENCEI_WAITING_FOR_STB_DONE" class="state" transform="translate(87.27734375000001, 156.03125)"><ellipse cx="135.5" cy="20.0078125" rx="135.5" ry="20.0078125" class="sprotty-node clickable" style="fill:rgb(255, 255, 255);stroke:rgb(48, 48, 48);"/><text class="clickable sprotty-label state" id="sprotty_fsm$l1d_fencei_state_q/state$FENCEI_WAITING_FOR_STB_DONE/label" transform="translate(6, 8) translate(129.5, 18.671875)" style="cursor:default;perspective-origin:0px 0px;fill:rgb(48, 48, 48);text-anchor:middle;">FENCEI_WAITING_FOR_STB_DONE</text></g><g id="sprotty_fsm$l1d_fencei_state_q/state$FENCEI_FINISH" class="state" transform="translate(66.76822916666667, 336.078125)"><ellipse cx="63" cy="20.0078125" rx="63" ry="20.0078125" class="sprotty-node clickable" style="fill:rgb(255, 255, 255);stroke:rgb(48, 48, 48);"/><text class="clickable sprotty-label state" id="sprotty_fsm$l1d_fencei_state_q/state$FENCEI_FINISH/label" transform="translate(6, 8) translate(57, 18.671875)" style="cursor:default;perspective-origin:0px 0px;fill:rgb(48, 48, 48);text-anchor:middle;">FENCEI_FINISH</text></g><g id="sprotty_fsm$l1d_fencei_state_q/state$FENCEI_REQ_TO_BANK" class="state" transform="translate(128.51953125, 216.046875)"><ellipse cx="94.2578125" cy="20.0078125" rx="94.2578125" ry="20.0078125" class="sprotty-node clickable" style="fill:rgb(255, 255, 255);stroke:rgb(48, 48, 48);"/><text class="clickable sprotty-label state" id="sprotty_fsm$l1d_fencei_state_q/state$FENCEI_REQ_TO_BANK/label" transform="translate(6, 8) translate(87.765625, 18.671875)" style="cursor:default;perspective-origin:0.322917px 0px;fill:rgb(48, 48, 48);text-anchor:middle;">FENCEI_REQ_TO_BANK</text></g><g id="sprotty_fsm$l1d_fencei_state_q/state$FENCEI_WAITING_FOR_STB_HSK" class="state" transform="translate(23, 96.015625)"><ellipse cx="129.8515625" cy="20.0078125" rx="129.8515625" ry="20.0078125" class="sprotty-node clickable" style="fill:rgb(255, 255, 255);stroke:rgb(48, 48, 48);"/><text class="clickable sprotty-label state" id="sprotty_fsm$l1d_fencei_state_q/state$FENCEI_WAITING_FOR_STB_HSK/label" transform="translate(6, 8) translate(123.359375, 18.671875)" style="cursor:default;perspective-origin:0.322917px 0px;fill:rgb(48, 48, 48);text-anchor:middle;">FENCEI_WAITING_FOR_STB_HSK</text></g><g id="sprotty_fsm$l1d_fencei_state_q/state$FENCEI_WAITING_FOR_BANK_GRANT" class="state" transform="translate(76.59765625000001, 276.0625)"><ellipse cx="146.1796875" cy="20.0078125" rx="146.1796875" ry="20.0078125" class="sprotty-node clickable" style="fill:rgb(255, 255, 255);stroke:rgb(48, 48, 48);"/><text class="clickable sprotty-label state" id="sprotty_fsm$l1d_fencei_state_q/state$FENCEI_WAITING_FOR_BANK_GRANT/label" transform="translate(6, 8) translate(139.96875, 18.671875)" style="cursor:default;perspective-origin:0.135417px 0px;fill:rgb(48, 48, 48);text-anchor:middle;">FENCEI_WAITING_FOR_BANK_GRANT</text></g><g id="sprotty_fsm$l1d_fencei_state_q/state$FENCEI_IDLE_to_fsm$l1d_fencei_state_q/state$FENCEI_WAITING_FOR_STB_DONE" class="sprotty-edge transition" style="fill:none;stroke:rgb(48, 48, 48);stroke-linejoin:round;"><g><path d=" M180.0546875,76.015625 C292.703125,86.015625 292.703125,91.015625 292.70312499999994,96.85026041666666 C292.70312499999994,102.68489583333333 292.70312499999994,109.35416666666666 292.70312499999994,116.0234375 C292.70312499999994,122.69270833333333 292.70312499999994,129.36197916666666 292.70312499999994,135.19661458333331 C292.703125,141.03125 292.703125,146.03125 267.9440104166667,156.03125"/><path d=" M180.0546875,76.015625 C292.703125,86.015625 292.703125,91.015625 292.70312499999994,96.85026041666666 C292.70312499999994,102.68489583333333 292.70312499999994,109.35416666666666 292.70312499999994,116.0234375 C292.70312499999994,122.69270833333333 292.70312499999994,129.36197916666666 292.70312499999994,135.19661458333331 C292.703125,141.03125 292.703125,146.03125 267.9440104166667,156.03125" class="clickable"/></g><path d="M 267.9440104166667,156.03125 L 274.9440104166667,153.53125 L 274.9440104166667,158.53125 Z" transform="rotate(-21.99337180897129 267.9440104166667 156.03125)" class="arrow" style="fill:rgb(48, 48, 48);stroke-linejoin:miter;stroke-miterlimit:2;"/></g><g id="sprotty_fsm$l1d_fencei_state_q/state$FENCEI_IDLE_to_fsm$l1d_fencei_state_q/state$FENCEI_WAITING_FOR_STB_HSK" class="sprotty-edge transition" style="fill:none;stroke:rgb(48, 48, 48);stroke-linejoin:round;"><g><path d=" M152.8515625,76.015625 C152.8515625,76.015625 152.8515625,86.015625 152.8515625,96.015625"/><path d=" M152.8515625,76.015625 C152.8515625,76.015625 152.8515625,86.015625 152.8515625,96.015625" class="clickable"/></g><path d="M 152.8515625,96.015625 L 159.8515625,93.515625 L 159.8515625,98.515625 Z" transform="rotate(-90 152.8515625 96.015625)" class="arrow" style="fill:rgb(48, 48, 48);stroke-linejoin:miter;stroke-miterlimit:2;"/></g><g id="sprotty_fsm$l1d_fencei_state_q/state$FENCEI_WAITING_FOR_STB_HSK_to_fsm$l1d_fencei_state_q/state$FENCEI_WAITING_FOR_STB_DONE" class="sprotty-edge transition" style="fill:none;stroke:rgb(48, 48, 48);stroke-linejoin:round;"><g><path d=" M152.8515625,136.03125 C152.8515625,136.03125 155.32747395833337,146.03125 177.61067708333334,156.03125"/><path d=" M152.8515625,136.03125 C152.8515625,136.03125 155.32747395833337,146.03125 177.61067708333334,156.03125" class="clickable"/></g><path d="M 177.61067708333334,156.03125 L 184.61067708333334,153.53125 L 184.61067708333334,158.53125 Z" transform="rotate(-155.830958497438 177.61067708333334 156.03125)" class="arrow" style="fill:rgb(48, 48, 48);stroke-linejoin:miter;stroke-miterlimit:2;"/></g><g id="sprotty_fsm$l1d_fencei_state_q/state$FENCEI_WAITING_FOR_STB_DONE_to_fsm$l1d_fencei_state_q/state$FENCEI_REQ_TO_BANK" class="sprotty-edge transition" style="fill:none;stroke:rgb(48, 48, 48);stroke-linejoin:round;"><g><path d=" M222.77734375,196.046875 C222.77734375,196.046875 222.77734375,206.046875 222.77734375,216.046875"/><path d=" M222.77734375,196.046875 C222.77734375,196.046875 222.77734375,206.046875 222.77734375,216.046875" class="clickable"/></g><path d="M 222.77734375,216.046875 L 229.77734375,213.546875 L 229.77734375,218.546875 Z" transform="rotate(-90 222.77734375 216.046875)" class="arrow" style="fill:rgb(48, 48, 48);stroke-linejoin:miter;stroke-miterlimit:2;"/></g><g id="sprotty_fsm$l1d_fencei_state_q/state$FENCEI_REQ_TO_BANK_to_fsm$l1d_fencei_state_q/state$FENCEI_WAITING_FOR_BANK_GRANT" class="sprotty-edge transition" style="fill:none;stroke:rgb(48, 48, 48);stroke-linejoin:round;"><g><path d=" M222.77734375,256.0625 C222.77734375,256.0625 222.77734375,266.0625 222.77734375,276.0625"/><path d=" M222.77734375,256.0625 C222.77734375,256.0625 222.77734375,266.0625 222.77734375,276.0625" class="clickable"/></g><path d="M 222.77734375,276.0625 L 229.77734375,273.5625 L 229.77734375,278.5625 Z" transform="rotate(-90 222.77734375 276.0625)" class="arrow" style="fill:rgb(48, 48, 48);stroke-linejoin:miter;stroke-miterlimit:2;"/></g><g id="sprotty_fsm$l1d_fencei_state_q/state$FENCEI_WAITING_FOR_BANK_GRANT_to_fsm$l1d_fencei_state_q/state$FENCEI_FINISH" class="sprotty-edge transition" style="fill:none;stroke:rgb(48, 48, 48);stroke-linejoin:round;"><g><path d=" M222.77734375,316.078125 C222.77734375,316.078125 215.57643229166666,326.078125 150.76822916666669,336.078125"/><path d=" M222.77734375,316.078125 C222.77734375,316.078125 215.57643229166666,326.078125 150.76822916666669,336.078125" class="clickable"/></g><path d="M 150.76822916666669,336.078125 L 157.76822916666669,333.578125 L 157.76822916666669,338.578125 Z" transform="rotate(-8.771644155028056 150.76822916666669 336.078125)" class="arrow" style="fill:rgb(48, 48, 48);stroke-linejoin:miter;stroke-miterlimit:2;"/></g><g id="sprotty_fsm$l1d_fencei_state_q/state$FENCEI_FINISH_to_fsm$l1d_fencei_state_q/state$FENCEI_IDLE" class="sprotty-edge transition" style="fill:none;stroke:rgb(48, 48, 48);stroke-linejoin:round;"><g><path d=" M108.76822916666667,336.078125 C12,326.078125 12,321.078125 12,310.2421875 C12,299.40625 12,282.734375 12,269.39713541666663 C12,256.0598958333333 12,246.05729166666666 12,236.0546875 C12,226.05208333333331 12,216.04947916666666 12,201.04557291666666 C12,186.04166666666666 12,166.03645833333331 12,151.86588541666666 C12,137.6953125 12,129.359375 12,121.0234375 C12,112.6875 12,104.3515625 12,97.68359375 C12,91.015625 12,86.015625 125.6484375,76.015625"/><path d=" M108.76822916666667,336.078125 C12,326.078125 12,321.078125 12,310.2421875 C12,299.40625 12,282.734375 12,269.39713541666663 C12,256.0598958333333 12,246.05729166666666 12,236.0546875 C12,226.05208333333331 12,216.04947916666666 12,201.04557291666666 C12,186.04166666666666 12,166.03645833333331 12,151.86588541666666 C12,137.6953125 12,129.359375 12,121.0234375 C12,112.6875 12,104.3515625 12,97.68359375 C12,91.015625 12,86.015625 125.6484375,76.015625" class="clickable"/></g><path d="M 125.6484375,76.015625 L 132.6484375,73.515625 L 132.6484375,78.515625 Z" transform="rotate(174.97145796100915 125.6484375 76.015625)" class="arrow" style="fill:rgb(48, 48, 48);stroke-linejoin:miter;stroke-miterlimit:2;"/></g></g></g></svg>