<svg xmlns="http://www.w3.org/2000/svg" id="sprotty_work.rrv64_cell_clkgate" class="sprotty-graph sprotty-block-diagram blockdiagram" style="font-family:&quot;Noto Sans&quot;, Helvetica, Arial, sans-serif;-webkit-locale:&quot;en&quot;;perspective-origin:0px 0px;transform-origin:0px 0px;" version="1.1" viewBox="7 7 337.421875 153" width="337.421875" height="153"><g transform="scale(1) translate(0,0)"><g id="sprotty_ArchitectureBlockImpl$rrv64_cell_clkgate" class="architecture" transform="translate(12, 12)"><g class="sprotty-block" style="fill:rgb(255, 255, 255);stroke:rgb(48, 48, 48);stroke-dasharray:0px;"><rect x="0" y="0" rx="1" ry="1" width="327.421875" height="143"/><text x="163.7109375" y="12" class="sprotty-block-name" style="cursor:pointer;font-weight:700;perspective-origin:109.146px 0px;fill:rgb(48, 48, 48);stroke:rgba(0, 0, 0, 0);dominant-baseline:middle;text-anchor:middle;">rrv64_cell_clkgate</text><line x1="0" y1="20" x2="327.421875" y2="20"/></g><g id="sprotty_ArchitectureBlockImpl$rrv64_cell_clkgate/AssignmentBlockImpl$clk_gated_o/GPortImpl$clk_gated_oOUT_to_ArchitectureBlockImpl$rrv64_cell_clkgate/BPortImpl$clk_gated_o" class="sprotty-edge edge" style="fill:none;stroke:rgb(112, 112, 112);stroke-linejoin:round;"><g><path d="M 237.953125 89 L 327.421875 89 "/><path d="M 237.953125 89 L 327.421875 89 " class="clickable"/></g></g><g id="sprotty_ArchitectureBlockImpl$rrv64_cell_clkgate/BPortImpl$clk_enable_i_to_ArchitectureBlockImpl$rrv64_cell_clkgate/AssignmentBlockImpl$clk_en/GPortImpl$clk_enable_iIN" class="sprotty-edge edge" style="fill:none;stroke:rgb(112, 112, 112);stroke-linejoin:round;"><g><path d="M 0 70 L 105.765625 70 C 106.765625 70 107.765625 71 107.765625 72 L 107.765625 92 C 107.765625 93 108.765625 94 109.765625 94 L 117.765625 94 "/><path d="M 0 70 L 105.765625 70 C 106.765625 70 107.765625 71 107.765625 72 L 107.765625 92 C 107.765625 93 108.765625 94 109.765625 94 L 117.765625 94 " class="clickable"/></g></g><g id="sprotty_ArchitectureBlockImpl$rrv64_cell_clkgate/BPortImpl$clk_senable_i_to_ArchitectureBlockImpl$rrv64_cell_clkgate/AssignmentBlockImpl$clk_en/GPortImpl$clk_senable_iIN" class="sprotty-edge edge" style="fill:none;stroke:rgb(112, 112, 112);stroke-linejoin:round;"><g><path d="M 0 104 L 117.765625 104 "/><path d="M 0 104 L 117.765625 104 " class="clickable"/></g></g><g id="sprotty_ArchitectureBlockImpl$rrv64_cell_clkgate/BPortImpl$clk_i_to_ArchitectureBlockImpl$rrv64_cell_clkgate/AssignmentBlockImpl$clk_gated_o/GPortImpl$clk_iIN" class="sprotty-edge edge" style="fill:none;stroke:rgb(112, 112, 112);stroke-linejoin:round;"><g><path d="M 0 36 L 205.21875 36 C 206.21875 36 207.21875 37 207.21875 38 L 207.21875 82 C 207.21875 83 208.21875 84 209.21875 84 L 217.21875 84 "/><path d="M 0 36 L 205.21875 36 C 206.21875 36 207.21875 37 207.21875 38 L 207.21875 82 C 207.21875 83 208.21875 84 209.21875 84 L 217.21875 84 " class="clickable"/></g></g><g id="sprotty_ArchitectureBlockImpl$rrv64_cell_clkgate/BPortImpl$clk_i_to_ArchitectureBlockImpl$rrv64_cell_clkgate/AlwaysBlockImpl$null4/GPortImpl$clk_iIN" class="sprotty-edge edge" style="fill:none;stroke:rgb(112, 112, 112);stroke-linejoin:round;"><g><path d="M 0 36 L 146.5 36 C 147.5 36 148.5 37 148.5 38 L 148.5 87 C 148.5 88 149.5 89 150.5 89 L 158.5 89 "/><path d="M 0 36 L 146.5 36 C 147.5 36 148.5 37 148.5 38 L 148.5 87 C 148.5 88 149.5 89 150.5 89 L 158.5 89 " class="clickable"/></g><circle r="2" id="sprotty_ArchitectureBlockImpl$rrv64_cell_clkgate/BPortImpl$clk_i_to_ArchitectureBlockImpl$rrv64_cell_clkgate/AlwaysBlockImpl$null4/GPortImpl$clk_iIN/junction0" transform="translate(148.5, 36)" class="sprotty-junction junction" style="fill:rgb(112, 112, 112);stroke:none;"/></g><g id="sprotty_ArchitectureBlockImpl$rrv64_cell_clkgate/AssignmentBlockImpl$clk_en/GPortImpl$clk_enOUT_to_ArchitectureBlockImpl$rrv64_cell_clkgate/AlwaysBlockImpl$null4/GPortImpl$clk_enIN" class="sprotty-edge edge" style="fill:none;stroke:rgb(112, 112, 112);stroke-linejoin:round;"><g><path d="M 138.5 99 L 158.5 99 "/><path d="M 138.5 99 L 158.5 99 " class="clickable"/></g></g><g id="sprotty_ArchitectureBlockImpl$rrv64_cell_clkgate/AlwaysBlockImpl$null4/GPortImpl$clk_en_regOUT_to_ArchitectureBlockImpl$rrv64_cell_clkgate/AssignmentBlockImpl$clk_gated_o/GPortImpl$clk_en_regIN" class="sprotty-edge edge" style="fill:none;stroke:rgb(112, 112, 112);stroke-linejoin:round;"><g><path d="M 197.21875 94 L 217.21875 94 "/><path d="M 197.21875 94 L 217.21875 94 " class="clickable"/></g></g><g id="sprotty_ArchitectureBlockImpl$rrv64_cell_clkgate/AlwaysBlockImpl$null4" class="statement" transform="translate(158.5, 79)"><rect x="0" y="0" rx="10" ry="5" width="38.71875" height="30" class="sprotty-node" style="fill:rgb(245, 245, 245);stroke:rgb(112, 112, 112);"/><text class="clickable sprotty-label statementtype" id="sprotty_ArchitectureBlockImpl$rrv64_cell_clkgate/AlwaysBlockImpl$null4/labeltype" transform="translate(5, 8.9921875) translate(14.34375, 9.34375)" style="cursor:default;font-size:8px;font-weight:700;perspective-origin:0.0104167px 0px;fill:rgb(112, 112, 112);text-anchor:middle;">always</text><g id="sprotty_ArchitectureBlockImpl$rrv64_cell_clkgate/AlwaysBlockImpl$null4/GPortImpl$clk_enIN" class="sprotty-hidden hidden" transform="translate(0, 20)" style="display:block;height:0px;width:0px;"/><g id="sprotty_ArchitectureBlockImpl$rrv64_cell_clkgate/AlwaysBlockImpl$null4/GPortImpl$clk_iIN" class="sprotty-hidden hidden" transform="translate(0, 10)" style="display:block;height:0px;width:0px;"/><g id="sprotty_ArchitectureBlockImpl$rrv64_cell_clkgate/AlwaysBlockImpl$null4/GPortImpl$clk_en_regOUT" class="sprotty-hidden hidden" transform="translate(38.71875, 15)" style="display:block;height:0px;width:0px;"/></g><g id="sprotty_ArchitectureBlockImpl$rrv64_cell_clkgate/AssignmentBlockImpl$clk_gated_o" class="statement" transform="translate(217.21875, 74)"><rect x="0" y="0" rx="10" ry="5" width="20.734375" height="30" class="sprotty-node" style="fill:rgb(245, 245, 245);stroke:rgb(112, 112, 112);"/><text class="clickable sprotty-label statementtype" id="sprotty_ArchitectureBlockImpl$rrv64_cell_clkgate/AssignmentBlockImpl$clk_gated_o/labeltype" transform="translate(5, 8.9921875) translate(5.390625, 9.34375)" style="cursor:default;font-size:8px;font-weight:700;perspective-origin:-0.0104167px 0px;fill:rgb(112, 112, 112);text-anchor:middle;">&lt;=</text><g id="sprotty_ArchitectureBlockImpl$rrv64_cell_clkgate/AssignmentBlockImpl$clk_gated_o/GPortImpl$clk_en_regIN" class="sprotty-hidden hidden" transform="translate(0, 20)" style="display:block;height:0px;width:0px;"/><g id="sprotty_ArchitectureBlockImpl$rrv64_cell_clkgate/AssignmentBlockImpl$clk_gated_o/GPortImpl$clk_iIN" class="sprotty-hidden hidden" transform="translate(0, 10)" style="display:block;height:0px;width:0px;"/><g id="sprotty_ArchitectureBlockImpl$rrv64_cell_clkgate/AssignmentBlockImpl$clk_gated_o/GPortImpl$clk_gated_oOUT" class="sprotty-hidden hidden" transform="translate(20.734375, 15)" style="display:block;height:0px;width:0px;"/></g><g id="sprotty_ArchitectureBlockImpl$rrv64_cell_clkgate/AssignmentBlockImpl$clk_en" class="statement" transform="translate(117.765625, 84)"><rect x="0" y="0" rx="10" ry="5" width="20.734375" height="30" class="sprotty-node" style="fill:rgb(245, 245, 245);stroke:rgb(112, 112, 112);"/><text class="clickable sprotty-label statementtype" id="sprotty_ArchitectureBlockImpl$rrv64_cell_clkgate/AssignmentBlockImpl$clk_en/labeltype" transform="translate(5, 8.9921875) translate(5.390625, 9.34375)" style="cursor:default;font-size:8px;font-weight:700;perspective-origin:-0.0104167px 0px;fill:rgb(112, 112, 112);text-anchor:middle;">&lt;=</text><g id="sprotty_ArchitectureBlockImpl$rrv64_cell_clkgate/AssignmentBlockImpl$clk_en/GPortImpl$clk_senable_iIN" class="sprotty-hidden hidden" transform="translate(0, 20)" style="display:block;height:0px;width:0px;"/><g id="sprotty_ArchitectureBlockImpl$rrv64_cell_clkgate/AssignmentBlockImpl$clk_en/GPortImpl$clk_enable_iIN" class="sprotty-hidden hidden" transform="translate(0, 10)" style="display:block;height:0px;width:0px;"/><g id="sprotty_ArchitectureBlockImpl$rrv64_cell_clkgate/AssignmentBlockImpl$clk_en/GPortImpl$clk_enOUT" class="sprotty-hidden hidden" transform="translate(20.734375, 15)" style="display:block;height:0px;width:0px;"/></g><g id="sprotty_ArchitectureBlockImpl$rrv64_cell_clkgate/BPortImpl$clk_senable_i" class="triangle" transform="translate(0, 104)"><path d="M 0,0 L 5,2.5 L 0,5 Z" transform="translate(-1.67, -2.5)" class="sprotty-port" style="fill:rgb(48, 48, 48);stroke:rgb(48, 48, 48);"/><text class="clickable sprotty-label port" id="sprotty_ArchitectureBlockImpl$rrv64_cell_clkgate/BPortImpl$clk_senable_i/label" transform="translate(6, 6) translate(38.359375, 14)" style="cursor:default;font-size:12px;perspective-origin:0.0104167px 0px;fill:rgb(48, 48, 48);text-anchor:middle;">clk_senable_i</text></g><g id="sprotty_ArchitectureBlockImpl$rrv64_cell_clkgate/BPortImpl$clk_enable_i" class="triangle" transform="translate(0, 70)"><path d="M 0,0 L 5,2.5 L 0,5 Z" transform="translate(-1.67, -2.5)" class="sprotty-port" style="fill:rgb(48, 48, 48);stroke:rgb(48, 48, 48);"/><text class="clickable sprotty-label port" id="sprotty_ArchitectureBlockImpl$rrv64_cell_clkgate/BPortImpl$clk_enable_i/label" transform="translate(6, 6) translate(35.5625, 14)" style="cursor:default;font-size:12px;perspective-origin:0.0104167px 0px;fill:rgb(48, 48, 48);text-anchor:middle;">clk_enable_i</text></g><g id="sprotty_ArchitectureBlockImpl$rrv64_cell_clkgate/BPortImpl$clk_i" class="triangle" transform="translate(0, 36)"><path d="M 0,0 L 5,2.5 L 0,5 Z" transform="translate(-1.67, -2.5)" class="sprotty-port" style="fill:rgb(48, 48, 48);stroke:rgb(48, 48, 48);"/><text class="clickable sprotty-label port" id="sprotty_ArchitectureBlockImpl$rrv64_cell_clkgate/BPortImpl$clk_i/label" transform="translate(6, 6) translate(13.09375, 14)" style="cursor:default;font-size:12px;perspective-origin:0.0104167px 0px;fill:rgb(48, 48, 48);text-anchor:middle;">clk_i</text></g><g id="sprotty_ArchitectureBlockImpl$rrv64_cell_clkgate/BPortImpl$clk_gated_o" class="triangle" transform="translate(327.421875, 89)"><path d="M 0,0 L 5,2.5 L 0,5 Z" transform="translate(-1.67, -2.5)" class="sprotty-port" style="fill:rgb(48, 48, 48);stroke:rgb(48, 48, 48);"/><text class="clickable sprotty-label port" id="sprotty_ArchitectureBlockImpl$rrv64_cell_clkgate/BPortImpl$clk_gated_o/label" transform="translate(-74.46875, 6) translate(34.203125, 14)" style="cursor:default;font-size:12px;perspective-origin:0.0208333px 0px;fill:rgb(48, 48, 48);text-anchor:middle;">clk_gated_o</text></g></g></g></svg>