<svg xmlns="http://www.w3.org/2000/svg" id="sprotty_work.rvh_l1d_plru" class="sprotty-graph sprotty-block-diagram blockdiagram" style="font-family:&quot;Noto Sans&quot;, Helvetica, Arial, sans-serif;-webkit-locale:&quot;en&quot;;perspective-origin:0px 0px;transform-origin:0px 0px;" version="1.1" viewBox="7 7 998.984375 365" width="998.984375" height="365"><g transform="scale(1) translate(0,0)"><g id="sprotty_ArchitectureBlockImpl$rvh_l1d_plru" class="architecture" transform="translate(12, 12)"><g class="sprotty-block" style="fill:rgb(255, 255, 255);stroke:rgb(48, 48, 48);stroke-dasharray:0px;"><rect x="0" y="0" rx="1" ry="1" width="988.984375" height="355"/><text x="494.4921875" y="12" class="sprotty-block-name" style="cursor:pointer;font-weight:700;perspective-origin:329.656px 0px;fill:rgb(48, 48, 48);stroke:rgba(0, 0, 0, 0);dominant-baseline:middle;text-anchor:middle;">rvh_l1d_plru</text><line x1="0" y1="20" x2="988.984375" y2="20"/></g><g id="sprotty_ArchitectureBlockImpl$rvh_l1d_plru/InstantiationBlockImpl$U_LRU_GET_NEW_LINE/BPortImpl$repl_pos_to_ArchitectureBlockImpl$rvh_l1d_plru/BPortImpl$rd_dat_refill" class="sprotty-edge thick edge" style="fill:none;stroke:rgb(112, 112, 112);stroke-linejoin:round;stroke-width:3px;"><g><path d="M 854.6927083333333 255 L 988.984375 255 "/><path d="M 854.6927083333333 255 L 988.984375 255 " class="clickable"/></g></g><g id="sprotty_ArchitectureBlockImpl$rvh_l1d_plru/BPortImpl$upd_way_idx_hit_to_ArchitectureBlockImpl$rvh_l1d_plru/InstantiationBlockImpl$U_LRU_UPDATE_ON_HIT/BPortImpl$hit_pos" class="sprotty-edge thick edge" style="fill:none;stroke:rgb(112, 112, 112);stroke-linejoin:round;stroke-width:3px;"><g><path d="M 0 101 L 505.5 101 "/><path d="M 0 101 L 505.5 101 " class="clickable"/></g></g><g id="sprotty_ArchitectureBlockImpl$rvh_l1d_plru/BPortImpl$clk_to_ArchitectureBlockImpl$rvh_l1d_plru/GenerateStatementBlockImpl$GEN_LRU/GPortImpl$clk" class="sprotty-edge edge" style="fill:none;stroke:rgb(112, 112, 112);stroke-linejoin:round;"><g><path d="M 0 135 L 136.4375 135 C 137.4375 135 138.4375 136 138.4375 137 L 138.4375 169 C 138.4375 170 139.4375 171 140.4375 171 L 178.4375 171 "/><path d="M 0 135 L 136.4375 135 C 137.4375 135 138.4375 136 138.4375 137 L 138.4375 169 C 138.4375 170 139.4375 171 140.4375 171 L 178.4375 171 " class="clickable"/></g></g><g id="sprotty_ArchitectureBlockImpl$rvh_l1d_plru/BPortImpl$rstn_to_ArchitectureBlockImpl$rvh_l1d_plru/GenerateStatementBlockImpl$GEN_LRU/GPortImpl$rstn" class="sprotty-edge edge" style="fill:none;stroke:rgb(112, 112, 112);stroke-linejoin:round;"><g><path d="M 0 169 L 126.4375 169 C 127.4375 169 128.4375 170 128.4375 171 L 128.4375 179 C 128.4375 180 129.4375 181 130.4375 181 L 178.4375 181 "/><path d="M 0 169 L 126.4375 169 C 127.4375 169 128.4375 170 128.4375 171 L 128.4375 179 C 128.4375 180 129.4375 181 130.4375 181 L 178.4375 181 " class="clickable"/></g></g><g id="sprotty_ArchitectureBlockImpl$rvh_l1d_plru/BPortImpl$upd_en_hit_to_ArchitectureBlockImpl$rvh_l1d_plru/GenerateStatementBlockImpl$GEN_LRU/GPortImpl$upd_en_hit" class="sprotty-edge edge" style="fill:none;stroke:rgb(112, 112, 112);stroke-linejoin:round;"><g><path d="M 0 305 L 146.4375 305 C 147.4375 305 148.4375 304 148.4375 303 L 148.4375 235 C 148.4375 234 149.4375 233 150.4375 233 L 178.4375 233 "/><path d="M 0 305 L 146.4375 305 C 147.4375 305 148.4375 304 148.4375 303 L 148.4375 235 C 148.4375 234 149.4375 233 150.4375 233 L 178.4375 233 " class="clickable"/></g></g><g id="sprotty_ArchitectureBlockImpl$rvh_l1d_plru/BPortImpl$upd_set_idx_hit_to_ArchitectureBlockImpl$rvh_l1d_plru/GenerateStatementBlockImpl$GEN_LRU/GPortImpl$upd_set_idx_hit" class="sprotty-edge thick edge" style="fill:none;stroke:rgb(112, 112, 112);stroke-linejoin:round;stroke-width:3px;"><g><path d="M 0 271 L 136.4375 271 C 137.4375 271 138.4375 270 138.4375 269 L 138.4375 225 C 138.4375 224 139.4375 223 140.4375 223 L 178.4375 223 "/><path d="M 0 271 L 136.4375 271 C 137.4375 271 138.4375 270 138.4375 269 L 138.4375 225 C 138.4375 224 139.4375 223 140.4375 223 L 178.4375 223 " class="clickable"/></g></g><g id="sprotty_ArchitectureBlockImpl$rvh_l1d_plru/BPortImpl$rd_en_refill_to_ArchitectureBlockImpl$rvh_l1d_plru/GenerateStatementBlockImpl$GEN_LRU/GPortImpl$rd_en_refill" class="sprotty-edge edge" style="fill:none;stroke:rgb(112, 112, 112);stroke-linejoin:round;"><g><path d="M 0 237 L 126.4375 237 C 127.4375 237 128.4375 236 128.4375 235 L 128.4375 215 C 128.4375 214 129.4375 213 130.4375 213 L 178.4375 213 "/><path d="M 0 237 L 126.4375 237 C 127.4375 237 128.4375 236 128.4375 235 L 128.4375 215 C 128.4375 214 129.4375 213 130.4375 213 L 178.4375 213 " class="clickable"/></g></g><g id="sprotty_ArchitectureBlockImpl$rvh_l1d_plru/BPortImpl$rd_idx_refill_to_ArchitectureBlockImpl$rvh_l1d_plru/GenerateStatementBlockImpl$GEN_LRU/GPortImpl$rd_idx_refill" class="sprotty-edge thick edge" style="fill:none;stroke:rgb(112, 112, 112);stroke-linejoin:round;stroke-width:3px;"><g><path d="M 0 203 L 178.4375 203 "/><path d="M 0 203 L 178.4375 203 " class="clickable"/></g></g><g id="sprotty_ArchitectureBlockImpl$rvh_l1d_plru/GenerateStatementBlockImpl$GEN_LRU/GPortImpl$lru_sta_to_ArchitectureBlockImpl$rvh_l1d_plru/AssignmentBlockImpl$lru_sta_old_hit/GPortImpl$lru_staIN" class="sprotty-edge thick edge" style="fill:none;stroke:rgb(112, 112, 112);stroke-linejoin:round;stroke-width:3px;"><g><path d="M 444.765625 241 L 452.765625 241 C 453.765625 241 454.765625 240 454.765625 239 L 454.765625 75 C 454.765625 74 455.765625 73 456.765625 73 L 464.765625 73 "/><path d="M 444.765625 241 L 452.765625 241 C 453.765625 241 454.765625 240 454.765625 239 L 454.765625 75 C 454.765625 74 455.765625 73 456.765625 73 L 464.765625 73 " class="clickable"/></g><circle r="3" id="sprotty_ArchitectureBlockImpl$rvh_l1d_plru/GenerateStatementBlockImpl$GEN_LRU/GPortImpl$lru_sta_to_ArchitectureBlockImpl$rvh_l1d_plru/AssignmentBlockImpl$lru_sta_old_hit/GPortImpl$lru_staIN/junction0" transform="translate(454.765625, 241)" class="sprotty-junction thick" style="fill:rgb(112, 112, 112);stroke:none;"/></g><g id="sprotty_ArchitectureBlockImpl$rvh_l1d_plru/GenerateStatementBlockImpl$GEN_LRU/GPortImpl$lru_sta_to_ArchitectureBlockImpl$rvh_l1d_plru/AssignmentBlockImpl$lru_sta_old_refill/GPortImpl$lru_staIN" class="sprotty-edge thick edge" style="fill:none;stroke:rgb(112, 112, 112);stroke-linejoin:round;stroke-width:3px;"><g><path d="M 444.765625 241 L 464.765625 241 "/><path d="M 444.765625 241 L 464.765625 241 " class="clickable"/></g></g><g id="sprotty_ArchitectureBlockImpl$rvh_l1d_plru/AssignmentBlockImpl$lru_sta_old_hit/GPortImpl$lru_staOUT_to_ArchitectureBlockImpl$rvh_l1d_plru/InstantiationBlockImpl$U_LRU_UPDATE_ON_HIT/BPortImpl$old_lru" class="sprotty-edge thick edge" style="fill:none;stroke:rgb(112, 112, 112);stroke-linejoin:round;stroke-width:3px;"><g><path d="M 485.5 73 L 505.5 73 "/><path d="M 485.5 73 L 505.5 73 " class="clickable"/></g></g><g id="sprotty_ArchitectureBlockImpl$rvh_l1d_plru/AssignmentBlockImpl$lru_sta_old_refill/GPortImpl$lru_staOUT_to_ArchitectureBlockImpl$rvh_l1d_plru/InstantiationBlockImpl$U_LRU_GET_NEW_LINE/BPortImpl$old_lru" class="sprotty-edge thick edge" style="fill:none;stroke:rgb(112, 112, 112);stroke-linejoin:round;stroke-width:3px;"><g><path d="M 485.5 241 L 512.4427083333333 241 "/><path d="M 485.5 241 L 512.4427083333333 241 " class="clickable"/></g></g><g id="sprotty_ArchitectureBlockImpl$rvh_l1d_plru/InstantiationBlockImpl$U_LRU_UPDATE_ON_HIT/BPortImpl$new_lru_to_ArchitectureBlockImpl$rvh_l1d_plru/GenerateStatementBlockImpl$GEN_LRU/GPortImpl$lru_sta_nxt_hit" class="sprotty-edge thick edge" style="fill:none;stroke:rgb(112, 112, 112);stroke-linejoin:round;stroke-width:3px;"><g><path d="M 868.578125 87 L 886.578125 87 C 887.578125 87 888.578125 88 888.578125 89 L 888.578125 336 C 888.578125 337 887.578125 338 886.578125 338 L 160.4375 338 C 159.4375 338 158.4375 337 158.4375 336 L 158.4375 285 C 158.4375 284 159.4375 283 160.4375 283 L 178.4375 283 "/><path d="M 868.578125 87 L 886.578125 87 C 887.578125 87 888.578125 88 888.578125 89 L 888.578125 336 C 888.578125 337 887.578125 338 886.578125 338 L 160.4375 338 C 159.4375 338 158.4375 337 158.4375 336 L 158.4375 285 C 158.4375 284 159.4375 283 160.4375 283 L 178.4375 283 " class="clickable"/></g></g><g id="sprotty_ArchitectureBlockImpl$rvh_l1d_plru/InstantiationBlockImpl$U_LRU_GET_NEW_LINE/BPortImpl$new_lru_to_ArchitectureBlockImpl$rvh_l1d_plru/GenerateStatementBlockImpl$GEN_LRU/GPortImpl$lru_sta_nxt_refill" class="sprotty-edge thick edge" style="fill:none;stroke:rgb(112, 112, 112);stroke-linejoin:round;stroke-width:3px;"><g><path d="M 854.6927083333333 227 L 876.578125 227 C 877.578125 227 878.578125 228 878.578125 229 L 878.578125 326 C 878.578125 327 877.578125 328 876.578125 328 L 170.4375 328 C 169.4375 328 168.4375 327 168.4375 326 L 168.4375 295 C 168.4375 294 169.4375 293 170.4375 293 L 178.4375 293 "/><path d="M 854.6927083333333 227 L 876.578125 227 C 877.578125 227 878.578125 228 878.578125 229 L 878.578125 326 C 878.578125 327 877.578125 328 876.578125 328 L 170.4375 328 C 169.4375 328 168.4375 327 168.4375 326 L 168.4375 295 C 168.4375 294 169.4375 293 170.4375 293 L 178.4375 293 " class="clickable"/></g></g><g id="sprotty_ArchitectureBlockImpl$rvh_l1d_plru/GenerateStatementBlockImpl$GEN_LRU" class="generate" transform="translate(178.4375, 126)"><g class="sprotty-block sprotty-block-generate" style="fill:rgb(255, 255, 255);stroke:rgb(48, 48, 48);stroke-dasharray:0px;"><rect x="0" y="0" rx="1" ry="1" width="266.328125" height="192" style="stroke-dasharray:3px, 1px;"/><text x="133.1640625" y="12" class="sprotty-block-name" style="cursor:pointer;font-weight:700;perspective-origin:88.7708px 0px;fill:rgb(48, 48, 48);stroke:rgba(0, 0, 0, 0);dominant-baseline:middle;text-anchor:middle;">GEN_LRU</text><line x1="0" y1="20" x2="266.328125" y2="20" style="stroke-dasharray:3px, 1px;"/></g><g id="sprotty_ArchitectureBlockImpl$rvh_l1d_plru/GenerateStatementBlockImpl$GEN_LRU/GPortImpl$clk_to_ArchitectureBlockImpl$rvh_l1d_plru/GenerateStatementBlockImpl$GEN_LRU/InstantiationBlockImpl$U_PLRU/BPortImpl$clk" class="sprotty-edge edge" style="fill:none;stroke:rgb(112, 112, 112);stroke-linejoin:round;"><g><path d="M 0 45 L 83.734375 45 C 84.734375 45 85.734375 46 85.734375 47 L 85.734375 71 C 85.734375 72 86.734375 73 87.734375 73 L 95.734375 73 "/><path d="M 0 45 L 83.734375 45 C 84.734375 45 85.734375 46 85.734375 47 L 85.734375 71 C 85.734375 72 86.734375 73 87.734375 73 L 95.734375 73 " class="clickable"/></g></g><g id="sprotty_ArchitectureBlockImpl$rvh_l1d_plru/GenerateStatementBlockImpl$GEN_LRU/GPortImpl$rstn_to_ArchitectureBlockImpl$rvh_l1d_plru/GenerateStatementBlockImpl$GEN_LRU/InstantiationBlockImpl$U_PLRU/BPortImpl$rstn" class="sprotty-edge edge" style="fill:none;stroke:rgb(112, 112, 112);stroke-linejoin:round;"><g><path d="M 0 55 L 73.734375 55 C 74.734375 55 75.734375 56 75.734375 57 L 75.734375 99 C 75.734375 100 76.734375 101 77.734375 101 L 95.734375 101 "/><path d="M 0 55 L 73.734375 55 C 74.734375 55 75.734375 56 75.734375 57 L 75.734375 99 C 75.734375 100 76.734375 101 77.734375 101 L 95.734375 101 " class="clickable"/></g></g><g id="sprotty_ArchitectureBlockImpl$rvh_l1d_plru/GenerateStatementBlockImpl$GEN_LRU/GPortImpl$upd_en_hit_to_ArchitectureBlockImpl$rvh_l1d_plru/GenerateStatementBlockImpl$GEN_LRU/AssignmentBlockImpl$lru_sta_nxt/GPortImpl$upd_en_hitIN" class="sprotty-edge edge" style="fill:none;stroke:rgb(112, 112, 112);stroke-linejoin:round;"><g><path d="M 0 107 L 23 107 C 24 107 25 108 25 109 L 25 145 C 25 146 26 147 27 147 L 35 147 "/><path d="M 0 107 L 23 107 C 24 107 25 108 25 109 L 25 145 C 25 146 26 147 27 147 L 35 147 " class="clickable"/></g><circle r="2" id="sprotty_ArchitectureBlockImpl$rvh_l1d_plru/GenerateStatementBlockImpl$GEN_LRU/GPortImpl$upd_en_hit_to_ArchitectureBlockImpl$rvh_l1d_plru/GenerateStatementBlockImpl$GEN_LRU/AssignmentBlockImpl$lru_sta_nxt/GPortImpl$upd_en_hitIN/junction0" transform="translate(25, 107)" class="sprotty-junction junction" style="fill:rgb(112, 112, 112);stroke:none;"/></g><g id="sprotty_ArchitectureBlockImpl$rvh_l1d_plru/GenerateStatementBlockImpl$GEN_LRU/GPortImpl$upd_en_hit_to_ArchitectureBlockImpl$rvh_l1d_plru/GenerateStatementBlockImpl$GEN_LRU/AssignmentBlockImpl$lru_sta_ena/GPortImpl$upd_en_hitIN" class="sprotty-edge edge" style="fill:none;stroke:rgb(112, 112, 112);stroke-linejoin:round;"><g><path d="M 0 107 L 35 107 "/><path d="M 0 107 L 35 107 " class="clickable"/></g></g><g id="sprotty_ArchitectureBlockImpl$rvh_l1d_plru/GenerateStatementBlockImpl$GEN_LRU/GPortImpl$upd_set_idx_hit_to_ArchitectureBlockImpl$rvh_l1d_plru/GenerateStatementBlockImpl$GEN_LRU/AssignmentBlockImpl$lru_sta_ena/GPortImpl$upd_set_idx_hitIN" class="sprotty-edge thick edge" style="fill:none;stroke:rgb(112, 112, 112);stroke-linejoin:round;stroke-width:3px;"><g><path d="M 0 97 L 35 97 "/><path d="M 0 97 L 35 97 " class="clickable"/></g></g><g id="sprotty_ArchitectureBlockImpl$rvh_l1d_plru/GenerateStatementBlockImpl$GEN_LRU/GPortImpl$rd_en_refill_to_ArchitectureBlockImpl$rvh_l1d_plru/GenerateStatementBlockImpl$GEN_LRU/AssignmentBlockImpl$lru_sta_ena/GPortImpl$rd_en_refillIN" class="sprotty-edge edge" style="fill:none;stroke:rgb(112, 112, 112);stroke-linejoin:round;"><g><path d="M 0 87 L 35 87 "/><path d="M 0 87 L 35 87 " class="clickable"/></g></g><g id="sprotty_ArchitectureBlockImpl$rvh_l1d_plru/GenerateStatementBlockImpl$GEN_LRU/GPortImpl$rd_idx_refill_to_ArchitectureBlockImpl$rvh_l1d_plru/GenerateStatementBlockImpl$GEN_LRU/AssignmentBlockImpl$lru_sta_ena/GPortImpl$rd_idx_refillIN" class="sprotty-edge thick edge" style="fill:none;stroke:rgb(112, 112, 112);stroke-linejoin:round;stroke-width:3px;"><g><path d="M 0 77 L 35 77 "/><path d="M 0 77 L 35 77 " class="clickable"/></g></g><g id="sprotty_ArchitectureBlockImpl$rvh_l1d_plru/GenerateStatementBlockImpl$GEN_LRU/InstantiationBlockImpl$U_PLRU/BPortImpl$q_to_ArchitectureBlockImpl$rvh_l1d_plru/GenerateStatementBlockImpl$GEN_LRU/GPortImpl$lru_sta" class="sprotty-edge thick edge" style="fill:none;stroke:rgb(112, 112, 112);stroke-linejoin:round;stroke-width:3px;"><g><path d="M 251.328125 115 L 266.328125 115 "/><path d="M 251.328125 115 L 266.328125 115 " class="clickable"/></g></g><g id="sprotty_ArchitectureBlockImpl$rvh_l1d_plru/GenerateStatementBlockImpl$GEN_LRU/GPortImpl$lru_sta_nxt_hit_to_ArchitectureBlockImpl$rvh_l1d_plru/GenerateStatementBlockImpl$GEN_LRU/AssignmentBlockImpl$lru_sta_nxt/GPortImpl$lru_sta_nxt_hitIN" class="sprotty-edge thick edge" style="fill:none;stroke:rgb(112, 112, 112);stroke-linejoin:round;stroke-width:3px;"><g><path d="M 0 157 L 35 157 "/><path d="M 0 157 L 35 157 " class="clickable"/></g></g><g id="sprotty_ArchitectureBlockImpl$rvh_l1d_plru/GenerateStatementBlockImpl$GEN_LRU/GPortImpl$lru_sta_nxt_refill_to_ArchitectureBlockImpl$rvh_l1d_plru/GenerateStatementBlockImpl$GEN_LRU/AssignmentBlockImpl$lru_sta_nxt/GPortImpl$lru_sta_nxt_refillIN" class="sprotty-edge thick edge" style="fill:none;stroke:rgb(112, 112, 112);stroke-linejoin:round;stroke-width:3px;"><g><path d="M 0 167 L 35 167 "/><path d="M 0 167 L 35 167 " class="clickable"/></g></g><g id="sprotty_ArchitectureBlockImpl$rvh_l1d_plru/GenerateStatementBlockImpl$GEN_LRU/AssignmentBlockImpl$lru_sta_nxt/GPortImpl$lru_sta_nxt_refillOUT_to_ArchitectureBlockImpl$rvh_l1d_plru/GenerateStatementBlockImpl$GEN_LRU/InstantiationBlockImpl$U_PLRU/BPortImpl$d" class="sprotty-edge thick edge" style="fill:none;stroke:rgb(112, 112, 112);stroke-linejoin:round;stroke-width:3px;"><g><path d="M 55.734375 157 L 95.734375 157 "/><path d="M 55.734375 157 L 95.734375 157 " class="clickable"/></g></g><g id="sprotty_ArchitectureBlockImpl$rvh_l1d_plru/GenerateStatementBlockImpl$GEN_LRU/AssignmentBlockImpl$lru_sta_ena/GPortImpl$lru_sta_enaOUT_to_ArchitectureBlockImpl$rvh_l1d_plru/GenerateStatementBlockImpl$GEN_LRU/InstantiationBlockImpl$U_PLRU/BPortImpl$en" class="sprotty-edge thick edge" style="fill:none;stroke:rgb(112, 112, 112);stroke-linejoin:round;stroke-width:3px;"><g><path d="M 55.734375 92 L 63.734375 92 C 64.734375 92 65.734375 93 65.734375 94 L 65.734375 127 C 65.734375 128 66.734375 129 67.734375 129 L 95.734375 129 "/><path d="M 55.734375 92 L 63.734375 92 C 64.734375 92 65.734375 93 65.734375 94 L 65.734375 127 C 65.734375 128 66.734375 129 67.734375 129 L 95.734375 129 " class="clickable"/></g></g><g id="sprotty_ArchitectureBlockImpl$rvh_l1d_plru/GenerateStatementBlockImpl$GEN_LRU/AssignmentBlockImpl$lru_sta_ena" class="statement" transform="translate(35, 67)"><rect x="0" y="0" rx="10" ry="5" width="20.734375" height="50" class="sprotty-node" style="fill:rgb(245, 245, 245);stroke:rgb(112, 112, 112);"/><text class="clickable sprotty-label statementtype" id="sprotty_ArchitectureBlockImpl$rvh_l1d_plru/GenerateStatementBlockImpl$GEN_LRU/AssignmentBlockImpl$lru_sta_ena/labeltype" transform="translate(5, 18.9921875) translate(5.390625, 9.34375)" style="cursor:default;font-size:8px;font-weight:700;perspective-origin:-0.0104167px 0px;fill:rgb(112, 112, 112);text-anchor:middle;">&lt;=</text><g id="sprotty_ArchitectureBlockImpl$rvh_l1d_plru/GenerateStatementBlockImpl$GEN_LRU/AssignmentBlockImpl$lru_sta_ena/GPortImpl$rd_idx_refillIN" class="sprotty-hidden hidden" transform="translate(0, 10)" style="display:block;height:0px;width:0px;"/><g id="sprotty_ArchitectureBlockImpl$rvh_l1d_plru/GenerateStatementBlockImpl$GEN_LRU/AssignmentBlockImpl$lru_sta_ena/GPortImpl$rd_en_refillIN" class="sprotty-hidden hidden" transform="translate(0, 20)" style="display:block;height:0px;width:0px;"/><g id="sprotty_ArchitectureBlockImpl$rvh_l1d_plru/GenerateStatementBlockImpl$GEN_LRU/AssignmentBlockImpl$lru_sta_ena/GPortImpl$upd_set_idx_hitIN" class="sprotty-hidden hidden" transform="translate(0, 30)" style="display:block;height:0px;width:0px;"/><g id="sprotty_ArchitectureBlockImpl$rvh_l1d_plru/GenerateStatementBlockImpl$GEN_LRU/AssignmentBlockImpl$lru_sta_ena/GPortImpl$upd_en_hitIN" class="sprotty-hidden hidden" transform="translate(0, 40)" style="display:block;height:0px;width:0px;"/><g id="sprotty_ArchitectureBlockImpl$rvh_l1d_plru/GenerateStatementBlockImpl$GEN_LRU/AssignmentBlockImpl$lru_sta_ena/GPortImpl$lru_sta_enaOUT" class="sprotty-hidden hidden" transform="translate(20.734375, 25)" style="display:block;height:0px;width:0px;"/></g><g id="sprotty_ArchitectureBlockImpl$rvh_l1d_plru/GenerateStatementBlockImpl$GEN_LRU/AssignmentBlockImpl$lru_sta_nxt" class="statement" transform="translate(35, 137)"><rect x="0" y="0" rx="10" ry="5" width="20.734375" height="40" class="sprotty-node" style="fill:rgb(245, 245, 245);stroke:rgb(112, 112, 112);"/><text class="clickable sprotty-label statementtype" id="sprotty_ArchitectureBlockImpl$rvh_l1d_plru/GenerateStatementBlockImpl$GEN_LRU/AssignmentBlockImpl$lru_sta_nxt/labeltype" transform="translate(5, 13.9921875) translate(5.390625, 9.34375)" style="cursor:default;font-size:8px;font-weight:700;perspective-origin:-0.0104167px 0px;fill:rgb(112, 112, 112);text-anchor:middle;">&lt;=</text><g id="sprotty_ArchitectureBlockImpl$rvh_l1d_plru/GenerateStatementBlockImpl$GEN_LRU/AssignmentBlockImpl$lru_sta_nxt/GPortImpl$lru_sta_nxt_refillIN" class="sprotty-hidden hidden" transform="translate(0, 30)" style="display:block;height:0px;width:0px;"/><g id="sprotty_ArchitectureBlockImpl$rvh_l1d_plru/GenerateStatementBlockImpl$GEN_LRU/AssignmentBlockImpl$lru_sta_nxt/GPortImpl$lru_sta_nxt_hitIN" class="sprotty-hidden hidden" transform="translate(0, 20)" style="display:block;height:0px;width:0px;"/><g id="sprotty_ArchitectureBlockImpl$rvh_l1d_plru/GenerateStatementBlockImpl$GEN_LRU/AssignmentBlockImpl$lru_sta_nxt/GPortImpl$upd_en_hitIN" class="sprotty-hidden hidden" transform="translate(0, 10)" style="display:block;height:0px;width:0px;"/><g id="sprotty_ArchitectureBlockImpl$rvh_l1d_plru/GenerateStatementBlockImpl$GEN_LRU/AssignmentBlockImpl$lru_sta_nxt/GPortImpl$lru_sta_nxt_refillOUT" class="sprotty-hidden hidden" transform="translate(20.734375, 20)" style="display:block;height:0px;width:0px;"/></g><g id="sprotty_ArchitectureBlockImpl$rvh_l1d_plru/GenerateStatementBlockImpl$GEN_LRU/InstantiationBlockImpl$U_PLRU" class="instantiation" transform="translate(95.734375, 35)"><g class="sprotty-block" style="fill:rgb(255, 255, 255);stroke:rgb(48, 48, 48);stroke-dasharray:0px;"><rect x="0" y="0" rx="1" ry="1" width="155.59375" height="140"/><text x="77.796875" y="12" class="sprotty-block-name" style="cursor:pointer;font-weight:700;perspective-origin:51.875px 0px;fill:rgb(48, 48, 48);stroke:rgba(0, 0, 0, 0);dominant-baseline:middle;text-anchor:middle;">U_PLRU : std_dffre</text><line x1="0" y1="20" x2="155.59375" y2="20"/></g><g id="sprotty_ArchitectureBlockImpl$rvh_l1d_plru/GenerateStatementBlockImpl$GEN_LRU/InstantiationBlockImpl$U_PLRU/BPortImpl$d" class="triangle" transform="translate(0, 122)"><path d="M 0,0 L 5,2.5 L 0,5 Z" transform="translate(-1.67, -2.5)" class="sprotty-port" style="fill:rgb(48, 48, 48);stroke:rgb(48, 48, 48);"/><text class="clickable sprotty-label port" id="sprotty_ArchitectureBlockImpl$rvh_l1d_plru/GenerateStatementBlockImpl$GEN_LRU/InstantiationBlockImpl$U_PLRU/BPortImpl$d/label" transform="translate(6, -9) translate(3.734375, 14)" style="cursor:default;font-size:12px;perspective-origin:0px 0px;fill:rgb(48, 48, 48);text-anchor:middle;">d</text></g><g id="sprotty_ArchitectureBlockImpl$rvh_l1d_plru/GenerateStatementBlockImpl$GEN_LRU/InstantiationBlockImpl$U_PLRU/BPortImpl$en" class="triangle" transform="translate(0, 94)"><path d="M 0,0 L 5,2.5 L 0,5 Z" transform="translate(-1.67, -2.5)" class="sprotty-port" style="fill:rgb(48, 48, 48);stroke:rgb(48, 48, 48);"/><text class="clickable sprotty-label port" id="sprotty_ArchitectureBlockImpl$rvh_l1d_plru/GenerateStatementBlockImpl$GEN_LRU/InstantiationBlockImpl$U_PLRU/BPortImpl$en/label" transform="translate(6, -9) translate(7, 14)" style="cursor:default;font-size:12px;perspective-origin:0px 0px;fill:rgb(48, 48, 48);text-anchor:middle;">en</text></g><g id="sprotty_ArchitectureBlockImpl$rvh_l1d_plru/GenerateStatementBlockImpl$GEN_LRU/InstantiationBlockImpl$U_PLRU/BPortImpl$rstn" class="triangle" transform="translate(0, 66)"><path d="M 0,0 L 5,2.5 L 0,5 Z" transform="translate(-1.67, -2.5)" class="sprotty-port" style="fill:rgb(48, 48, 48);stroke:rgb(48, 48, 48);"/><text class="clickable sprotty-label port" id="sprotty_ArchitectureBlockImpl$rvh_l1d_plru/GenerateStatementBlockImpl$GEN_LRU/InstantiationBlockImpl$U_PLRU/BPortImpl$rstn/label" transform="translate(6, -9) translate(10.921875, 14)" style="cursor:default;font-size:12px;perspective-origin:0px 0px;fill:rgb(48, 48, 48);text-anchor:middle;">rstn</text></g><g id="sprotty_ArchitectureBlockImpl$rvh_l1d_plru/GenerateStatementBlockImpl$GEN_LRU/InstantiationBlockImpl$U_PLRU/BPortImpl$clk" class="triangle" transform="translate(0, 38)"><path d="M 0,0 L 5,2.5 L 0,5 Z" transform="translate(-1.67, -2.5)" class="sprotty-port" style="fill:rgb(48, 48, 48);stroke:rgb(48, 48, 48);"/><text class="clickable sprotty-label port" id="sprotty_ArchitectureBlockImpl$rvh_l1d_plru/GenerateStatementBlockImpl$GEN_LRU/InstantiationBlockImpl$U_PLRU/BPortImpl$clk/label" transform="translate(6, -9) translate(8.078125, 14)" style="cursor:default;font-size:12px;perspective-origin:0.239583px 0px;fill:rgb(48, 48, 48);text-anchor:middle;">clk</text></g><g id="sprotty_ArchitectureBlockImpl$rvh_l1d_plru/GenerateStatementBlockImpl$GEN_LRU/InstantiationBlockImpl$U_PLRU/BPortImpl$q" class="triangle" transform="translate(155.59375, 80)"><path d="M 0,0 L 5,2.5 L 0,5 Z" transform="translate(-1.67, -2.5)" class="sprotty-port" style="fill:rgb(48, 48, 48);stroke:rgb(48, 48, 48);"/><text class="clickable sprotty-label port" id="sprotty_ArchitectureBlockImpl$rvh_l1d_plru/GenerateStatementBlockImpl$GEN_LRU/InstantiationBlockImpl$U_PLRU/BPortImpl$q/label" transform="translate(-13.46875, -9) translate(3.734375, 14)" style="cursor:default;font-size:12px;perspective-origin:0px 0px;fill:rgb(48, 48, 48);text-anchor:middle;">q</text></g></g><g id="sprotty_ArchitectureBlockImpl$rvh_l1d_plru/GenerateStatementBlockImpl$GEN_LRU/GPortImpl$lru_sta_nxt_refill" class="triangle" transform="translate(0, 167)"><path d="M 0,0 L 5,2.5 L 0,5 Z" transform="translate(-1.67, -2.5)" class="sprotty-port" style="fill:rgb(48, 48, 48);stroke:rgb(48, 48, 48);"/></g><g id="sprotty_ArchitectureBlockImpl$rvh_l1d_plru/GenerateStatementBlockImpl$GEN_LRU/GPortImpl$lru_sta_nxt_hit" class="triangle" transform="translate(0, 157)"><path d="M 0,0 L 5,2.5 L 0,5 Z" transform="translate(-1.67, -2.5)" class="sprotty-port" style="fill:rgb(48, 48, 48);stroke:rgb(48, 48, 48);"/></g><g id="sprotty_ArchitectureBlockImpl$rvh_l1d_plru/GenerateStatementBlockImpl$GEN_LRU/GPortImpl$rd_idx_refill" class="triangle" transform="translate(0, 77)"><path d="M 0,0 L 5,2.5 L 0,5 Z" transform="translate(-1.67, -2.5)" class="sprotty-port" style="fill:rgb(48, 48, 48);stroke:rgb(48, 48, 48);"/></g><g id="sprotty_ArchitectureBlockImpl$rvh_l1d_plru/GenerateStatementBlockImpl$GEN_LRU/GPortImpl$rd_en_refill" class="triangle" transform="translate(0, 87)"><path d="M 0,0 L 5,2.5 L 0,5 Z" transform="translate(-1.67, -2.5)" class="sprotty-port" style="fill:rgb(48, 48, 48);stroke:rgb(48, 48, 48);"/></g><g id="sprotty_ArchitectureBlockImpl$rvh_l1d_plru/GenerateStatementBlockImpl$GEN_LRU/GPortImpl$upd_set_idx_hit" class="triangle" transform="translate(0, 97)"><path d="M 0,0 L 5,2.5 L 0,5 Z" transform="translate(-1.67, -2.5)" class="sprotty-port" style="fill:rgb(48, 48, 48);stroke:rgb(48, 48, 48);"/></g><g id="sprotty_ArchitectureBlockImpl$rvh_l1d_plru/GenerateStatementBlockImpl$GEN_LRU/GPortImpl$upd_en_hit" class="triangle" transform="translate(0, 107)"><path d="M 0,0 L 5,2.5 L 0,5 Z" transform="translate(-1.67, -2.5)" class="sprotty-port" style="fill:rgb(48, 48, 48);stroke:rgb(48, 48, 48);"/></g><g id="sprotty_ArchitectureBlockImpl$rvh_l1d_plru/GenerateStatementBlockImpl$GEN_LRU/GPortImpl$rstn" class="triangle" transform="translate(0, 55)"><path d="M 0,0 L 5,2.5 L 0,5 Z" transform="translate(-1.67, -2.5)" class="sprotty-port" style="fill:rgb(48, 48, 48);stroke:rgb(48, 48, 48);"/></g><g id="sprotty_ArchitectureBlockImpl$rvh_l1d_plru/GenerateStatementBlockImpl$GEN_LRU/GPortImpl$clk" class="triangle" transform="translate(0, 45)"><path d="M 0,0 L 5,2.5 L 0,5 Z" transform="translate(-1.67, -2.5)" class="sprotty-port" style="fill:rgb(48, 48, 48);stroke:rgb(48, 48, 48);"/></g><g id="sprotty_ArchitectureBlockImpl$rvh_l1d_plru/GenerateStatementBlockImpl$GEN_LRU/GPortImpl$lru_sta" class="triangle" transform="translate(266.328125, 115)"><path d="M 0,0 L 5,2.5 L 0,5 Z" transform="translate(-1.67, -2.5)" class="sprotty-port" style="fill:rgb(48, 48, 48);stroke:rgb(48, 48, 48);"/></g></g><g id="sprotty_ArchitectureBlockImpl$rvh_l1d_plru/AssignmentBlockImpl$lru_sta_old_refill" class="statement" transform="translate(464.765625, 229.9921875)"><rect x="0" y="0" rx="10" ry="5" width="20.734375" height="22.015625" class="sprotty-node" style="fill:rgb(245, 245, 245);stroke:rgb(112, 112, 112);"/><text class="clickable sprotty-label statementtype" id="sprotty_ArchitectureBlockImpl$rvh_l1d_plru/AssignmentBlockImpl$lru_sta_old_refill/labeltype" transform="translate(5, 5) translate(5.390625, 9.34375)" style="cursor:default;font-size:8px;font-weight:700;perspective-origin:-0.0104167px 0px;fill:rgb(112, 112, 112);text-anchor:middle;">&lt;=</text><g id="sprotty_ArchitectureBlockImpl$rvh_l1d_plru/AssignmentBlockImpl$lru_sta_old_refill/GPortImpl$lru_staIN" class="sprotty-hidden hidden" transform="translate(0, 11.0078125)" style="display:block;height:0px;width:0px;"/><g id="sprotty_ArchitectureBlockImpl$rvh_l1d_plru/AssignmentBlockImpl$lru_sta_old_refill/GPortImpl$lru_staOUT" class="sprotty-hidden hidden" transform="translate(20.734375, 11.0078125)" style="display:block;height:0px;width:0px;"/></g><g id="sprotty_ArchitectureBlockImpl$rvh_l1d_plru/AssignmentBlockImpl$lru_sta_old_hit" class="statement" transform="translate(464.765625, 61.9921875)"><rect x="0" y="0" rx="10" ry="5" width="20.734375" height="22.015625" class="sprotty-node" style="fill:rgb(245, 245, 245);stroke:rgb(112, 112, 112);"/><text class="clickable sprotty-label statementtype" id="sprotty_ArchitectureBlockImpl$rvh_l1d_plru/AssignmentBlockImpl$lru_sta_old_hit/labeltype" transform="translate(5, 5) translate(5.390625, 9.34375)" style="cursor:default;font-size:8px;font-weight:700;perspective-origin:-0.0104167px 0px;fill:rgb(112, 112, 112);text-anchor:middle;">&lt;=</text><g id="sprotty_ArchitectureBlockImpl$rvh_l1d_plru/AssignmentBlockImpl$lru_sta_old_hit/GPortImpl$lru_staIN" class="sprotty-hidden hidden" transform="translate(0, 11.0078125)" style="display:block;height:0px;width:0px;"/><g id="sprotty_ArchitectureBlockImpl$rvh_l1d_plru/AssignmentBlockImpl$lru_sta_old_hit/GPortImpl$lru_staOUT" class="sprotty-hidden hidden" transform="translate(20.734375, 11.0078125)" style="display:block;height:0px;width:0px;"/></g><g id="sprotty_ArchitectureBlockImpl$rvh_l1d_plru/InstantiationBlockImpl$U_LRU_UPDATE_ON_HIT" class="instantiation" transform="translate(505.5, 35)"><g class="sprotty-block" style="fill:rgb(255, 255, 255);stroke:rgb(48, 48, 48);stroke-dasharray:0px;"><rect x="0" y="0" rx="1" ry="1" width="363.078125" height="84"/><text x="181.5390625" y="12" class="sprotty-block-name" style="cursor:pointer;font-weight:700;perspective-origin:121.229px 0px;fill:rgb(48, 48, 48);stroke:rgba(0, 0, 0, 0);dominant-baseline:middle;text-anchor:middle;">U_LRU_UPDATE_ON_HIT : lru_update_on_hit</text><line x1="0" y1="20" x2="363.078125" y2="20"/></g><g id="sprotty_ArchitectureBlockImpl$rvh_l1d_plru/InstantiationBlockImpl$U_LRU_UPDATE_ON_HIT/BPortImpl$hit_pos" class="triangle" transform="translate(0, 66)"><path d="M 0,0 L 5,2.5 L 0,5 Z" transform="translate(-1.67, -2.5)" class="sprotty-port" style="fill:rgb(48, 48, 48);stroke:rgb(48, 48, 48);"/><text class="clickable sprotty-label port" id="sprotty_ArchitectureBlockImpl$rvh_l1d_plru/InstantiationBlockImpl$U_LRU_UPDATE_ON_HIT/BPortImpl$hit_pos/label" transform="translate(6, -9) translate(21.078125, 14)" style="cursor:default;font-size:12px;perspective-origin:0.125px 0px;fill:rgb(48, 48, 48);text-anchor:middle;">hit_pos</text></g><g id="sprotty_ArchitectureBlockImpl$rvh_l1d_plru/InstantiationBlockImpl$U_LRU_UPDATE_ON_HIT/BPortImpl$old_lru" class="triangle" transform="translate(0, 38)"><path d="M 0,0 L 5,2.5 L 0,5 Z" transform="translate(-1.67, -2.5)" class="sprotty-port" style="fill:rgb(48, 48, 48);stroke:rgb(48, 48, 48);"/><text class="clickable sprotty-label port" id="sprotty_ArchitectureBlockImpl$rvh_l1d_plru/InstantiationBlockImpl$U_LRU_UPDATE_ON_HIT/BPortImpl$old_lru/label" transform="translate(6, -9) translate(20.109375, 14)" style="cursor:default;font-size:12px;perspective-origin:0px 0px;fill:rgb(48, 48, 48);text-anchor:middle;">old_lru</text></g><g id="sprotty_ArchitectureBlockImpl$rvh_l1d_plru/InstantiationBlockImpl$U_LRU_UPDATE_ON_HIT/BPortImpl$new_lru" class="triangle" transform="translate(363.078125, 52)"><path d="M 0,0 L 5,2.5 L 0,5 Z" transform="translate(-1.67, -2.5)" class="sprotty-port" style="fill:rgb(48, 48, 48);stroke:rgb(48, 48, 48);"/><text class="clickable sprotty-label port" id="sprotty_ArchitectureBlockImpl$rvh_l1d_plru/InstantiationBlockImpl$U_LRU_UPDATE_ON_HIT/BPortImpl$new_lru/label" transform="translate(-51.75, -9) translate(22.875, 14)" style="cursor:default;font-size:12px;perspective-origin:0px 0px;fill:rgb(48, 48, 48);text-anchor:middle;">new_lru</text></g></g><g id="sprotty_ArchitectureBlockImpl$rvh_l1d_plru/InstantiationBlockImpl$U_LRU_GET_NEW_LINE" class="instantiation" transform="translate(512.4427083333333, 189)"><g class="sprotty-block" style="fill:rgb(255, 255, 255);stroke:rgb(48, 48, 48);stroke-dasharray:0px;"><rect x="0" y="0" rx="1" ry="1" width="342.25" height="84"/><text x="171.125" y="12" class="sprotty-block-name" style="cursor:pointer;font-weight:700;perspective-origin:114.094px 0px;fill:rgb(48, 48, 48);stroke:rgba(0, 0, 0, 0);dominant-baseline:middle;text-anchor:middle;">U_LRU_GET_NEW_LINE : lru_get_new_line</text><line x1="0" y1="20" x2="342.25" y2="20"/></g><g id="sprotty_ArchitectureBlockImpl$rvh_l1d_plru/InstantiationBlockImpl$U_LRU_GET_NEW_LINE/BPortImpl$old_lru" class="triangle" transform="translate(0, 52)"><path d="M 0,0 L 5,2.5 L 0,5 Z" transform="translate(-1.67, -2.5)" class="sprotty-port" style="fill:rgb(48, 48, 48);stroke:rgb(48, 48, 48);"/><text class="clickable sprotty-label port" id="sprotty_ArchitectureBlockImpl$rvh_l1d_plru/InstantiationBlockImpl$U_LRU_GET_NEW_LINE/BPortImpl$old_lru/label" transform="translate(6, -9) translate(20.109375, 14)" style="cursor:default;font-size:12px;perspective-origin:0px 0px;fill:rgb(48, 48, 48);text-anchor:middle;">old_lru</text></g><g id="sprotty_ArchitectureBlockImpl$rvh_l1d_plru/InstantiationBlockImpl$U_LRU_GET_NEW_LINE/BPortImpl$new_lru" class="triangle" transform="translate(342.25, 38)"><path d="M 0,0 L 5,2.5 L 0,5 Z" transform="translate(-1.67, -2.5)" class="sprotty-port" style="fill:rgb(48, 48, 48);stroke:rgb(48, 48, 48);"/><text class="clickable sprotty-label port" id="sprotty_ArchitectureBlockImpl$rvh_l1d_plru/InstantiationBlockImpl$U_LRU_GET_NEW_LINE/BPortImpl$new_lru/label" transform="translate(-51.75, -9) translate(22.875, 14)" style="cursor:default;font-size:12px;perspective-origin:0px 0px;fill:rgb(48, 48, 48);text-anchor:middle;">new_lru</text></g><g id="sprotty_ArchitectureBlockImpl$rvh_l1d_plru/InstantiationBlockImpl$U_LRU_GET_NEW_LINE/BPortImpl$repl_pos" class="triangle" transform="translate(342.25, 66)"><path d="M 0,0 L 5,2.5 L 0,5 Z" transform="translate(-1.67, -2.5)" class="sprotty-port" style="fill:rgb(48, 48, 48);stroke:rgb(48, 48, 48);"/><text class="clickable sprotty-label port" id="sprotty_ArchitectureBlockImpl$rvh_l1d_plru/InstantiationBlockImpl$U_LRU_GET_NEW_LINE/BPortImpl$repl_pos/label" transform="translate(-55.46875, -9) translate(24.546875, 14)" style="cursor:default;font-size:12px;perspective-origin:0.125px 0px;fill:rgb(48, 48, 48);text-anchor:middle;">repl_pos</text></g></g><g id="sprotty_ArchitectureBlockImpl$rvh_l1d_plru/BPortImpl$rd_idx_refill" class="triangle" transform="translate(0, 203)"><path d="M 0,0 L 5,2.5 L 0,5 Z" transform="translate(-1.67, -2.5)" class="sprotty-port" style="fill:rgb(48, 48, 48);stroke:rgb(48, 48, 48);"/><text class="clickable sprotty-label port" id="sprotty_ArchitectureBlockImpl$rvh_l1d_plru/BPortImpl$rd_idx_refill/label" transform="translate(6, 6) translate(33.78125, 14)" style="cursor:default;font-size:12px;perspective-origin:0px 0px;fill:rgb(48, 48, 48);text-anchor:middle;">rd_idx_refill</text></g><g id="sprotty_ArchitectureBlockImpl$rvh_l1d_plru/BPortImpl$rd_en_refill" class="triangle" transform="translate(0, 237)"><path d="M 0,0 L 5,2.5 L 0,5 Z" transform="translate(-1.67, -2.5)" class="sprotty-port" style="fill:rgb(48, 48, 48);stroke:rgb(48, 48, 48);"/><text class="clickable sprotty-label port" id="sprotty_ArchitectureBlockImpl$rvh_l1d_plru/BPortImpl$rd_en_refill/label" transform="translate(6, 6) translate(32.40625, 14)" style="cursor:default;font-size:12px;perspective-origin:0px 0px;fill:rgb(48, 48, 48);text-anchor:middle;">rd_en_refill</text></g><g id="sprotty_ArchitectureBlockImpl$rvh_l1d_plru/BPortImpl$upd_way_idx_hit" class="triangle" transform="translate(0, 101)"><path d="M 0,0 L 5,2.5 L 0,5 Z" transform="translate(-1.67, -2.5)" class="sprotty-port" style="fill:rgb(48, 48, 48);stroke:rgb(48, 48, 48);"/><text class="clickable sprotty-label port" id="sprotty_ArchitectureBlockImpl$rvh_l1d_plru/BPortImpl$upd_way_idx_hit/label" transform="translate(6, 6) translate(48.3125, 14)" style="cursor:default;font-size:12px;perspective-origin:0.270833px 0px;fill:rgb(48, 48, 48);text-anchor:middle;">upd_way_idx_hit</text></g><g id="sprotty_ArchitectureBlockImpl$rvh_l1d_plru/BPortImpl$upd_set_idx_hit" class="triangle" transform="translate(0, 271)"><path d="M 0,0 L 5,2.5 L 0,5 Z" transform="translate(-1.67, -2.5)" class="sprotty-port" style="fill:rgb(48, 48, 48);stroke:rgb(48, 48, 48);"/><text class="clickable sprotty-label port" id="sprotty_ArchitectureBlockImpl$rvh_l1d_plru/BPortImpl$upd_set_idx_hit/label" transform="translate(6, 6) translate(45.390625, 14)" style="cursor:default;font-size:12px;perspective-origin:0.270833px 0px;fill:rgb(48, 48, 48);text-anchor:middle;">upd_set_idx_hit</text></g><g id="sprotty_ArchitectureBlockImpl$rvh_l1d_plru/BPortImpl$upd_en_hit" class="triangle" transform="translate(0, 305)"><path d="M 0,0 L 5,2.5 L 0,5 Z" transform="translate(-1.67, -2.5)" class="sprotty-port" style="fill:rgb(48, 48, 48);stroke:rgb(48, 48, 48);"/><text class="clickable sprotty-label port" id="sprotty_ArchitectureBlockImpl$rvh_l1d_plru/BPortImpl$upd_en_hit/label" transform="translate(6, 6) translate(32.34375, 14)" style="cursor:default;font-size:12px;perspective-origin:0.270833px 0px;fill:rgb(48, 48, 48);text-anchor:middle;">upd_en_hit</text></g><g id="sprotty_ArchitectureBlockImpl$rvh_l1d_plru/BPortImpl$rstn" class="triangle" transform="translate(0, 169)"><path d="M 0,0 L 5,2.5 L 0,5 Z" transform="translate(-1.67, -2.5)" class="sprotty-port" style="fill:rgb(48, 48, 48);stroke:rgb(48, 48, 48);"/><text class="clickable sprotty-label port" id="sprotty_ArchitectureBlockImpl$rvh_l1d_plru/BPortImpl$rstn/label" transform="translate(6, 6) translate(10.921875, 14)" style="cursor:default;font-size:12px;perspective-origin:0px 0px;fill:rgb(48, 48, 48);text-anchor:middle;">rstn</text></g><g id="sprotty_ArchitectureBlockImpl$rvh_l1d_plru/BPortImpl$clk" class="triangle" transform="translate(0, 135)"><path d="M 0,0 L 5,2.5 L 0,5 Z" transform="translate(-1.67, -2.5)" class="sprotty-port" style="fill:rgb(48, 48, 48);stroke:rgb(48, 48, 48);"/><text class="clickable sprotty-label port" id="sprotty_ArchitectureBlockImpl$rvh_l1d_plru/BPortImpl$clk/label" transform="translate(6, 6) translate(8.078125, 14)" style="cursor:default;font-size:12px;perspective-origin:0.239583px 0px;fill:rgb(48, 48, 48);text-anchor:middle;">clk</text></g><g id="sprotty_ArchitectureBlockImpl$rvh_l1d_plru/BPortImpl$rd_dat_refill" class="triangle" transform="translate(988.984375, 255)"><path d="M 0,0 L 5,2.5 L 0,5 Z" transform="translate(-1.67, -2.5)" class="sprotty-port" style="fill:rgb(48, 48, 48);stroke:rgb(48, 48, 48);"/><text class="clickable sprotty-label port" id="sprotty_ArchitectureBlockImpl$rvh_l1d_plru/BPortImpl$rd_dat_refill/label" transform="translate(-75.40625, 6) translate(34.703125, 14)" style="cursor:default;font-size:12px;perspective-origin:0px 0px;fill:rgb(48, 48, 48);text-anchor:middle;">rd_dat_refill</text></g></g></g></svg>