<svg xmlns="http://www.w3.org/2000/svg" id="sprotty_work.std_dffrve" class="sprotty-graph sprotty-block-diagram blockdiagram" style="font-family:&quot;Noto Sans&quot;, Helvetica, Arial, sans-serif;-webkit-locale:&quot;en&quot;;perspective-origin:0px 0px;transform-origin:0px 0px;" version="1.1" viewBox="7 7 216.796875 220" width="216.796875" height="220"><g transform="scale(1) translate(0,0)"><g id="sprotty_ArchitectureBlockImpl$std_dffrve" class="architecture" transform="translate(12, 12)"><g class="sprotty-block" style="fill:rgb(255, 255, 255);stroke:rgb(48, 48, 48);stroke-dasharray:0px;"><rect x="0" y="0" rx="1" ry="1" width="206.796875" height="210"/><text x="103.3984375" y="12" class="sprotty-block-name" style="cursor:pointer;font-weight:700;perspective-origin:68.7188px 0px;fill:rgb(48, 48, 48);stroke:rgba(0, 0, 0, 0);dominant-baseline:middle;text-anchor:middle;">std_dffrve</text><line x1="0" y1="20" x2="206.796875" y2="20"/></g><g id="sprotty_ArchitectureBlockImpl$std_dffrve/AssignmentBlockImpl$q/GPortImpl$qOUT_to_ArchitectureBlockImpl$std_dffrve/BPortImpl$q" class="sprotty-edge thick edge" style="fill:none;stroke:rgb(112, 112, 112);stroke-linejoin:round;stroke-width:3px;"><g><path d="M 178.328125 103 L 206.796875 103 "/><path d="M 178.328125 103 L 206.796875 103 " class="clickable"/></g></g><g id="sprotty_ArchitectureBlockImpl$std_dffrve/BPortImpl$clk_to_ArchitectureBlockImpl$std_dffrve/AlwaysBlockImpl$null6/GPortImpl$clkIN" class="sprotty-edge edge" style="fill:none;stroke:rgb(112, 112, 112);stroke-linejoin:round;"><g><path d="M 0 35 L 76.375 35 C 77.375 35 78.375 36 78.375 37 L 78.375 81 C 78.375 82 79.375 83 80.375 83 L 88.375 83 "/><path d="M 0 35 L 76.375 35 C 77.375 35 78.375 36 78.375 37 L 78.375 81 C 78.375 82 79.375 83 80.375 83 L 88.375 83 " class="clickable"/></g></g><g id="sprotty_ArchitectureBlockImpl$std_dffrve/BPortImpl$rstn_to_ArchitectureBlockImpl$std_dffrve/AlwaysBlockImpl$null6/GPortImpl$rstnIN" class="sprotty-edge edge" style="fill:none;stroke:rgb(112, 112, 112);stroke-linejoin:round;"><g><path d="M 0 171 L 76.375 171 C 77.375 171 78.375 170 78.375 169 L 78.375 125 C 78.375 124 79.375 123 80.375 123 L 88.375 123 "/><path d="M 0 171 L 76.375 171 C 77.375 171 78.375 170 78.375 169 L 78.375 125 C 78.375 124 79.375 123 80.375 123 L 88.375 123 " class="clickable"/></g></g><g id="sprotty_ArchitectureBlockImpl$std_dffrve/BPortImpl$rst_val_to_ArchitectureBlockImpl$std_dffrve/AlwaysBlockImpl$null6/GPortImpl$rst_valIN" class="sprotty-edge thick edge" style="fill:none;stroke:rgb(112, 112, 112);stroke-linejoin:round;stroke-width:3px;"><g><path d="M 0 137 L 66.375 137 C 67.375 137 68.375 136 68.375 135 L 68.375 115 C 68.375 114 69.375 113 70.375 113 L 88.375 113 "/><path d="M 0 137 L 66.375 137 C 67.375 137 68.375 136 68.375 135 L 68.375 115 C 68.375 114 69.375 113 70.375 113 L 88.375 113 " class="clickable"/></g></g><g id="sprotty_ArchitectureBlockImpl$std_dffrve/BPortImpl$en_to_ArchitectureBlockImpl$std_dffrve/AlwaysBlockImpl$null6/GPortImpl$enIN" class="sprotty-edge edge" style="fill:none;stroke:rgb(112, 112, 112);stroke-linejoin:round;"><g><path d="M 0 103 L 88.375 103 "/><path d="M 0 103 L 88.375 103 " class="clickable"/></g></g><g id="sprotty_ArchitectureBlockImpl$std_dffrve/BPortImpl$d_to_ArchitectureBlockImpl$std_dffrve/AlwaysBlockImpl$null6/GPortImpl$dIN" class="sprotty-edge thick edge" style="fill:none;stroke:rgb(112, 112, 112);stroke-linejoin:round;stroke-width:3px;"><g><path d="M 0 69 L 66.375 69 C 67.375 69 68.375 70 68.375 71 L 68.375 91 C 68.375 92 69.375 93 70.375 93 L 88.375 93 "/><path d="M 0 69 L 66.375 69 C 67.375 69 68.375 70 68.375 71 L 68.375 91 C 68.375 92 69.375 93 70.375 93 L 88.375 93 " class="clickable"/></g></g><g id="sprotty_ArchitectureBlockImpl$std_dffrve/AlwaysBlockImpl$null6/GPortImpl$dff_qOUT_to_ArchitectureBlockImpl$std_dffrve/AssignmentBlockImpl$q/GPortImpl$dff_qIN" class="sprotty-edge thick edge" style="fill:none;stroke:rgb(112, 112, 112);stroke-linejoin:round;stroke-width:3px;"><g><path d="M 137.59375 103 L 157.59375 103 "/><path d="M 137.59375 103 L 157.59375 103 " class="clickable"/></g></g><g id="sprotty_ArchitectureBlockImpl$std_dffrve/AlwaysBlockImpl$null6" class="statement" transform="translate(88.375, 73)"><rect x="0" y="0" rx="10" ry="5" width="49.21875" height="60" class="sprotty-node" style="fill:rgb(245, 245, 245);stroke:rgb(112, 112, 112);"/><text class="clickable sprotty-label statementtype" id="sprotty_ArchitectureBlockImpl$std_dffrve/AlwaysBlockImpl$null6/labeltype" transform="translate(5, 23.9921875) translate(19.484375, 9.34375)" style="cursor:default;font-size:8px;font-weight:700;perspective-origin:0.0833333px 0px;fill:rgb(112, 112, 112);text-anchor:middle;">always_ff</text><g id="sprotty_ArchitectureBlockImpl$std_dffrve/AlwaysBlockImpl$null6/GPortImpl$dIN" class="sprotty-hidden hidden" transform="translate(0, 20)" style="display:block;height:0px;width:0px;"/><g id="sprotty_ArchitectureBlockImpl$std_dffrve/AlwaysBlockImpl$null6/GPortImpl$enIN" class="sprotty-hidden hidden" transform="translate(0, 30)" style="display:block;height:0px;width:0px;"/><g id="sprotty_ArchitectureBlockImpl$std_dffrve/AlwaysBlockImpl$null6/GPortImpl$rst_valIN" class="sprotty-hidden hidden" transform="translate(0, 40)" style="display:block;height:0px;width:0px;"/><g id="sprotty_ArchitectureBlockImpl$std_dffrve/AlwaysBlockImpl$null6/GPortImpl$rstnIN" class="sprotty-hidden hidden" transform="translate(0, 50)" style="display:block;height:0px;width:0px;"/><g id="sprotty_ArchitectureBlockImpl$std_dffrve/AlwaysBlockImpl$null6/GPortImpl$clkIN" class="sprotty-hidden hidden" transform="translate(0, 10)" style="display:block;height:0px;width:0px;"/><g id="sprotty_ArchitectureBlockImpl$std_dffrve/AlwaysBlockImpl$null6/GPortImpl$dff_qOUT" class="sprotty-hidden hidden" transform="translate(49.21875, 30)" style="display:block;height:0px;width:0px;"/></g><g id="sprotty_ArchitectureBlockImpl$std_dffrve/AssignmentBlockImpl$q" class="statement" transform="translate(157.59375, 91.9921875)"><rect x="0" y="0" rx="10" ry="5" width="20.734375" height="22.015625" class="sprotty-node" style="fill:rgb(245, 245, 245);stroke:rgb(112, 112, 112);"/><text class="clickable sprotty-label statementtype" id="sprotty_ArchitectureBlockImpl$std_dffrve/AssignmentBlockImpl$q/labeltype" transform="translate(5, 5) translate(5.390625, 9.34375)" style="cursor:default;font-size:8px;font-weight:700;perspective-origin:-0.0104167px 0px;fill:rgb(112, 112, 112);text-anchor:middle;">&lt;=</text><g id="sprotty_ArchitectureBlockImpl$std_dffrve/AssignmentBlockImpl$q/GPortImpl$dff_qIN" class="sprotty-hidden hidden" transform="translate(0, 11.0078125)" style="display:block;height:0px;width:0px;"/><g id="sprotty_ArchitectureBlockImpl$std_dffrve/AssignmentBlockImpl$q/GPortImpl$qOUT" class="sprotty-hidden hidden" transform="translate(20.734375, 11.0078125)" style="display:block;height:0px;width:0px;"/></g><g id="sprotty_ArchitectureBlockImpl$std_dffrve/BPortImpl$d" class="triangle" transform="translate(0, 69)"><path d="M 0,0 L 5,2.5 L 0,5 Z" transform="translate(-1.67, -2.5)" class="sprotty-port" style="fill:rgb(48, 48, 48);stroke:rgb(48, 48, 48);"/><text class="clickable sprotty-label port" id="sprotty_ArchitectureBlockImpl$std_dffrve/BPortImpl$d/label" transform="translate(6, 6) translate(3.734375, 14)" style="cursor:default;font-size:12px;perspective-origin:0px 0px;fill:rgb(48, 48, 48);text-anchor:middle;">d</text></g><g id="sprotty_ArchitectureBlockImpl$std_dffrve/BPortImpl$en" class="triangle" transform="translate(0, 103)"><path d="M 0,0 L 5,2.5 L 0,5 Z" transform="translate(-1.67, -2.5)" class="sprotty-port" style="fill:rgb(48, 48, 48);stroke:rgb(48, 48, 48);"/><text class="clickable sprotty-label port" id="sprotty_ArchitectureBlockImpl$std_dffrve/BPortImpl$en/label" transform="translate(6, 6) translate(7, 14)" style="cursor:default;font-size:12px;perspective-origin:0px 0px;fill:rgb(48, 48, 48);text-anchor:middle;">en</text></g><g id="sprotty_ArchitectureBlockImpl$std_dffrve/BPortImpl$rst_val" class="triangle" transform="translate(0, 137)"><path d="M 0,0 L 5,2.5 L 0,5 Z" transform="translate(-1.67, -2.5)" class="sprotty-port" style="fill:rgb(48, 48, 48);stroke:rgb(48, 48, 48);"/><text class="clickable sprotty-label port" id="sprotty_ArchitectureBlockImpl$std_dffrve/BPortImpl$rst_val/label" transform="translate(6, 6) translate(18.6875, 14)" style="cursor:default;font-size:12px;perspective-origin:0px 0px;fill:rgb(48, 48, 48);text-anchor:middle;">rst_val</text></g><g id="sprotty_ArchitectureBlockImpl$std_dffrve/BPortImpl$rstn" class="triangle" transform="translate(0, 171)"><path d="M 0,0 L 5,2.5 L 0,5 Z" transform="translate(-1.67, -2.5)" class="sprotty-port" style="fill:rgb(48, 48, 48);stroke:rgb(48, 48, 48);"/><text class="clickable sprotty-label port" id="sprotty_ArchitectureBlockImpl$std_dffrve/BPortImpl$rstn/label" transform="translate(6, 6) translate(10.921875, 14)" style="cursor:default;font-size:12px;perspective-origin:0px 0px;fill:rgb(48, 48, 48);text-anchor:middle;">rstn</text></g><g id="sprotty_ArchitectureBlockImpl$std_dffrve/BPortImpl$clk" class="triangle" transform="translate(0, 35)"><path d="M 0,0 L 5,2.5 L 0,5 Z" transform="translate(-1.67, -2.5)" class="sprotty-port" style="fill:rgb(48, 48, 48);stroke:rgb(48, 48, 48);"/><text class="clickable sprotty-label port" id="sprotty_ArchitectureBlockImpl$std_dffrve/BPortImpl$clk/label" transform="translate(6, 6) translate(8.078125, 14)" style="cursor:default;font-size:12px;perspective-origin:0.239583px 0px;fill:rgb(48, 48, 48);text-anchor:middle;">clk</text></g><g id="sprotty_ArchitectureBlockImpl$std_dffrve/BPortImpl$q" class="triangle" transform="translate(206.796875, 103)"><path d="M 0,0 L 5,2.5 L 0,5 Z" transform="translate(-1.67, -2.5)" class="sprotty-port" style="fill:rgb(48, 48, 48);stroke:rgb(48, 48, 48);"/><text class="clickable sprotty-label port" id="sprotty_ArchitectureBlockImpl$std_dffrve/BPortImpl$q/label" transform="translate(-13.46875, 6) translate(3.734375, 14)" style="cursor:default;font-size:12px;perspective-origin:0px 0px;fill:rgb(48, 48, 48);text-anchor:middle;">q</text></g></g></g></svg>