<svg xmlns="http://www.w3.org/2000/svg" id="sprotty_work.mp_fifo" class="sprotty-graph sprotty-block-diagram blockdiagram" style="font-family:&quot;Noto Sans&quot;, Helvetica, Arial, sans-serif;-webkit-locale:&quot;en&quot;;perspective-origin:0px 0px;transform-origin:0px 0px;" version="1.1" viewBox="7 7 850.25 461.046875" width="850.25" height="461.046875"><g transform="scale(1) translate(0,0)"><g id="sprotty_ArchitectureBlockImpl$mp_fifo" class="architecture" transform="translate(12, 12)"><g class="sprotty-block" style="fill:rgb(255, 255, 255);stroke:rgb(48, 48, 48);stroke-dasharray:0px;"><rect x="0" y="0" rx="1" ry="1" width="840.25" height="451.046875"/><text x="420.125" y="12" class="sprotty-block-name" style="cursor:pointer;font-weight:700;perspective-origin:280.083px 0px;fill:rgb(48, 48, 48);stroke:rgba(0, 0, 0, 0);dominant-baseline:middle;text-anchor:middle;">mp_fifo</text><line x1="0" y1="20" x2="840.25" y2="20"/></g><g id="sprotty_ArchitectureBlockImpl$mp_fifo/GenerateStatementBlockImpl$null9/GPortImpl$enqueue_rdy_o_to_ArchitectureBlockImpl$mp_fifo/BPortImpl$enqueue_rdy_o" class="sprotty-edge thick edge" style="fill:none;stroke:rgb(112, 112, 112);stroke-linejoin:round;stroke-width:3px;"><g><path d="M 684.125 276.0234375 L 840.25 276.0234375 "/><path d="M 684.125 276.0234375 L 840.25 276.0234375 " class="clickable"/></g></g><g id="sprotty_ArchitectureBlockImpl$mp_fifo/GenerateStatementBlockImpl$null10/GPortImpl$dequeue_vld_o_to_ArchitectureBlockImpl$mp_fifo/BPortImpl$dequeue_vld_o" class="sprotty-edge thick edge" style="fill:none;stroke:rgb(112, 112, 112);stroke-linejoin:round;stroke-width:3px;"><g><path d="M 649.125 125.0234375 L 692.125 125.0234375 C 693.125 125.0234375 694.125 124.0234375 694.125 123.0234375 L 694.125 47 C 694.125 46 695.125 45 696.125 45 L 840.25 45 "/><path d="M 649.125 125.0234375 L 692.125 125.0234375 C 693.125 125.0234375 694.125 124.0234375 694.125 123.0234375 L 694.125 47 C 694.125 46 695.125 45 696.125 45 L 840.25 45 " class="clickable"/></g><circle r="3" id="sprotty_ArchitectureBlockImpl$mp_fifo/GenerateStatementBlockImpl$null10/GPortImpl$dequeue_vld_o_to_ArchitectureBlockImpl$mp_fifo/BPortImpl$dequeue_vld_o/junction0" transform="translate(694.125, 45)" class="sprotty-junction thick" style="fill:rgb(112, 112, 112);stroke:none;"/></g><g id="sprotty_ArchitectureBlockImpl$mp_fifo/GenerateStatementBlockImpl$null10/GPortImpl$dequeue_payload_o_to_ArchitectureBlockImpl$mp_fifo/BPortImpl$dequeue_payload_o" class="sprotty-edge thick edge" style="fill:none;stroke:rgb(112, 112, 112);stroke-linejoin:round;stroke-width:3px;"><g><path d="M 649.125 83.0078125 L 840.25 83.0078125 "/><path d="M 649.125 83.0078125 L 840.25 83.0078125 " class="clickable"/></g></g><g id="sprotty_ArchitectureBlockImpl$mp_fifo/BPortImpl$flush_i_to_ArchitectureBlockImpl$mp_fifo/InstantiationBlockImpl$u_usage_manager/BPortImpl$flush_i" class="sprotty-edge edge" style="fill:none;stroke:rgb(112, 112, 112);stroke-linejoin:round;"><g><path d="M 0 378.046875 L 200.765625 378.046875 C 201.765625 378.046875 202.765625 377.046875 202.765625 376.046875 L 202.765625 222.0234375 C 202.765625 221.0234375 203.765625 220.0234375 204.765625 220.0234375 L 222.765625 220.0234375 "/><path d="M 0 378.046875 L 200.765625 378.046875 C 201.765625 378.046875 202.765625 377.046875 202.765625 376.046875 L 202.765625 222.0234375 C 202.765625 221.0234375 203.765625 220.0234375 204.765625 220.0234375 L 222.765625 220.0234375 " class="clickable"/></g></g><g id="sprotty_ArchitectureBlockImpl$mp_fifo/BPortImpl$clk_to_ArchitectureBlockImpl$mp_fifo/InstantiationBlockImpl$u_usage_manager/BPortImpl$clk" class="sprotty-edge edge" style="fill:none;stroke:rgb(112, 112, 112);stroke-linejoin:round;"><g><path d="M 0 231.0234375 L 180.765625 231.0234375 C 181.765625 231.0234375 182.765625 232.0234375 182.765625 233.0234375 L 182.765625 246.0234375 C 182.765625 247.0234375 183.765625 248.0234375 184.765625 248.0234375 L 222.765625 248.0234375 "/><path d="M 0 231.0234375 L 180.765625 231.0234375 C 181.765625 231.0234375 182.765625 232.0234375 182.765625 233.0234375 L 182.765625 246.0234375 C 182.765625 247.0234375 183.765625 248.0234375 184.765625 248.0234375 L 222.765625 248.0234375 " class="clickable"/></g></g><g id="sprotty_ArchitectureBlockImpl$mp_fifo/BPortImpl$rst_to_ArchitectureBlockImpl$mp_fifo/InstantiationBlockImpl$u_usage_manager/BPortImpl$rst" class="sprotty-edge edge" style="fill:none;stroke:rgb(112, 112, 112);stroke-linejoin:round;"><g><path d="M 0 412.046875 L 210.765625 412.046875 C 211.765625 412.046875 212.765625 411.046875 212.765625 410.046875 L 212.765625 278.0234375 C 212.765625 277.0234375 213.765625 276.0234375 214.765625 276.0234375 L 222.765625 276.0234375 "/><path d="M 0 412.046875 L 210.765625 412.046875 C 211.765625 412.046875 212.765625 411.046875 212.765625 410.046875 L 212.765625 278.0234375 C 212.765625 277.0234375 213.765625 276.0234375 214.765625 276.0234375 L 222.765625 276.0234375 " class="clickable"/></g></g><g id="sprotty_ArchitectureBlockImpl$mp_fifo/BPortImpl$enqueue_vld_i_to_ArchitectureBlockImpl$mp_fifo/AssignmentBlockImpl$enq_fire/GPortImpl$enqueue_vld_iIN" class="sprotty-edge thick edge" style="fill:none;stroke:rgb(112, 112, 112);stroke-linejoin:round;stroke-width:3px;"><g><path d="M 0 265.0234375 L 152.03125 265.0234375 "/><path d="M 0 265.0234375 L 152.03125 265.0234375 " class="clickable"/></g></g><g id="sprotty_ArchitectureBlockImpl$mp_fifo/BPortImpl$enqueue_rdy_o_to_ArchitectureBlockImpl$mp_fifo/AssignmentBlockImpl$enq_fire/GPortImpl$enqueue_rdy_oIN" class="sprotty-edge thick edge" style="fill:none;stroke:rgb(112, 112, 112);stroke-linejoin:round;stroke-width:3px;"><g><path d="M 840.25 276.0234375 L 696.125 276.0234375 C 695.125 276.0234375 694.125 277.0234375 694.125 278.0234375 L 694.125 368.046875 C 694.125 369.046875 693.125 370.046875 692.125 370.046875 L 144.03125 370.046875 C 143.03125 370.046875 142.03125 369.046875 142.03125 368.046875 L 142.03125 277.0234375 C 142.03125 276.0234375 143.03125 275.0234375 144.03125 275.0234375 L 152.03125 275.0234375 "/><path d="M 840.25 276.0234375 L 696.125 276.0234375 C 695.125 276.0234375 694.125 277.0234375 694.125 278.0234375 L 694.125 368.046875 C 694.125 369.046875 693.125 370.046875 692.125 370.046875 L 144.03125 370.046875 C 143.03125 370.046875 142.03125 369.046875 142.03125 368.046875 L 142.03125 277.0234375 C 142.03125 276.0234375 143.03125 275.0234375 144.03125 275.0234375 L 152.03125 275.0234375 " class="clickable"/></g><circle r="3" id="sprotty_ArchitectureBlockImpl$mp_fifo/BPortImpl$enqueue_rdy_o_to_ArchitectureBlockImpl$mp_fifo/AssignmentBlockImpl$enq_fire/GPortImpl$enqueue_rdy_oIN/junction0" transform="translate(694.125, 276.0234375)" class="sprotty-junction thick" style="fill:rgb(112, 112, 112);stroke:none;"/></g><g id="sprotty_ArchitectureBlockImpl$mp_fifo/BPortImpl$dequeue_vld_o_to_ArchitectureBlockImpl$mp_fifo/AssignmentBlockImpl$deq_fire/GPortImpl$dequeue_vld_oIN" class="sprotty-edge thick edge" style="fill:none;stroke:rgb(112, 112, 112);stroke-linejoin:round;stroke-width:3px;"><g><path d="M 840.25 45 L 144.03125 45 C 143.03125 45 142.03125 46 142.03125 47 L 142.03125 185.0234375 C 142.03125 186.0234375 143.03125 187.0234375 144.03125 187.0234375 L 152.03125 187.0234375 "/><path d="M 840.25 45 L 144.03125 45 C 143.03125 45 142.03125 46 142.03125 47 L 142.03125 185.0234375 C 142.03125 186.0234375 143.03125 187.0234375 144.03125 187.0234375 L 152.03125 187.0234375 " class="clickable"/></g></g><g id="sprotty_ArchitectureBlockImpl$mp_fifo/BPortImpl$dequeue_rdy_i_to_ArchitectureBlockImpl$mp_fifo/AssignmentBlockImpl$deq_fire/GPortImpl$dequeue_rdy_iIN" class="sprotty-edge thick edge" style="fill:none;stroke:rgb(112, 112, 112);stroke-linejoin:round;stroke-width:3px;"><g><path d="M 0 197.0234375 L 152.03125 197.0234375 "/><path d="M 0 197.0234375 L 152.03125 197.0234375 " class="clickable"/></g></g><g id="sprotty_ArchitectureBlockImpl$mp_fifo/BPortImpl$clk_to_ArchitectureBlockImpl$mp_fifo/AlwaysBlockImpl$payload_dff_update/GPortImpl$clkIN" class="sprotty-edge edge" style="fill:none;stroke:rgb(112, 112, 112);stroke-linejoin:round;"><g><path d="M 0 231.0234375 L 180.765625 231.0234375 C 181.765625 231.0234375 182.765625 230.0234375 182.765625 229.0234375 L 182.765625 85.0078125 C 182.765625 84.0078125 183.765625 83.0078125 184.765625 83.0078125 L 253.35546875 83.0078125 "/><path d="M 0 231.0234375 L 180.765625 231.0234375 C 181.765625 231.0234375 182.765625 230.0234375 182.765625 229.0234375 L 182.765625 85.0078125 C 182.765625 84.0078125 183.765625 83.0078125 184.765625 83.0078125 L 253.35546875 83.0078125 " class="clickable"/></g><circle r="2" id="sprotty_ArchitectureBlockImpl$mp_fifo/BPortImpl$clk_to_ArchitectureBlockImpl$mp_fifo/AlwaysBlockImpl$payload_dff_update/GPortImpl$clkIN/junction0" transform="translate(182.765625, 231.0234375)" class="sprotty-junction junction" style="fill:rgb(112, 112, 112);stroke:none;"/></g><g id="sprotty_ArchitectureBlockImpl$mp_fifo/BPortImpl$enqueue_payload_i_to_ArchitectureBlockImpl$mp_fifo/AlwaysBlockImpl$payload_dff_update/GPortImpl$enqueue_payload_iIN" class="sprotty-edge thick edge" style="fill:none;stroke:rgb(112, 112, 112);stroke-linejoin:round;stroke-width:3px;"><g><path d="M 0 36 L 180.765625 36 C 181.765625 36 182.765625 37 182.765625 38 L 182.765625 69.5 C 182.765625 70.5 183.765625 71.5 184.765625 71.5 L 253.35546875 71.5 "/><path d="M 0 36 L 180.765625 36 C 181.765625 36 182.765625 37 182.765625 38 L 182.765625 69.5 C 182.765625 70.5 183.765625 71.5 184.765625 71.5 L 253.35546875 71.5 " class="clickable"/></g></g><g id="sprotty_ArchitectureBlockImpl$mp_fifo/InstantiationBlockImpl$u_usage_manager/BPortImpl$avail_cnt_o_to_ArchitectureBlockImpl$mp_fifo/GenerateStatementBlockImpl$null10/GPortImpl$avail_cnt" class="sprotty-edge thick edge" style="fill:none;stroke:rgb(112, 112, 112);stroke-linejoin:round;stroke-width:3px;"><g><path d="M 514.125 276.0234375 L 522.125 276.0234375 C 523.125 276.0234375 524.125 275.0234375 524.125 274.0234375 L 524.125 127.0234375 C 524.125 126.0234375 525.125 125.0234375 526.125 125.0234375 L 569.125 125.0234375 "/><path d="M 514.125 276.0234375 L 522.125 276.0234375 C 523.125 276.0234375 524.125 275.0234375 524.125 274.0234375 L 524.125 127.0234375 C 524.125 126.0234375 525.125 125.0234375 526.125 125.0234375 L 569.125 125.0234375 " class="clickable"/></g><circle r="3" id="sprotty_ArchitectureBlockImpl$mp_fifo/InstantiationBlockImpl$u_usage_manager/BPortImpl$avail_cnt_o_to_ArchitectureBlockImpl$mp_fifo/GenerateStatementBlockImpl$null10/GPortImpl$avail_cnt/junction0" transform="translate(524.125, 276.0234375)" class="sprotty-junction thick" style="fill:rgb(112, 112, 112);stroke:none;"/></g><g id="sprotty_ArchitectureBlockImpl$mp_fifo/InstantiationBlockImpl$u_usage_manager/BPortImpl$avail_cnt_o_to_ArchitectureBlockImpl$mp_fifo/GenerateStatementBlockImpl$null9/GPortImpl$avail_cnt" class="sprotty-edge thick edge" style="fill:none;stroke:rgb(112, 112, 112);stroke-linejoin:round;stroke-width:3px;"><g><path d="M 514.125 276.0234375 L 534.125 276.0234375 "/><path d="M 514.125 276.0234375 L 534.125 276.0234375 " class="clickable"/></g></g><g id="sprotty_ArchitectureBlockImpl$mp_fifo/AlwaysBlockImpl$payload_dff_update/GPortImpl$payload_dffOUT_to_ArchitectureBlockImpl$mp_fifo/GenerateStatementBlockImpl$null10/GPortImpl$payload_dff" class="sprotty-edge thick edge" style="fill:none;stroke:rgb(112, 112, 112);stroke-linejoin:round;stroke-width:3px;"><g><path d="M 422.35546875 83.0078125 L 569.125 83.0078125 "/><path d="M 422.35546875 83.0078125 L 569.125 83.0078125 " class="clickable"/></g></g><g id="sprotty_ArchitectureBlockImpl$mp_fifo/AssignmentBlockImpl$enq_fire/GPortImpl$enqueue_rdy_oOUT_to_ArchitectureBlockImpl$mp_fifo/InstantiationBlockImpl$u_usage_manager/BPortImpl$enq_fire_i" class="sprotty-edge thick edge" style="fill:none;stroke:rgb(112, 112, 112);stroke-linejoin:round;stroke-width:3px;"><g><path d="M 172.765625 270.0234375 L 190.765625 270.0234375 C 191.765625 270.0234375 192.765625 269.0234375 192.765625 268.0234375 L 192.765625 166.0234375 C 192.765625 165.0234375 193.765625 164.0234375 194.765625 164.0234375 L 222.765625 164.0234375 "/><path d="M 172.765625 270.0234375 L 190.765625 270.0234375 C 191.765625 270.0234375 192.765625 269.0234375 192.765625 268.0234375 L 192.765625 166.0234375 C 192.765625 165.0234375 193.765625 164.0234375 194.765625 164.0234375 L 222.765625 164.0234375 " class="clickable"/></g><circle r="3" id="sprotty_ArchitectureBlockImpl$mp_fifo/AssignmentBlockImpl$enq_fire/GPortImpl$enqueue_rdy_oOUT_to_ArchitectureBlockImpl$mp_fifo/InstantiationBlockImpl$u_usage_manager/BPortImpl$enq_fire_i/junction0" transform="translate(192.765625, 164.0234375)" class="sprotty-junction thick" style="fill:rgb(112, 112, 112);stroke:none;"/></g><g id="sprotty_ArchitectureBlockImpl$mp_fifo/AssignmentBlockImpl$enq_fire/GPortImpl$enqueue_rdy_oOUT_to_ArchitectureBlockImpl$mp_fifo/AlwaysBlockImpl$payload_dff_update/GPortImpl$enq_fireIN" class="sprotty-edge thick edge" style="fill:none;stroke:rgb(112, 112, 112);stroke-linejoin:round;stroke-width:3px;"><g><path d="M 172.765625 270.0234375 L 190.765625 270.0234375 C 191.765625 270.0234375 192.765625 269.0234375 192.765625 268.0234375 L 192.765625 96.515625 C 192.765625 95.515625 193.765625 94.515625 194.765625 94.515625 L 253.35546875 94.515625 "/><path d="M 172.765625 270.0234375 L 190.765625 270.0234375 C 191.765625 270.0234375 192.765625 269.0234375 192.765625 268.0234375 L 192.765625 96.515625 C 192.765625 95.515625 193.765625 94.515625 194.765625 94.515625 L 253.35546875 94.515625 " class="clickable"/></g></g><g id="sprotty_ArchitectureBlockImpl$mp_fifo/AssignmentBlockImpl$deq_fire/GPortImpl$deq_fireOUT_to_ArchitectureBlockImpl$mp_fifo/InstantiationBlockImpl$u_usage_manager/BPortImpl$deq_fire_i" class="sprotty-edge thick edge" style="fill:none;stroke:rgb(112, 112, 112);stroke-linejoin:round;stroke-width:3px;"><g><path d="M 172.765625 192.0234375 L 222.765625 192.0234375 "/><path d="M 172.765625 192.0234375 L 222.765625 192.0234375 " class="clickable"/></g></g><g id="sprotty_ArchitectureBlockImpl$mp_fifo/GenerateStatementBlockImpl$null9" class="generate" transform="translate(534.125, 235.015625)"><g class="sprotty-block sprotty-block-generate" style="fill:rgb(255, 255, 255);stroke:rgb(48, 48, 48);stroke-dasharray:0px;"><rect x="0" y="0" rx="1" ry="1" width="150" height="124.03125" style="stroke-dasharray:3px, 1px;"/><text x="75" y="12" class="sprotty-block-name" style="cursor:pointer;font-weight:700;fill:rgb(48, 48, 48);stroke:rgba(0, 0, 0, 0);dominant-baseline:middle;text-anchor:middle;"/></g><g id="sprotty_ArchitectureBlockImpl$mp_fifo/GenerateStatementBlockImpl$null9/AssignmentBlockImpl$enqueue_rdy_o/GPortImpl$enqueue_rdy_oOUT_to_ArchitectureBlockImpl$mp_fifo/GenerateStatementBlockImpl$null9/GPortImpl$enqueue_rdy_o" class="sprotty-edge thick edge" style="fill:none;stroke:rgb(112, 112, 112);stroke-linejoin:round;stroke-width:3px;"><g><path d="M 85.3671875 98.0234375 L 123 98.0234375 C 124 98.0234375 125 97.0234375 125 96.0234375 L 125 43.0078125 C 125 42.0078125 126 41.0078125 127 41.0078125 L 150 41.0078125 "/><path d="M 85.3671875 98.0234375 L 123 98.0234375 C 124 98.0234375 125 97.0234375 125 96.0234375 L 125 43.0078125 C 125 42.0078125 126 41.0078125 127 41.0078125 L 150 41.0078125 " class="clickable"/></g><circle r="3" id="sprotty_ArchitectureBlockImpl$mp_fifo/GenerateStatementBlockImpl$null9/AssignmentBlockImpl$enqueue_rdy_o/GPortImpl$enqueue_rdy_oOUT_to_ArchitectureBlockImpl$mp_fifo/GenerateStatementBlockImpl$null9/GPortImpl$enqueue_rdy_o/junction0" transform="translate(125, 41.0078125)" class="sprotty-junction thick" style="fill:rgb(112, 112, 112);stroke:none;"/></g><g id="sprotty_ArchitectureBlockImpl$mp_fifo/GenerateStatementBlockImpl$null9/GPortImpl$avail_cnt_to_ArchitectureBlockImpl$mp_fifo/GenerateStatementBlockImpl$null9/AssignmentBlockImpl$enqueue_rdy_o/GPortImpl$avail_cntIN" class="sprotty-edge thick edge" style="fill:none;stroke:rgb(112, 112, 112);stroke-linejoin:round;stroke-width:3px;"><g><path d="M 0 41.0078125 L 23 41.0078125 C 24 41.0078125 25 42.0078125 25 43.0078125 L 25 96.0234375 C 25 97.0234375 26 98.0234375 27 98.0234375 L 64.6328125 98.0234375 "/><path d="M 0 41.0078125 L 23 41.0078125 C 24 41.0078125 25 42.0078125 25 43.0078125 L 25 96.0234375 C 25 97.0234375 26 98.0234375 27 98.0234375 L 64.6328125 98.0234375 " class="clickable"/></g><circle r="3" id="sprotty_ArchitectureBlockImpl$mp_fifo/GenerateStatementBlockImpl$null9/GPortImpl$avail_cnt_to_ArchitectureBlockImpl$mp_fifo/GenerateStatementBlockImpl$null9/AssignmentBlockImpl$enqueue_rdy_o/GPortImpl$avail_cntIN/junction0" transform="translate(25, 41.0078125)" class="sprotty-junction thick" style="fill:rgb(112, 112, 112);stroke:none;"/></g><g id="sprotty_ArchitectureBlockImpl$mp_fifo/GenerateStatementBlockImpl$null9/GenerateStatementBlockImpl$null2" class="generate" transform="translate(35, 15)"><g class="sprotty-block sprotty-block-generate" style="fill:rgb(255, 255, 255);stroke:rgb(48, 48, 48);stroke-dasharray:0px;"><rect x="0" y="0" rx="1" ry="1" width="80" height="52.015625" style="stroke-dasharray:3px, 1px;"/><text x="40" y="12" class="sprotty-block-name" style="cursor:pointer;font-weight:700;fill:rgb(48, 48, 48);stroke:rgba(0, 0, 0, 0);dominant-baseline:middle;text-anchor:middle;"/></g><g id="sprotty_ArchitectureBlockImpl$mp_fifo/GenerateStatementBlockImpl$null9/GenerateStatementBlockImpl$null2/AssignmentBlockImpl$enqueue_rdy_o/GPortImpl$enqueue_rdy_oOUT_to_ArchitectureBlockImpl$mp_fifo/GenerateStatementBlockImpl$null9/GenerateStatementBlockImpl$null2/GPortImpl$enqueue_rdy_o" class="sprotty-edge thick edge" style="fill:none;stroke:rgb(112, 112, 112);stroke-linejoin:round;stroke-width:3px;"><g><path d="M 35.734375 26.0078125 L 80 26.0078125 "/><path d="M 35.734375 26.0078125 L 80 26.0078125 " class="clickable"/></g></g><g id="sprotty_ArchitectureBlockImpl$mp_fifo/GenerateStatementBlockImpl$null9/GenerateStatementBlockImpl$null2/GPortImpl$enqueue_rdy_o_to_ArchitectureBlockImpl$mp_fifo/GenerateStatementBlockImpl$null9/GPortImpl$enqueue_rdy_o" class="sprotty-edge thick edge" style="fill:none;stroke:rgb(112, 112, 112);stroke-linejoin:round;stroke-width:3px;"><g><path d="M 80 26.0078125 L 115 26.0078125 "/><path d="M 80 26.0078125 L 115 26.0078125 " class="clickable"/></g></g><g id="sprotty_ArchitectureBlockImpl$mp_fifo/GenerateStatementBlockImpl$null9/GenerateStatementBlockImpl$null2/GPortImpl$avail_cnt_to_ArchitectureBlockImpl$mp_fifo/GenerateStatementBlockImpl$null9/GenerateStatementBlockImpl$null2/AssignmentBlockImpl$enqueue_rdy_o/GPortImpl$avail_cntIN" class="sprotty-edge thick edge" style="fill:none;stroke:rgb(112, 112, 112);stroke-linejoin:round;stroke-width:3px;"><g><path d="M 0 26.0078125 L 15 26.0078125 "/><path d="M 0 26.0078125 L 15 26.0078125 " class="clickable"/></g></g><g id="sprotty_ArchitectureBlockImpl$mp_fifo/GenerateStatementBlockImpl$null9/GPortImpl$avail_cnt_to_ArchitectureBlockImpl$mp_fifo/GenerateStatementBlockImpl$null9/GenerateStatementBlockImpl$null2/GPortImpl$avail_cnt" class="sprotty-edge thick edge" style="fill:none;stroke:rgb(112, 112, 112);stroke-linejoin:round;stroke-width:3px;"><g><path d="M -35 26.0078125 L 0 26.0078125 "/><path d="M -35 26.0078125 L 0 26.0078125 " class="clickable"/></g></g><g id="sprotty_ArchitectureBlockImpl$mp_fifo/GenerateStatementBlockImpl$null9/GenerateStatementBlockImpl$null2/AssignmentBlockImpl$enqueue_rdy_o" class="statement" transform="translate(15, 15)"><rect x="0" y="0" rx="10" ry="5" width="20.734375" height="22.015625" class="sprotty-node" style="fill:rgb(245, 245, 245);stroke:rgb(112, 112, 112);"/><text class="clickable sprotty-label statementtype" id="sprotty_ArchitectureBlockImpl$mp_fifo/GenerateStatementBlockImpl$null9/GenerateStatementBlockImpl$null2/AssignmentBlockImpl$enqueue_rdy_o/labeltype" transform="translate(5, 5) translate(5.390625, 9.34375)" style="cursor:default;font-size:8px;font-weight:700;perspective-origin:-0.0104167px 0px;fill:rgb(112, 112, 112);text-anchor:middle;">&lt;=</text><g id="sprotty_ArchitectureBlockImpl$mp_fifo/GenerateStatementBlockImpl$null9/GenerateStatementBlockImpl$null2/AssignmentBlockImpl$enqueue_rdy_o/GPortImpl$avail_cntIN" class="sprotty-hidden hidden" transform="translate(0, 11.0078125)" style="display:block;height:0px;width:0px;"/><g id="sprotty_ArchitectureBlockImpl$mp_fifo/GenerateStatementBlockImpl$null9/GenerateStatementBlockImpl$null2/AssignmentBlockImpl$enqueue_rdy_o/GPortImpl$enqueue_rdy_oOUT" class="sprotty-hidden hidden" transform="translate(20.734375, 11.0078125)" style="display:block;height:0px;width:0px;"/></g><g id="sprotty_ArchitectureBlockImpl$mp_fifo/GenerateStatementBlockImpl$null9/GenerateStatementBlockImpl$null2/GPortImpl$avail_cnt" class="triangle" transform="translate(0, 26.0078125)"><path d="M 0,0 L 5,2.5 L 0,5 Z" transform="translate(-1.67, -2.5)" class="sprotty-port" style="fill:rgb(48, 48, 48);stroke:rgb(48, 48, 48);"/></g><g id="sprotty_ArchitectureBlockImpl$mp_fifo/GenerateStatementBlockImpl$null9/GenerateStatementBlockImpl$null2/GPortImpl$enqueue_rdy_o" class="triangle" transform="translate(80, 26.0078125)"><path d="M 0,0 L 5,2.5 L 0,5 Z" transform="translate(-1.67, -2.5)" class="sprotty-port" style="fill:rgb(48, 48, 48);stroke:rgb(48, 48, 48);"/></g></g><g id="sprotty_ArchitectureBlockImpl$mp_fifo/GenerateStatementBlockImpl$null9/AssignmentBlockImpl$enqueue_rdy_o" class="statement" transform="translate(64.6328125, 87.015625)"><rect x="0" y="0" rx="10" ry="5" width="20.734375" height="22.015625" class="sprotty-node" style="fill:rgb(245, 245, 245);stroke:rgb(112, 112, 112);"/><text class="clickable sprotty-label statementtype" id="sprotty_ArchitectureBlockImpl$mp_fifo/GenerateStatementBlockImpl$null9/AssignmentBlockImpl$enqueue_rdy_o/labeltype" transform="translate(5, 5) translate(5.390625, 9.34375)" style="cursor:default;font-size:8px;font-weight:700;perspective-origin:-0.0104167px 0px;fill:rgb(112, 112, 112);text-anchor:middle;">&lt;=</text><g id="sprotty_ArchitectureBlockImpl$mp_fifo/GenerateStatementBlockImpl$null9/AssignmentBlockImpl$enqueue_rdy_o/GPortImpl$avail_cntIN" class="sprotty-hidden hidden" transform="translate(0, 11.0078125)" style="display:block;height:0px;width:0px;"/><g id="sprotty_ArchitectureBlockImpl$mp_fifo/GenerateStatementBlockImpl$null9/AssignmentBlockImpl$enqueue_rdy_o/GPortImpl$enqueue_rdy_oOUT" class="sprotty-hidden hidden" transform="translate(20.734375, 11.0078125)" style="display:block;height:0px;width:0px;"/></g><g id="sprotty_ArchitectureBlockImpl$mp_fifo/GenerateStatementBlockImpl$null9/GPortImpl$avail_cnt" class="triangle" transform="translate(0, 41.0078125)"><path d="M 0,0 L 5,2.5 L 0,5 Z" transform="translate(-1.67, -2.5)" class="sprotty-port" style="fill:rgb(48, 48, 48);stroke:rgb(48, 48, 48);"/></g><g id="sprotty_ArchitectureBlockImpl$mp_fifo/GenerateStatementBlockImpl$null9/GPortImpl$enqueue_rdy_o" class="triangle" transform="translate(150, 41.0078125)"><path d="M 0,0 L 5,2.5 L 0,5 Z" transform="translate(-1.67, -2.5)" class="sprotty-port" style="fill:rgb(48, 48, 48);stroke:rgb(48, 48, 48);"/></g></g><g id="sprotty_ArchitectureBlockImpl$mp_fifo/GenerateStatementBlockImpl$null10" class="generate" transform="translate(569.125, 57)"><g class="sprotty-block sprotty-block-generate" style="fill:rgb(255, 255, 255);stroke:rgb(48, 48, 48);stroke-dasharray:0px;"><rect x="0" y="0" rx="1" ry="1" width="80" height="94.03125" style="stroke-dasharray:3px, 1px;"/><text x="40" y="12" class="sprotty-block-name" style="cursor:pointer;font-weight:700;fill:rgb(48, 48, 48);stroke:rgba(0, 0, 0, 0);dominant-baseline:middle;text-anchor:middle;"/></g><g id="sprotty_ArchitectureBlockImpl$mp_fifo/GenerateStatementBlockImpl$null10/AssignmentBlockImpl$dequeue_vld_o/GPortImpl$dequeue_vld_oOUT_to_ArchitectureBlockImpl$mp_fifo/GenerateStatementBlockImpl$null10/GPortImpl$dequeue_vld_o" class="sprotty-edge thick edge" style="fill:none;stroke:rgb(112, 112, 112);stroke-linejoin:round;stroke-width:3px;"><g><path d="M 35.734375 68.0234375 L 80 68.0234375 "/><path d="M 35.734375 68.0234375 L 80 68.0234375 " class="clickable"/></g></g><g id="sprotty_ArchitectureBlockImpl$mp_fifo/GenerateStatementBlockImpl$null10/AssignmentBlockImpl$dequeue_payload_o/GPortImpl$dequeue_payload_oOUT_to_ArchitectureBlockImpl$mp_fifo/GenerateStatementBlockImpl$null10/GPortImpl$dequeue_payload_o" class="sprotty-edge thick edge" style="fill:none;stroke:rgb(112, 112, 112);stroke-linejoin:round;stroke-width:3px;"><g><path d="M 35.734375 26.0078125 L 80 26.0078125 "/><path d="M 35.734375 26.0078125 L 80 26.0078125 " class="clickable"/></g></g><g id="sprotty_ArchitectureBlockImpl$mp_fifo/GenerateStatementBlockImpl$null10/GPortImpl$avail_cnt_to_ArchitectureBlockImpl$mp_fifo/GenerateStatementBlockImpl$null10/AssignmentBlockImpl$dequeue_vld_o/GPortImpl$avail_cntIN" class="sprotty-edge thick edge" style="fill:none;stroke:rgb(112, 112, 112);stroke-linejoin:round;stroke-width:3px;"><g><path d="M 0 68.0234375 L 15 68.0234375 "/><path d="M 0 68.0234375 L 15 68.0234375 " class="clickable"/></g></g><g id="sprotty_ArchitectureBlockImpl$mp_fifo/GenerateStatementBlockImpl$null10/GPortImpl$payload_dff_to_ArchitectureBlockImpl$mp_fifo/GenerateStatementBlockImpl$null10/AssignmentBlockImpl$dequeue_payload_o/GPortImpl$payload_dffIN" class="sprotty-edge thick edge" style="fill:none;stroke:rgb(112, 112, 112);stroke-linejoin:round;stroke-width:3px;"><g><path d="M 0 26.0078125 L 15 26.0078125 "/><path d="M 0 26.0078125 L 15 26.0078125 " class="clickable"/></g></g><g id="sprotty_ArchitectureBlockImpl$mp_fifo/GenerateStatementBlockImpl$null10/AssignmentBlockImpl$dequeue_vld_o" class="statement" transform="translate(15, 57.015625)"><rect x="0" y="0" rx="10" ry="5" width="20.734375" height="22.015625" class="sprotty-node" style="fill:rgb(245, 245, 245);stroke:rgb(112, 112, 112);"/><text class="clickable sprotty-label statementtype" id="sprotty_ArchitectureBlockImpl$mp_fifo/GenerateStatementBlockImpl$null10/AssignmentBlockImpl$dequeue_vld_o/labeltype" transform="translate(5, 5) translate(5.390625, 9.34375)" style="cursor:default;font-size:8px;font-weight:700;perspective-origin:-0.0104167px 0px;fill:rgb(112, 112, 112);text-anchor:middle;">&lt;=</text><g id="sprotty_ArchitectureBlockImpl$mp_fifo/GenerateStatementBlockImpl$null10/AssignmentBlockImpl$dequeue_vld_o/GPortImpl$avail_cntIN" class="sprotty-hidden hidden" transform="translate(0, 11.0078125)" style="display:block;height:0px;width:0px;"/><g id="sprotty_ArchitectureBlockImpl$mp_fifo/GenerateStatementBlockImpl$null10/AssignmentBlockImpl$dequeue_vld_o/GPortImpl$dequeue_vld_oOUT" class="sprotty-hidden hidden" transform="translate(20.734375, 11.0078125)" style="display:block;height:0px;width:0px;"/></g><g id="sprotty_ArchitectureBlockImpl$mp_fifo/GenerateStatementBlockImpl$null10/AssignmentBlockImpl$dequeue_payload_o" class="statement" transform="translate(15, 15)"><rect x="0" y="0" rx="10" ry="5" width="20.734375" height="22.015625" class="sprotty-node" style="fill:rgb(245, 245, 245);stroke:rgb(112, 112, 112);"/><text class="clickable sprotty-label statementtype" id="sprotty_ArchitectureBlockImpl$mp_fifo/GenerateStatementBlockImpl$null10/AssignmentBlockImpl$dequeue_payload_o/labeltype" transform="translate(5, 5) translate(5.390625, 9.34375)" style="cursor:default;font-size:8px;font-weight:700;perspective-origin:-0.0104167px 0px;fill:rgb(112, 112, 112);text-anchor:middle;">&lt;=</text><g id="sprotty_ArchitectureBlockImpl$mp_fifo/GenerateStatementBlockImpl$null10/AssignmentBlockImpl$dequeue_payload_o/GPortImpl$payload_dffIN" class="sprotty-hidden hidden" transform="translate(0, 11.0078125)" style="display:block;height:0px;width:0px;"/><g id="sprotty_ArchitectureBlockImpl$mp_fifo/GenerateStatementBlockImpl$null10/AssignmentBlockImpl$dequeue_payload_o/GPortImpl$dequeue_payload_oOUT" class="sprotty-hidden hidden" transform="translate(20.734375, 11.0078125)" style="display:block;height:0px;width:0px;"/></g><g id="sprotty_ArchitectureBlockImpl$mp_fifo/GenerateStatementBlockImpl$null10/GPortImpl$payload_dff" class="triangle" transform="translate(0, 26.0078125)"><path d="M 0,0 L 5,2.5 L 0,5 Z" transform="translate(-1.67, -2.5)" class="sprotty-port" style="fill:rgb(48, 48, 48);stroke:rgb(48, 48, 48);"/></g><g id="sprotty_ArchitectureBlockImpl$mp_fifo/GenerateStatementBlockImpl$null10/GPortImpl$avail_cnt" class="triangle" transform="translate(0, 68.0234375)"><path d="M 0,0 L 5,2.5 L 0,5 Z" transform="translate(-1.67, -2.5)" class="sprotty-port" style="fill:rgb(48, 48, 48);stroke:rgb(48, 48, 48);"/></g><g id="sprotty_ArchitectureBlockImpl$mp_fifo/GenerateStatementBlockImpl$null10/GPortImpl$dequeue_vld_o" class="triangle" transform="translate(80, 68.0234375)"><path d="M 0,0 L 5,2.5 L 0,5 Z" transform="translate(-1.67, -2.5)" class="sprotty-port" style="fill:rgb(48, 48, 48);stroke:rgb(48, 48, 48);"/></g><g id="sprotty_ArchitectureBlockImpl$mp_fifo/GenerateStatementBlockImpl$null10/GPortImpl$dequeue_payload_o" class="triangle" transform="translate(80, 26.0078125)"><path d="M 0,0 L 5,2.5 L 0,5 Z" transform="translate(-1.67, -2.5)" class="sprotty-port" style="fill:rgb(48, 48, 48);stroke:rgb(48, 48, 48);"/></g></g><g id="sprotty_ArchitectureBlockImpl$mp_fifo/AlwaysBlockImpl$payload_dff_update" class="statement" transform="translate(253.35546875, 59.9921875)"><rect x="0" y="0" rx="10" ry="5" width="169" height="46.03125" class="sprotty-node" style="fill:rgb(245, 245, 245);stroke:rgb(112, 112, 112);"/><text class="clickable sprotty-label statementtext" id="sprotty_ArchitectureBlockImpl$mp_fifo/AlwaysBlockImpl$payload_dff_update/labeltext" transform="translate(5, 5) translate(79.484375, 18.671875)" style="cursor:default;font-weight:700;perspective-origin:0.0104167px 0px;fill:rgb(112, 112, 112);text-anchor:middle;">payload_dff_update</text><text class="clickable sprotty-label statementtype" id="sprotty_ArchitectureBlockImpl$mp_fifo/AlwaysBlockImpl$payload_dff_update/labeltype" transform="translate(64.890625, 29.015625) translate(19.484375, 9.34375)" style="cursor:default;font-size:8px;font-weight:700;perspective-origin:0.0833333px 0px;fill:rgb(112, 112, 112);text-anchor:middle;">always_ff</text><g id="sprotty_ArchitectureBlockImpl$mp_fifo/AlwaysBlockImpl$payload_dff_update/GPortImpl$enqueue_payload_iIN" class="sprotty-hidden hidden" transform="translate(0, 11.5078125)" style="display:block;height:0px;width:0px;"/><g id="sprotty_ArchitectureBlockImpl$mp_fifo/AlwaysBlockImpl$payload_dff_update/GPortImpl$enq_fireIN" class="sprotty-hidden hidden" transform="translate(0, 34.5234375)" style="display:block;height:0px;width:0px;"/><g id="sprotty_ArchitectureBlockImpl$mp_fifo/AlwaysBlockImpl$payload_dff_update/GPortImpl$clkIN" class="sprotty-hidden hidden" transform="translate(0, 23.015625)" style="display:block;height:0px;width:0px;"/><g id="sprotty_ArchitectureBlockImpl$mp_fifo/AlwaysBlockImpl$payload_dff_update/GPortImpl$payload_dffOUT" class="sprotty-hidden hidden" transform="translate(169, 23.015625)" style="display:block;height:0px;width:0px;"/></g><g id="sprotty_ArchitectureBlockImpl$mp_fifo/AssignmentBlockImpl$deq_fire" class="statement" transform="translate(152.03125, 177.0234375)"><rect x="0" y="0" rx="10" ry="5" width="20.734375" height="30" class="sprotty-node" style="fill:rgb(245, 245, 245);stroke:rgb(112, 112, 112);"/><text class="clickable sprotty-label statementtype" id="sprotty_ArchitectureBlockImpl$mp_fifo/AssignmentBlockImpl$deq_fire/labeltype" transform="translate(5, 8.9921875) translate(5.390625, 9.34375)" style="cursor:default;font-size:8px;font-weight:700;perspective-origin:-0.0104167px 0px;fill:rgb(112, 112, 112);text-anchor:middle;">&lt;=</text><g id="sprotty_ArchitectureBlockImpl$mp_fifo/AssignmentBlockImpl$deq_fire/GPortImpl$dequeue_rdy_iIN" class="sprotty-hidden hidden" transform="translate(0, 20)" style="display:block;height:0px;width:0px;"/><g id="sprotty_ArchitectureBlockImpl$mp_fifo/AssignmentBlockImpl$deq_fire/GPortImpl$dequeue_vld_oIN" class="sprotty-hidden hidden" transform="translate(0, 10)" style="display:block;height:0px;width:0px;"/><g id="sprotty_ArchitectureBlockImpl$mp_fifo/AssignmentBlockImpl$deq_fire/GPortImpl$deq_fireOUT" class="sprotty-hidden hidden" transform="translate(20.734375, 15)" style="display:block;height:0px;width:0px;"/></g><g id="sprotty_ArchitectureBlockImpl$mp_fifo/AssignmentBlockImpl$enq_fire" class="statement" transform="translate(152.03125, 255.0234375)"><rect x="0" y="0" rx="10" ry="5" width="20.734375" height="30" class="sprotty-node" style="fill:rgb(245, 245, 245);stroke:rgb(112, 112, 112);"/><text class="clickable sprotty-label statementtype" id="sprotty_ArchitectureBlockImpl$mp_fifo/AssignmentBlockImpl$enq_fire/labeltype" transform="translate(5, 8.9921875) translate(5.390625, 9.34375)" style="cursor:default;font-size:8px;font-weight:700;perspective-origin:-0.0104167px 0px;fill:rgb(112, 112, 112);text-anchor:middle;">&lt;=</text><g id="sprotty_ArchitectureBlockImpl$mp_fifo/AssignmentBlockImpl$enq_fire/GPortImpl$enqueue_rdy_oIN" class="sprotty-hidden hidden" transform="translate(0, 20)" style="display:block;height:0px;width:0px;"/><g id="sprotty_ArchitectureBlockImpl$mp_fifo/AssignmentBlockImpl$enq_fire/GPortImpl$enqueue_vld_iIN" class="sprotty-hidden hidden" transform="translate(0, 10)" style="display:block;height:0px;width:0px;"/><g id="sprotty_ArchitectureBlockImpl$mp_fifo/AssignmentBlockImpl$enq_fire/GPortImpl$enqueue_rdy_oOUT" class="sprotty-hidden hidden" transform="translate(20.734375, 15)" style="display:block;height:0px;width:0px;"/></g><g id="sprotty_ArchitectureBlockImpl$mp_fifo/InstantiationBlockImpl$u_usage_manager" class="instantiation" transform="translate(222.765625, 126.0234375)"><g class="sprotty-block" style="fill:rgb(255, 255, 255);stroke:rgb(48, 48, 48);stroke-dasharray:0px;"><rect x="0" y="0" rx="1" ry="1" width="291.359375" height="168"/><text x="145.6796875" y="12" class="sprotty-block-name" style="cursor:pointer;font-weight:700;perspective-origin:97.4583px 0px;fill:rgb(48, 48, 48);stroke:rgba(0, 0, 0, 0);dominant-baseline:middle;text-anchor:middle;">u_usage_manager : usage_manager</text><line x1="0" y1="20" x2="291.359375" y2="20"/></g><g id="sprotty_ArchitectureBlockImpl$mp_fifo/InstantiationBlockImpl$u_usage_manager/BPortImpl$rst" class="triangle" transform="translate(0, 150)"><path d="M 0,0 L 5,2.5 L 0,5 Z" transform="translate(-1.67, -2.5)" class="sprotty-port" style="fill:rgb(48, 48, 48);stroke:rgb(48, 48, 48);"/><text class="clickable sprotty-label port" id="sprotty_ArchitectureBlockImpl$mp_fifo/InstantiationBlockImpl$u_usage_manager/BPortImpl$rst/label" transform="translate(6, -9) translate(7.25, 14)" style="cursor:default;font-size:12px;perspective-origin:0.270833px 0px;fill:rgb(48, 48, 48);text-anchor:middle;">rst</text></g><g id="sprotty_ArchitectureBlockImpl$mp_fifo/InstantiationBlockImpl$u_usage_manager/BPortImpl$clk" class="triangle" transform="translate(0, 122)"><path d="M 0,0 L 5,2.5 L 0,5 Z" transform="translate(-1.67, -2.5)" class="sprotty-port" style="fill:rgb(48, 48, 48);stroke:rgb(48, 48, 48);"/><text class="clickable sprotty-label port" id="sprotty_ArchitectureBlockImpl$mp_fifo/InstantiationBlockImpl$u_usage_manager/BPortImpl$clk/label" transform="translate(6, -9) translate(8.078125, 14)" style="cursor:default;font-size:12px;perspective-origin:0.239583px 0px;fill:rgb(48, 48, 48);text-anchor:middle;">clk</text></g><g id="sprotty_ArchitectureBlockImpl$mp_fifo/InstantiationBlockImpl$u_usage_manager/BPortImpl$flush_i" class="triangle" transform="translate(0, 94)"><path d="M 0,0 L 5,2.5 L 0,5 Z" transform="translate(-1.67, -2.5)" class="sprotty-port" style="fill:rgb(48, 48, 48);stroke:rgb(48, 48, 48);"/><text class="clickable sprotty-label port" id="sprotty_ArchitectureBlockImpl$mp_fifo/InstantiationBlockImpl$u_usage_manager/BPortImpl$flush_i/label" transform="translate(6, -9) translate(19.4375, 14)" style="cursor:default;font-size:12px;perspective-origin:-0.208333px 0px;fill:rgb(48, 48, 48);text-anchor:middle;">flush_i</text></g><g id="sprotty_ArchitectureBlockImpl$mp_fifo/InstantiationBlockImpl$u_usage_manager/BPortImpl$deq_fire_i" class="triangle" transform="translate(0, 66)"><path d="M 0,0 L 5,2.5 L 0,5 Z" transform="translate(-1.67, -2.5)" class="sprotty-port" style="fill:rgb(48, 48, 48);stroke:rgb(48, 48, 48);"/><text class="clickable sprotty-label port" id="sprotty_ArchitectureBlockImpl$mp_fifo/InstantiationBlockImpl$u_usage_manager/BPortImpl$deq_fire_i/label" transform="translate(6, -9) translate(28.4375, 14)" style="cursor:default;font-size:12px;perspective-origin:0.0104167px 0px;fill:rgb(48, 48, 48);text-anchor:middle;">deq_fire_i</text></g><g id="sprotty_ArchitectureBlockImpl$mp_fifo/InstantiationBlockImpl$u_usage_manager/BPortImpl$enq_fire_i" class="triangle" transform="translate(0, 38)"><path d="M 0,0 L 5,2.5 L 0,5 Z" transform="translate(-1.67, -2.5)" class="sprotty-port" style="fill:rgb(48, 48, 48);stroke:rgb(48, 48, 48);"/><text class="clickable sprotty-label port" id="sprotty_ArchitectureBlockImpl$mp_fifo/InstantiationBlockImpl$u_usage_manager/BPortImpl$enq_fire_i/label" transform="translate(6, -9) translate(28.375, 14)" style="cursor:default;font-size:12px;perspective-origin:0.0104167px 0px;fill:rgb(48, 48, 48);text-anchor:middle;">enq_fire_i</text></g><g id="sprotty_ArchitectureBlockImpl$mp_fifo/InstantiationBlockImpl$u_usage_manager/BPortImpl$head_o" class="triangle" transform="translate(291.359375, 38)"><path d="M 0,0 L 5,2.5 L 0,5 Z" transform="translate(-1.67, -2.5)" class="sprotty-port" style="fill:rgb(48, 48, 48);stroke:rgb(48, 48, 48);"/><text class="clickable sprotty-label port" id="sprotty_ArchitectureBlockImpl$mp_fifo/InstantiationBlockImpl$u_usage_manager/BPortImpl$head_o/label" transform="translate(-48, -9) translate(20.96875, 14)" style="cursor:default;font-size:12px;perspective-origin:0.0208333px 0px;fill:rgb(48, 48, 48);text-anchor:middle;">head_o</text></g><g id="sprotty_ArchitectureBlockImpl$mp_fifo/InstantiationBlockImpl$u_usage_manager/BPortImpl$tail_o" class="triangle" transform="translate(291.359375, 94)"><path d="M 0,0 L 5,2.5 L 0,5 Z" transform="translate(-1.67, -2.5)" class="sprotty-port" style="fill:rgb(48, 48, 48);stroke:rgb(48, 48, 48);"/><text class="clickable sprotty-label port" id="sprotty_ArchitectureBlockImpl$mp_fifo/InstantiationBlockImpl$u_usage_manager/BPortImpl$tail_o/label" transform="translate(-38.453125, -9) translate(16.53125, 14)" style="cursor:default;font-size:12px;perspective-origin:-0.197917px 0px;fill:rgb(48, 48, 48);text-anchor:middle;">tail_o</text></g><g id="sprotty_ArchitectureBlockImpl$mp_fifo/InstantiationBlockImpl$u_usage_manager/BPortImpl$avail_cnt_o" class="triangle" transform="translate(291.359375, 150)"><path d="M 0,0 L 5,2.5 L 0,5 Z" transform="translate(-1.67, -2.5)" class="sprotty-port" style="fill:rgb(48, 48, 48);stroke:rgb(48, 48, 48);"/><text class="clickable sprotty-label port" id="sprotty_ArchitectureBlockImpl$mp_fifo/InstantiationBlockImpl$u_usage_manager/BPortImpl$avail_cnt_o/label" transform="translate(-70.96875, -9) translate(32.453125, 14)" style="cursor:default;font-size:12px;perspective-origin:0.0208333px 0px;fill:rgb(48, 48, 48);text-anchor:middle;">avail_cnt_o</text></g></g><g id="sprotty_ArchitectureBlockImpl$mp_fifo/BPortImpl$rst" class="triangle" transform="translate(0, 412.046875)"><path d="M 0,0 L 5,2.5 L 0,5 Z" transform="translate(-1.67, -2.5)" class="sprotty-port" style="fill:rgb(48, 48, 48);stroke:rgb(48, 48, 48);"/><text class="clickable sprotty-label port" id="sprotty_ArchitectureBlockImpl$mp_fifo/BPortImpl$rst/label" transform="translate(6, 6) translate(7.25, 14)" style="cursor:default;font-size:12px;perspective-origin:0.270833px 0px;fill:rgb(48, 48, 48);text-anchor:middle;">rst</text></g><g id="sprotty_ArchitectureBlockImpl$mp_fifo/BPortImpl$clk" class="triangle" transform="translate(0, 231.0234375)"><path d="M 0,0 L 5,2.5 L 0,5 Z" transform="translate(-1.67, -2.5)" class="sprotty-port" style="fill:rgb(48, 48, 48);stroke:rgb(48, 48, 48);"/><text class="clickable sprotty-label port" id="sprotty_ArchitectureBlockImpl$mp_fifo/BPortImpl$clk/label" transform="translate(6, 6) translate(8.078125, 14)" style="cursor:default;font-size:12px;perspective-origin:0.239583px 0px;fill:rgb(48, 48, 48);text-anchor:middle;">clk</text></g><g id="sprotty_ArchitectureBlockImpl$mp_fifo/BPortImpl$flush_i" class="triangle" transform="translate(0, 378.046875)"><path d="M 0,0 L 5,2.5 L 0,5 Z" transform="translate(-1.67, -2.5)" class="sprotty-port" style="fill:rgb(48, 48, 48);stroke:rgb(48, 48, 48);"/><text class="clickable sprotty-label port" id="sprotty_ArchitectureBlockImpl$mp_fifo/BPortImpl$flush_i/label" transform="translate(6, 6) translate(19.4375, 14)" style="cursor:default;font-size:12px;perspective-origin:-0.208333px 0px;fill:rgb(48, 48, 48);text-anchor:middle;">flush_i</text></g><g id="sprotty_ArchitectureBlockImpl$mp_fifo/BPortImpl$dequeue_rdy_i" class="triangle" transform="translate(0, 197.0234375)"><path d="M 0,0 L 5,2.5 L 0,5 Z" transform="translate(-1.67, -2.5)" class="sprotty-port" style="fill:rgb(48, 48, 48);stroke:rgb(48, 48, 48);"/><text class="clickable sprotty-label port" id="sprotty_ArchitectureBlockImpl$mp_fifo/BPortImpl$dequeue_rdy_i/label" transform="translate(6, 6) translate(42.171875, 14)" style="cursor:default;font-size:12px;perspective-origin:0.0104167px 0px;fill:rgb(48, 48, 48);text-anchor:middle;">dequeue_rdy_i</text></g><g id="sprotty_ArchitectureBlockImpl$mp_fifo/BPortImpl$enqueue_payload_i" class="triangle" transform="translate(0, 36)"><path d="M 0,0 L 5,2.5 L 0,5 Z" transform="translate(-1.67, -2.5)" class="sprotty-port" style="fill:rgb(48, 48, 48);stroke:rgb(48, 48, 48);"/><text class="clickable sprotty-label port" id="sprotty_ArchitectureBlockImpl$mp_fifo/BPortImpl$enqueue_payload_i/label" transform="translate(6, 6) translate(55.5, 14)" style="cursor:default;font-size:12px;perspective-origin:0.0104167px 0px;fill:rgb(48, 48, 48);text-anchor:middle;">enqueue_payload_i</text></g><g id="sprotty_ArchitectureBlockImpl$mp_fifo/BPortImpl$enqueue_vld_i" class="triangle" transform="translate(0, 265.0234375)"><path d="M 0,0 L 5,2.5 L 0,5 Z" transform="translate(-1.67, -2.5)" class="sprotty-port" style="fill:rgb(48, 48, 48);stroke:rgb(48, 48, 48);"/><text class="clickable sprotty-label port" id="sprotty_ArchitectureBlockImpl$mp_fifo/BPortImpl$enqueue_vld_i/label" transform="translate(6, 6) translate(41.5625, 14)" style="cursor:default;font-size:12px;perspective-origin:0.0104167px 0px;fill:rgb(48, 48, 48);text-anchor:middle;">enqueue_vld_i</text></g><g id="sprotty_ArchitectureBlockImpl$mp_fifo/BPortImpl$enqueue_rdy_o" class="triangle" transform="translate(840.25, 276.0234375)"><path d="M 0,0 L 5,2.5 L 0,5 Z" transform="translate(-1.67, -2.5)" class="sprotty-port" style="fill:rgb(48, 48, 48);stroke:rgb(48, 48, 48);"/><text class="clickable sprotty-label port" id="sprotty_ArchitectureBlockImpl$mp_fifo/BPortImpl$enqueue_rdy_o/label" transform="translate(-94.265625, 6) translate(44.109375, 14)" style="cursor:default;font-size:12px;perspective-origin:0.0104167px 0px;fill:rgb(48, 48, 48);text-anchor:middle;">enqueue_rdy_o</text></g><g id="sprotty_ArchitectureBlockImpl$mp_fifo/BPortImpl$dequeue_vld_o" class="triangle" transform="translate(840.25, 45)"><path d="M 0,0 L 5,2.5 L 0,5 Z" transform="translate(-1.67, -2.5)" class="sprotty-port" style="fill:rgb(48, 48, 48);stroke:rgb(48, 48, 48);"/><text class="clickable sprotty-label port" id="sprotty_ArchitectureBlockImpl$mp_fifo/BPortImpl$dequeue_vld_o/label" transform="translate(-93.28125, 6) translate(43.609375, 14)" style="cursor:default;font-size:12px;perspective-origin:0.0208333px 0px;fill:rgb(48, 48, 48);text-anchor:middle;">dequeue_vld_o</text></g><g id="sprotty_ArchitectureBlockImpl$mp_fifo/BPortImpl$dequeue_payload_o" class="triangle" transform="translate(840.25, 83.0078125)"><path d="M 0,0 L 5,2.5 L 0,5 Z" transform="translate(-1.67, -2.5)" class="sprotty-port" style="fill:rgb(48, 48, 48);stroke:rgb(48, 48, 48);"/><text class="clickable sprotty-label port" id="sprotty_ArchitectureBlockImpl$mp_fifo/BPortImpl$dequeue_payload_o/label" transform="translate(-121.125, 6) translate(57.53125, 14)" style="cursor:default;font-size:12px;perspective-origin:0.0208333px 0px;fill:rgb(48, 48, 48);text-anchor:middle;">dequeue_payload_o</text></g></g></g></svg>