<svg xmlns="http://www.w3.org/2000/svg" id="sprotty_work.rrv64_generic_ram" class="sprotty-graph sprotty-block-diagram blockdiagram" style="font-family:&quot;Noto Sans&quot;, Helvetica, Arial, sans-serif;-webkit-locale:&quot;en&quot;;perspective-origin:0px 0px;transform-origin:0px 0px;" version="1.1" viewBox="7 7 504.03125 482" width="504.03125" height="482"><g transform="scale(1) translate(0,0)"><g id="sprotty_ArchitectureBlockImpl$rrv64_generic_ram" class="architecture" transform="translate(12, 12)"><g class="sprotty-block" style="fill:rgb(255, 255, 255);stroke:rgb(48, 48, 48);stroke-dasharray:0px;"><rect x="0" y="0" rx="1" ry="1" width="494.03125" height="472"/><text x="247.015625" y="12" class="sprotty-block-name" style="cursor:pointer;font-weight:700;perspective-origin:164.677px 0px;fill:rgb(48, 48, 48);stroke:rgba(0, 0, 0, 0);dominant-baseline:middle;text-anchor:middle;">rrv64_generic_ram</text><line x1="0" y1="20" x2="494.03125" y2="20"/></g><g id="sprotty_ArchitectureBlockImpl$rrv64_generic_ram/AlwaysBlockImpl$null9/GPortImpl$addr_iOUT_to_ArchitectureBlockImpl$rrv64_generic_ram/BPortImpl$addr_i" class="sprotty-edge thick edge" style="fill:none;stroke:rgb(112, 112, 112);stroke-linejoin:round;stroke-width:3px;"><g><path d="M 296.8125 130.33333333333334 L 304.8125 130.33333333333334 C 305.8125 130.33333333333334 306.8125 129.33333333333334 306.8125 128.33333333333334 L 306.8125 90 C 306.8125 89 305.8125 88 304.8125 88 L 89.359375 88 C 88.359375 88 87.359375 89 87.359375 90 L 87.359375 291 C 87.359375 292 86.359375 293 85.359375 293 L 0 293 "/><path d="M 296.8125 130.33333333333334 L 304.8125 130.33333333333334 C 305.8125 130.33333333333334 306.8125 129.33333333333334 306.8125 128.33333333333334 L 306.8125 90 C 306.8125 89 305.8125 88 304.8125 88 L 89.359375 88 C 88.359375 88 87.359375 89 87.359375 90 L 87.359375 291 C 87.359375 292 86.359375 293 85.359375 293 L 0 293 " class="clickable"/></g><circle r="3" id="sprotty_ArchitectureBlockImpl$rrv64_generic_ram/AlwaysBlockImpl$null9/GPortImpl$addr_iOUT_to_ArchitectureBlockImpl$rrv64_generic_ram/BPortImpl$addr_i/junction0" transform="translate(87.359375, 293)" class="sprotty-junction thick" style="fill:rgb(112, 112, 112);stroke:none;"/></g><g id="sprotty_ArchitectureBlockImpl$rrv64_generic_ram/AssignmentBlockImpl$rd_o/GPortImpl$rd_oOUT_to_ArchitectureBlockImpl$rrv64_generic_ram/BPortImpl$rd_o" class="sprotty-edge thick edge" style="fill:none;stroke:rgb(112, 112, 112);stroke-linejoin:round;stroke-width:3px;"><g><path d="M 447 63 L 494.03125 63 "/><path d="M 447 63 L 494.03125 63 " class="clickable"/></g></g><g id="sprotty_ArchitectureBlockImpl$rrv64_generic_ram/BPortImpl$cs_i_to_ArchitectureBlockImpl$rrv64_generic_ram/AssignmentBlockImpl$read_cycle/GPortImpl$cs_iIN" class="sprotty-edge edge" style="fill:none;stroke:rgb(112, 112, 112);stroke-linejoin:round;"><g><path d="M 0 132 L 75.359375 132 C 76.359375 132 77.359375 131 77.359375 130 L 77.359375 60 C 77.359375 59 78.359375 58 79.359375 58 L 264.08854166666663 58 "/><path d="M 0 132 L 75.359375 132 C 76.359375 132 77.359375 131 77.359375 130 L 77.359375 60 C 77.359375 59 78.359375 58 79.359375 58 L 264.08854166666663 58 " class="clickable"/></g><circle r="2" id="sprotty_ArchitectureBlockImpl$rrv64_generic_ram/BPortImpl$cs_i_to_ArchitectureBlockImpl$rrv64_generic_ram/AssignmentBlockImpl$read_cycle/GPortImpl$cs_iIN/junction0" transform="translate(77.359375, 132)" class="sprotty-junction junction" style="fill:rgb(112, 112, 112);stroke:none;"/></g><g id="sprotty_ArchitectureBlockImpl$rrv64_generic_ram/BPortImpl$we_i_to_ArchitectureBlockImpl$rrv64_generic_ram/AssignmentBlockImpl$read_cycle/GPortImpl$we_iIN" class="sprotty-edge thick edge" style="fill:none;stroke:rgb(112, 112, 112);stroke-linejoin:round;stroke-width:3px;"><g><path d="M 0 209 L 95.359375 209 C 96.359375 209 97.359375 208 97.359375 207 L 97.359375 70 C 97.359375 69 98.359375 68 99.359375 68 L 264.08854166666663 68 "/><path d="M 0 209 L 95.359375 209 C 96.359375 209 97.359375 208 97.359375 207 L 97.359375 70 C 97.359375 69 98.359375 68 99.359375 68 L 264.08854166666663 68 " class="clickable"/></g><circle r="3" id="sprotty_ArchitectureBlockImpl$rrv64_generic_ram/BPortImpl$we_i_to_ArchitectureBlockImpl$rrv64_generic_ram/AssignmentBlockImpl$read_cycle/GPortImpl$we_iIN/junction0" transform="translate(97.359375, 209)" class="sprotty-junction thick" style="fill:rgb(112, 112, 112);stroke:none;"/></g><g id="sprotty_ArchitectureBlockImpl$rrv64_generic_ram/BPortImpl$cs_i_to_ArchitectureBlockImpl$rrv64_generic_ram/AssignmentBlockImpl$write_cycle/GPortImpl$cs_iIN" class="sprotty-edge edge" style="fill:none;stroke:rgb(112, 112, 112);stroke-linejoin:round;"><g><path d="M 0 132 L 217.359375 132 "/><path d="M 0 132 L 217.359375 132 " class="clickable"/></g></g><g id="sprotty_ArchitectureBlockImpl$rrv64_generic_ram/BPortImpl$we_i_to_ArchitectureBlockImpl$rrv64_generic_ram/AssignmentBlockImpl$write_cycle/GPortImpl$we_iIN" class="sprotty-edge thick edge" style="fill:none;stroke:rgb(112, 112, 112);stroke-linejoin:round;stroke-width:3px;"><g><path d="M 0 209 L 95.359375 209 C 96.359375 209 97.359375 208 97.359375 207 L 97.359375 144 C 97.359375 143 98.359375 142 99.359375 142 L 217.359375 142 "/><path d="M 0 209 L 95.359375 209 C 96.359375 209 97.359375 208 97.359375 207 L 97.359375 144 C 97.359375 143 98.359375 142 99.359375 142 L 217.359375 142 " class="clickable"/></g><circle r="3" id="sprotty_ArchitectureBlockImpl$rrv64_generic_ram/BPortImpl$we_i_to_ArchitectureBlockImpl$rrv64_generic_ram/AssignmentBlockImpl$write_cycle/GPortImpl$we_iIN/junction0" transform="translate(97.359375, 142)" class="sprotty-junction thick" style="fill:rgb(112, 112, 112);stroke:none;"/></g><g id="sprotty_ArchitectureBlockImpl$rrv64_generic_ram/BPortImpl$addr_i_to_ArchitectureBlockImpl$rrv64_generic_ram/AssignmentBlockImpl$nxt_data/GPortImpl$addr_iIN" class="sprotty-edge thick edge" style="fill:none;stroke:rgb(112, 112, 112);stroke-linejoin:round;stroke-width:3px;"><g><path d="M 0 293 L 195.359375 293 C 196.359375 293 197.359375 292 197.359375 291 L 197.359375 257 C 197.359375 256 198.359375 255 199.359375 255 L 217.359375 255 "/><path d="M 0 293 L 195.359375 293 C 196.359375 293 197.359375 292 197.359375 291 L 197.359375 257 C 197.359375 256 198.359375 255 199.359375 255 L 217.359375 255 " class="clickable"/></g><circle r="3" id="sprotty_ArchitectureBlockImpl$rrv64_generic_ram/BPortImpl$addr_i_to_ArchitectureBlockImpl$rrv64_generic_ram/AssignmentBlockImpl$nxt_data/GPortImpl$addr_iIN/junction0" transform="translate(197.359375, 293)" class="sprotty-junction thick" style="fill:rgb(112, 112, 112);stroke:none;"/></g><g id="sprotty_ArchitectureBlockImpl$rrv64_generic_ram/BPortImpl$wd_i_to_ArchitectureBlockImpl$rrv64_generic_ram/AssignmentBlockImpl$nxt_data/GPortImpl$wd_iIN" class="sprotty-edge thick edge" style="fill:none;stroke:rgb(112, 112, 112);stroke-linejoin:round;stroke-width:3px;"><g><path d="M 0 245 L 217.359375 245 "/><path d="M 0 245 L 217.359375 245 " class="clickable"/></g></g><g id="sprotty_ArchitectureBlockImpl$rrv64_generic_ram/BPortImpl$addr_i_to_ArchitectureBlockImpl$rrv64_generic_ram/AssignmentBlockImpl$rdata_nxt/GPortImpl$addr_iIN" class="sprotty-edge thick edge" style="fill:none;stroke:rgb(112, 112, 112);stroke-linejoin:round;stroke-width:3px;"><g><path d="M 0 293 L 314.8125 293 C 315.8125 293 316.8125 292 316.8125 291 L 316.8125 155.66666666666666 C 316.8125 154.66666666666666 317.8125 153.66666666666666 318.8125 153.66666666666666 L 326.8125 153.66666666666666 "/><path d="M 0 293 L 314.8125 293 C 315.8125 293 316.8125 292 316.8125 291 L 316.8125 155.66666666666666 C 316.8125 154.66666666666666 317.8125 153.66666666666666 318.8125 153.66666666666666 L 326.8125 153.66666666666666 " class="clickable"/></g></g><g id="sprotty_ArchitectureBlockImpl$rrv64_generic_ram/BPortImpl$clk_to_ArchitectureBlockImpl$rrv64_generic_ram/AlwaysBlockImpl$null9/GPortImpl$clkIN" class="sprotty-edge edge" style="fill:none;stroke:rgb(112, 112, 112);stroke-linejoin:round;"><g><path d="M 0 98 L 246.09375 98 C 247.09375 98 248.09375 99 248.09375 100 L 248.09375 125 C 248.09375 126 249.09375 127 250.09375 127 L 258.09375 127 "/><path d="M 0 98 L 246.09375 98 C 247.09375 98 248.09375 99 248.09375 100 L 248.09375 125 C 248.09375 126 249.09375 127 250.09375 127 L 258.09375 127 " class="clickable"/></g></g><g id="sprotty_ArchitectureBlockImpl$rrv64_generic_ram/AssignmentBlockImpl$nxt_data/GPortImpl$nxt_dataOUT_to_ArchitectureBlockImpl$rrv64_generic_ram/AlwaysBlockImpl$null9/GPortImpl$nxt_dataIN" class="sprotty-edge thick edge" style="fill:none;stroke:rgb(112, 112, 112);stroke-linejoin:round;stroke-width:3px;"><g><path d="M 238.09375 250 L 246.09375 250 C 247.09375 250 248.09375 249 248.09375 248 L 248.09375 149 C 248.09375 148 249.09375 147 250.09375 147 L 258.09375 147 "/><path d="M 238.09375 250 L 246.09375 250 C 247.09375 250 248.09375 249 248.09375 248 L 248.09375 149 C 248.09375 148 249.09375 147 250.09375 147 L 258.09375 147 " class="clickable"/></g></g><g id="sprotty_ArchitectureBlockImpl$rrv64_generic_ram/BPortImpl$clk_to_ArchitectureBlockImpl$rrv64_generic_ram/AlwaysBlockImpl$null8/GPortImpl$clkIN" class="sprotty-edge edge" style="fill:none;stroke:rgb(112, 112, 112);stroke-linejoin:round;"><g><path d="M 0 98 L 65.359375 98 C 66.359375 98 67.359375 97 67.359375 96 L 67.359375 38 C 67.359375 37 68.359375 36 69.359375 36 L 355.546875 36 C 356.546875 36 357.546875 37 357.546875 38 L 357.546875 51 C 357.546875 52 358.546875 53 359.546875 53 L 367.546875 53 "/><path d="M 0 98 L 65.359375 98 C 66.359375 98 67.359375 97 67.359375 96 L 67.359375 38 C 67.359375 37 68.359375 36 69.359375 36 L 355.546875 36 C 356.546875 36 357.546875 37 357.546875 38 L 357.546875 51 C 357.546875 52 358.546875 53 359.546875 53 L 367.546875 53 " class="clickable"/></g><circle r="2" id="sprotty_ArchitectureBlockImpl$rrv64_generic_ram/BPortImpl$clk_to_ArchitectureBlockImpl$rrv64_generic_ram/AlwaysBlockImpl$null8/GPortImpl$clkIN/junction0" transform="translate(67.359375, 98)" class="sprotty-junction junction" style="fill:rgb(112, 112, 112);stroke:none;"/></g><g id="sprotty_ArchitectureBlockImpl$rrv64_generic_ram/AssignmentBlockImpl$rdata_nxt/GPortImpl$rdata_nxtOUT_to_ArchitectureBlockImpl$rrv64_generic_ram/AlwaysBlockImpl$null8/GPortImpl$rdata_nxtIN" class="sprotty-edge thick edge" style="fill:none;stroke:rgb(112, 112, 112);stroke-linejoin:round;stroke-width:3px;"><g><path d="M 347.546875 143.66666666666666 L 355.546875 143.66666666666666 C 356.546875 143.66666666666666 357.546875 142.66666666666666 357.546875 141.66666666666666 L 357.546875 75 C 357.546875 74 358.546875 73 359.546875 73 L 367.546875 73 "/><path d="M 347.546875 143.66666666666666 L 355.546875 143.66666666666666 C 356.546875 143.66666666666666 357.546875 142.66666666666666 357.546875 141.66666666666666 L 357.546875 75 C 357.546875 74 358.546875 73 359.546875 73 L 367.546875 73 " class="clickable"/></g></g><g id="sprotty_ArchitectureBlockImpl$rrv64_generic_ram/BPortImpl$cs_i_to_ArchitectureBlockImpl$rrv64_generic_ram/GenerateStatementBlockImpl$g_we/GPortImpl$cs_i" class="sprotty-edge edge" style="fill:none;stroke:rgb(112, 112, 112);stroke-linejoin:round;"><g><path d="M 0 132 L 75.359375 132 C 76.359375 132 77.359375 133 77.359375 134 L 77.359375 197 C 77.359375 198 78.359375 199 79.359375 199 L 107.359375 199 "/><path d="M 0 132 L 75.359375 132 C 76.359375 132 77.359375 133 77.359375 134 L 77.359375 197 C 77.359375 198 78.359375 199 79.359375 199 L 107.359375 199 " class="clickable"/></g></g><g id="sprotty_ArchitectureBlockImpl$rrv64_generic_ram/BPortImpl$we_i_to_ArchitectureBlockImpl$rrv64_generic_ram/GenerateStatementBlockImpl$g_we/GPortImpl$we_i" class="sprotty-edge thick edge" style="fill:none;stroke:rgb(112, 112, 112);stroke-linejoin:round;stroke-width:3px;"><g><path d="M 0 209 L 107.359375 209 "/><path d="M 0 209 L 107.359375 209 " class="clickable"/></g></g><g id="sprotty_ArchitectureBlockImpl$rrv64_generic_ram/AlwaysBlockImpl$null8/GPortImpl$rdata_regOUT_to_ArchitectureBlockImpl$rrv64_generic_ram/AssignmentBlockImpl$rd_o/GPortImpl$rdata_regIN" class="sprotty-edge thick edge" style="fill:none;stroke:rgb(112, 112, 112);stroke-linejoin:round;stroke-width:3px;"><g><path d="M 406.265625 63 L 426.265625 63 "/><path d="M 406.265625 63 L 426.265625 63 " class="clickable"/></g></g><g id="sprotty_ArchitectureBlockImpl$rrv64_generic_ram/AlwaysBlockImpl$null9/GPortImpl$memOUT_to_ArchitectureBlockImpl$rrv64_generic_ram/AssignmentBlockImpl$nxt_data/GPortImpl$memIN" class="sprotty-edge thick edge" style="fill:none;stroke:rgb(112, 112, 112);stroke-linejoin:round;stroke-width:3px;"><g><path d="M 296.8125 143.66666666666666 L 304.8125 143.66666666666666 C 305.8125 143.66666666666666 306.8125 144.66666666666666 306.8125 145.66666666666666 L 306.8125 283 C 306.8125 284 305.8125 285 304.8125 285 L 209.359375 285 C 208.359375 285 207.359375 284 207.359375 283 L 207.359375 267 C 207.359375 266 208.359375 265 209.359375 265 L 217.359375 265 "/><path d="M 296.8125 143.66666666666666 L 304.8125 143.66666666666666 C 305.8125 143.66666666666666 306.8125 144.66666666666666 306.8125 145.66666666666666 L 306.8125 283 C 306.8125 284 305.8125 285 304.8125 285 L 209.359375 285 C 208.359375 285 207.359375 284 207.359375 283 L 207.359375 267 C 207.359375 266 208.359375 265 209.359375 265 L 217.359375 265 " class="clickable"/></g><circle r="3" id="sprotty_ArchitectureBlockImpl$rrv64_generic_ram/AlwaysBlockImpl$null9/GPortImpl$memOUT_to_ArchitectureBlockImpl$rrv64_generic_ram/AssignmentBlockImpl$nxt_data/GPortImpl$memIN/junction0" transform="translate(306.8125, 143.66666666666666)" class="sprotty-junction thick" style="fill:rgb(112, 112, 112);stroke:none;"/></g><g id="sprotty_ArchitectureBlockImpl$rrv64_generic_ram/AlwaysBlockImpl$null9/GPortImpl$memOUT_to_ArchitectureBlockImpl$rrv64_generic_ram/AssignmentBlockImpl$rdata_nxt/GPortImpl$memIN" class="sprotty-edge thick edge" style="fill:none;stroke:rgb(112, 112, 112);stroke-linejoin:round;stroke-width:3px;"><g><path d="M 296.8125 143.66666666666666 L 326.8125 143.66666666666666 "/><path d="M 296.8125 143.66666666666666 L 326.8125 143.66666666666666 " class="clickable"/></g></g><g id="sprotty_ArchitectureBlockImpl$rrv64_generic_ram/AssignmentBlockImpl$read_cycle/GPortImpl$read_cycleOUT_to_ArchitectureBlockImpl$rrv64_generic_ram/AssignmentBlockImpl$rdata_nxt/GPortImpl$read_cycleIN" class="sprotty-edge edge" style="fill:none;stroke:rgb(112, 112, 112);stroke-linejoin:round;"><g><path d="M 284.82291666666663 63 L 314.8125 63 C 315.8125 63 316.8125 64 316.8125 65 L 316.8125 131.66666666666666 C 316.8125 132.66666666666666 317.8125 133.66666666666666 318.8125 133.66666666666666 L 326.8125 133.66666666666666 "/><path d="M 284.82291666666663 63 L 314.8125 63 C 315.8125 63 316.8125 64 316.8125 65 L 316.8125 131.66666666666666 C 316.8125 132.66666666666666 317.8125 133.66666666666666 318.8125 133.66666666666666 L 326.8125 133.66666666666666 " class="clickable"/></g><circle r="2" id="sprotty_ArchitectureBlockImpl$rrv64_generic_ram/AssignmentBlockImpl$read_cycle/GPortImpl$read_cycleOUT_to_ArchitectureBlockImpl$rrv64_generic_ram/AssignmentBlockImpl$rdata_nxt/GPortImpl$read_cycleIN/junction0" transform="translate(316.8125, 63)" class="sprotty-junction junction" style="fill:rgb(112, 112, 112);stroke:none;"/></g><g id="sprotty_ArchitectureBlockImpl$rrv64_generic_ram/AssignmentBlockImpl$read_cycle/GPortImpl$read_cycleOUT_to_ArchitectureBlockImpl$rrv64_generic_ram/AlwaysBlockImpl$null8/GPortImpl$read_cycleIN" class="sprotty-edge edge" style="fill:none;stroke:rgb(112, 112, 112);stroke-linejoin:round;"><g><path d="M 284.82291666666663 63 L 367.546875 63 "/><path d="M 284.82291666666663 63 L 367.546875 63 " class="clickable"/></g></g><g id="sprotty_ArchitectureBlockImpl$rrv64_generic_ram/AssignmentBlockImpl$write_cycle/GPortImpl$write_cycleOUT_to_ArchitectureBlockImpl$rrv64_generic_ram/AlwaysBlockImpl$null9/GPortImpl$write_cycleIN" class="sprotty-edge edge" style="fill:none;stroke:rgb(112, 112, 112);stroke-linejoin:round;"><g><path d="M 238.09375 137 L 258.09375 137 "/><path d="M 238.09375 137 L 258.09375 137 " class="clickable"/></g></g><g id="sprotty_ArchitectureBlockImpl$rrv64_generic_ram/GenerateStatementBlockImpl$g_we/GPortImpl$real_we_to_ArchitectureBlockImpl$rrv64_generic_ram/AssignmentBlockImpl$nxt_data/GPortImpl$real_weIN" class="sprotty-edge thick edge" style="fill:none;stroke:rgb(112, 112, 112);stroke-linejoin:round;stroke-width:3px;"><g><path d="M 187.359375 204 L 195.359375 204 C 196.359375 204 197.359375 205 197.359375 206 L 197.359375 233 C 197.359375 234 198.359375 235 199.359375 235 L 217.359375 235 "/><path d="M 187.359375 204 L 195.359375 204 C 196.359375 204 197.359375 205 197.359375 206 L 197.359375 233 C 197.359375 234 198.359375 235 199.359375 235 L 217.359375 235 " class="clickable"/></g></g><g id="sprotty_ArchitectureBlockImpl$rrv64_generic_ram/GenerateStatementBlockImpl$g_we" class="generate" transform="translate(107.359375, 154)"><g class="sprotty-block sprotty-block-generate" style="fill:rgb(255, 255, 255);stroke:rgb(48, 48, 48);stroke-dasharray:0px;"><rect x="0" y="0" rx="1" ry="1" width="80" height="80" style="stroke-dasharray:3px, 1px;"/><text x="40" y="12" class="sprotty-block-name" style="cursor:pointer;font-weight:700;perspective-origin:26.6771px 0px;fill:rgb(48, 48, 48);stroke:rgba(0, 0, 0, 0);dominant-baseline:middle;text-anchor:middle;">g_we</text><line x1="0" y1="20" x2="80" y2="20" style="stroke-dasharray:3px, 1px;"/></g><g id="sprotty_ArchitectureBlockImpl$rrv64_generic_ram/GenerateStatementBlockImpl$g_we/GPortImpl$cs_i_to_ArchitectureBlockImpl$rrv64_generic_ram/GenerateStatementBlockImpl$g_we/AssignmentBlockImpl$real_we/GPortImpl$cs_iIN" class="sprotty-edge edge" style="fill:none;stroke:rgb(112, 112, 112);stroke-linejoin:round;"><g><path d="M 0 45 L 15 45 "/><path d="M 0 45 L 15 45 " class="clickable"/></g></g><g id="sprotty_ArchitectureBlockImpl$rrv64_generic_ram/GenerateStatementBlockImpl$g_we/GPortImpl$we_i_to_ArchitectureBlockImpl$rrv64_generic_ram/GenerateStatementBlockImpl$g_we/AssignmentBlockImpl$real_we/GPortImpl$we_iIN" class="sprotty-edge thick edge" style="fill:none;stroke:rgb(112, 112, 112);stroke-linejoin:round;stroke-width:3px;"><g><path d="M 0 55 L 15 55 "/><path d="M 0 55 L 15 55 " class="clickable"/></g></g><g id="sprotty_ArchitectureBlockImpl$rrv64_generic_ram/GenerateStatementBlockImpl$g_we/AssignmentBlockImpl$real_we/GPortImpl$real_weOUT_to_ArchitectureBlockImpl$rrv64_generic_ram/GenerateStatementBlockImpl$g_we/GPortImpl$real_we" class="sprotty-edge thick edge" style="fill:none;stroke:rgb(112, 112, 112);stroke-linejoin:round;stroke-width:3px;"><g><path d="M 35.734375 50 L 80 50 "/><path d="M 35.734375 50 L 80 50 " class="clickable"/></g></g><g id="sprotty_ArchitectureBlockImpl$rrv64_generic_ram/GenerateStatementBlockImpl$g_we/AssignmentBlockImpl$real_we" class="statement" transform="translate(15, 35)"><rect x="0" y="0" rx="10" ry="5" width="20.734375" height="30" class="sprotty-node" style="fill:rgb(245, 245, 245);stroke:rgb(112, 112, 112);"/><text class="clickable sprotty-label statementtype" id="sprotty_ArchitectureBlockImpl$rrv64_generic_ram/GenerateStatementBlockImpl$g_we/AssignmentBlockImpl$real_we/labeltype" transform="translate(5, 8.9921875) translate(5.390625, 9.34375)" style="cursor:default;font-size:8px;font-weight:700;perspective-origin:-0.0104167px 0px;fill:rgb(112, 112, 112);text-anchor:middle;">&lt;=</text><g id="sprotty_ArchitectureBlockImpl$rrv64_generic_ram/GenerateStatementBlockImpl$g_we/AssignmentBlockImpl$real_we/GPortImpl$we_iIN" class="sprotty-hidden hidden" transform="translate(0, 20)" style="display:block;height:0px;width:0px;"/><g id="sprotty_ArchitectureBlockImpl$rrv64_generic_ram/GenerateStatementBlockImpl$g_we/AssignmentBlockImpl$real_we/GPortImpl$cs_iIN" class="sprotty-hidden hidden" transform="translate(0, 10)" style="display:block;height:0px;width:0px;"/><g id="sprotty_ArchitectureBlockImpl$rrv64_generic_ram/GenerateStatementBlockImpl$g_we/AssignmentBlockImpl$real_we/GPortImpl$real_weOUT" class="sprotty-hidden hidden" transform="translate(20.734375, 15)" style="display:block;height:0px;width:0px;"/></g><g id="sprotty_ArchitectureBlockImpl$rrv64_generic_ram/GenerateStatementBlockImpl$g_we/GPortImpl$we_i" class="triangle" transform="translate(0, 55)"><path d="M 0,0 L 5,2.5 L 0,5 Z" transform="translate(-1.67, -2.5)" class="sprotty-port" style="fill:rgb(48, 48, 48);stroke:rgb(48, 48, 48);"/></g><g id="sprotty_ArchitectureBlockImpl$rrv64_generic_ram/GenerateStatementBlockImpl$g_we/GPortImpl$cs_i" class="triangle" transform="translate(0, 45)"><path d="M 0,0 L 5,2.5 L 0,5 Z" transform="translate(-1.67, -2.5)" class="sprotty-port" style="fill:rgb(48, 48, 48);stroke:rgb(48, 48, 48);"/></g><g id="sprotty_ArchitectureBlockImpl$rrv64_generic_ram/GenerateStatementBlockImpl$g_we/GPortImpl$real_we" class="triangle" transform="translate(80, 50)"><path d="M 0,0 L 5,2.5 L 0,5 Z" transform="translate(-1.67, -2.5)" class="sprotty-port" style="fill:rgb(48, 48, 48);stroke:rgb(48, 48, 48);"/></g></g><g id="sprotty_ArchitectureBlockImpl$rrv64_generic_ram/GenerateStatementBlockImpl$null7" class="generate" transform="translate(15, 337)"><g class="sprotty-block sprotty-block-generate" style="fill:rgb(255, 255, 255);stroke:rgb(48, 48, 48);stroke-dasharray:0px;"><rect x="0" y="0" rx="1" ry="1" width="194.984375" height="120" style="stroke-dasharray:3px, 1px;"/><text x="97.4921875" y="12" class="sprotty-block-name" style="cursor:pointer;font-weight:700;fill:rgb(48, 48, 48);stroke:rgba(0, 0, 0, 0);dominant-baseline:middle;text-anchor:middle;"/></g><g id="sprotty_ArchitectureBlockImpl$rrv64_generic_ram/GenerateStatementBlockImpl$null7/GenerateStatementBlockImpl$null0" class="generate" transform="translate(15, 55)"><g class="sprotty-block sprotty-block-generate" style="fill:rgb(255, 255, 255);stroke:rgb(48, 48, 48);stroke-dasharray:0px;"><rect x="0" y="0" rx="1" ry="1" width="164.984375" height="50" style="stroke-dasharray:3px, 1px;"/><text x="82.4921875" y="12" class="sprotty-block-name" style="cursor:pointer;font-weight:700;fill:rgb(48, 48, 48);stroke:rgba(0, 0, 0, 0);dominant-baseline:middle;text-anchor:middle;"/></g><g id="sprotty_ArchitectureBlockImpl$rrv64_generic_ram/GenerateStatementBlockImpl$null7/GenerateStatementBlockImpl$null0/GenerateStatementBlockImpl$g_each_address" class="generate" transform="translate(15, 15)"><g class="sprotty-block sprotty-block-generate" style="fill:rgb(255, 255, 255);stroke:rgb(48, 48, 48);stroke-dasharray:0px;"><rect x="0" y="0" rx="1" ry="1" width="134.984375" height="20" style="stroke-dasharray:3px, 1px;"/><text x="67.4921875" y="12" class="sprotty-block-name" style="cursor:pointer;font-weight:700;perspective-origin:45.0208px 0px;fill:rgb(48, 48, 48);stroke:rgba(0, 0, 0, 0);dominant-baseline:middle;text-anchor:middle;">g_each_address</text></g></g></g><g id="sprotty_ArchitectureBlockImpl$rrv64_generic_ram/GenerateStatementBlockImpl$null7/GenerateStatementBlockImpl$g_each_address" class="generate" transform="translate(15, 15)"><g class="sprotty-block sprotty-block-generate" style="fill:rgb(255, 255, 255);stroke:rgb(48, 48, 48);stroke-dasharray:0px;"><rect x="0" y="0" rx="1" ry="1" width="134.984375" height="20" style="stroke-dasharray:3px, 1px;"/><text x="67.4921875" y="12" class="sprotty-block-name" style="cursor:pointer;font-weight:700;perspective-origin:45.0208px 0px;fill:rgb(48, 48, 48);stroke:rgba(0, 0, 0, 0);dominant-baseline:middle;text-anchor:middle;">g_each_address</text></g></g></g><g id="sprotty_ArchitectureBlockImpl$rrv64_generic_ram/AlwaysBlockImpl$null8" class="statement" transform="translate(367.546875, 43)"><rect x="0" y="0" rx="10" ry="5" width="38.71875" height="40" class="sprotty-node" style="fill:rgb(245, 245, 245);stroke:rgb(112, 112, 112);"/><text class="clickable sprotty-label statementtype" id="sprotty_ArchitectureBlockImpl$rrv64_generic_ram/AlwaysBlockImpl$null8/labeltype" transform="translate(5, 13.9921875) translate(14.34375, 9.34375)" style="cursor:default;font-size:8px;font-weight:700;perspective-origin:0.0104167px 0px;fill:rgb(112, 112, 112);text-anchor:middle;">always</text><g id="sprotty_ArchitectureBlockImpl$rrv64_generic_ram/AlwaysBlockImpl$null8/GPortImpl$rdata_nxtIN" class="sprotty-hidden hidden" transform="translate(0, 30)" style="display:block;height:0px;width:0px;"/><g id="sprotty_ArchitectureBlockImpl$rrv64_generic_ram/AlwaysBlockImpl$null8/GPortImpl$read_cycleIN" class="sprotty-hidden hidden" transform="translate(0, 20)" style="display:block;height:0px;width:0px;"/><g id="sprotty_ArchitectureBlockImpl$rrv64_generic_ram/AlwaysBlockImpl$null8/GPortImpl$clkIN" class="sprotty-hidden hidden" transform="translate(0, 10)" style="display:block;height:0px;width:0px;"/><g id="sprotty_ArchitectureBlockImpl$rrv64_generic_ram/AlwaysBlockImpl$null8/GPortImpl$rdata_regOUT" class="sprotty-hidden hidden" transform="translate(38.71875, 20)" style="display:block;height:0px;width:0px;"/></g><g id="sprotty_ArchitectureBlockImpl$rrv64_generic_ram/AlwaysBlockImpl$null9" class="statement" transform="translate(258.09375, 117)"><rect x="0" y="0" rx="10" ry="5" width="38.71875" height="40" class="sprotty-node" style="fill:rgb(245, 245, 245);stroke:rgb(112, 112, 112);"/><text class="clickable sprotty-label statementtype" id="sprotty_ArchitectureBlockImpl$rrv64_generic_ram/AlwaysBlockImpl$null9/labeltype" transform="translate(5, 13.9921875) translate(14.34375, 9.34375)" style="cursor:default;font-size:8px;font-weight:700;perspective-origin:0.0104167px 0px;fill:rgb(112, 112, 112);text-anchor:middle;">always</text><g id="sprotty_ArchitectureBlockImpl$rrv64_generic_ram/AlwaysBlockImpl$null9/GPortImpl$nxt_dataIN" class="sprotty-hidden hidden" transform="translate(0, 30)" style="display:block;height:0px;width:0px;"/><g id="sprotty_ArchitectureBlockImpl$rrv64_generic_ram/AlwaysBlockImpl$null9/GPortImpl$write_cycleIN" class="sprotty-hidden hidden" transform="translate(0, 20)" style="display:block;height:0px;width:0px;"/><g id="sprotty_ArchitectureBlockImpl$rrv64_generic_ram/AlwaysBlockImpl$null9/GPortImpl$clkIN" class="sprotty-hidden hidden" transform="translate(0, 10)" style="display:block;height:0px;width:0px;"/><g id="sprotty_ArchitectureBlockImpl$rrv64_generic_ram/AlwaysBlockImpl$null9/GPortImpl$addr_iOUT" class="sprotty-hidden hidden" transform="translate(38.71875, 13.333333333333334)" style="display:block;height:0px;width:0px;"/><g id="sprotty_ArchitectureBlockImpl$rrv64_generic_ram/AlwaysBlockImpl$null9/GPortImpl$memOUT" class="sprotty-hidden hidden" transform="translate(38.71875, 26.666666666666668)" style="display:block;height:0px;width:0px;"/></g><g id="sprotty_ArchitectureBlockImpl$rrv64_generic_ram/AssignmentBlockImpl$rd_o" class="statement" transform="translate(426.265625, 51.9921875)"><rect x="0" y="0" rx="10" ry="5" width="20.734375" height="22.015625" class="sprotty-node" style="fill:rgb(245, 245, 245);stroke:rgb(112, 112, 112);"/><text class="clickable sprotty-label statementtype" id="sprotty_ArchitectureBlockImpl$rrv64_generic_ram/AssignmentBlockImpl$rd_o/labeltype" transform="translate(5, 5) translate(5.390625, 9.34375)" style="cursor:default;font-size:8px;font-weight:700;perspective-origin:-0.0104167px 0px;fill:rgb(112, 112, 112);text-anchor:middle;">&lt;=</text><g id="sprotty_ArchitectureBlockImpl$rrv64_generic_ram/AssignmentBlockImpl$rd_o/GPortImpl$rdata_regIN" class="sprotty-hidden hidden" transform="translate(0, 11.0078125)" style="display:block;height:0px;width:0px;"/><g id="sprotty_ArchitectureBlockImpl$rrv64_generic_ram/AssignmentBlockImpl$rd_o/GPortImpl$rd_oOUT" class="sprotty-hidden hidden" transform="translate(20.734375, 11.0078125)" style="display:block;height:0px;width:0px;"/></g><g id="sprotty_ArchitectureBlockImpl$rrv64_generic_ram/AssignmentBlockImpl$rdata_nxt" class="statement" transform="translate(326.8125, 123.66666666666666)"><rect x="0" y="0" rx="10" ry="5" width="20.734375" height="40" class="sprotty-node" style="fill:rgb(245, 245, 245);stroke:rgb(112, 112, 112);"/><text class="clickable sprotty-label statementtype" id="sprotty_ArchitectureBlockImpl$rrv64_generic_ram/AssignmentBlockImpl$rdata_nxt/labeltype" transform="translate(5, 13.9921875) translate(5.390625, 9.34375)" style="cursor:default;font-size:8px;font-weight:700;perspective-origin:-0.0104167px 0px;fill:rgb(112, 112, 112);text-anchor:middle;">&lt;=</text><g id="sprotty_ArchitectureBlockImpl$rrv64_generic_ram/AssignmentBlockImpl$rdata_nxt/GPortImpl$addr_iIN" class="sprotty-hidden hidden" transform="translate(0, 30)" style="display:block;height:0px;width:0px;"/><g id="sprotty_ArchitectureBlockImpl$rrv64_generic_ram/AssignmentBlockImpl$rdata_nxt/GPortImpl$memIN" class="sprotty-hidden hidden" transform="translate(0, 20)" style="display:block;height:0px;width:0px;"/><g id="sprotty_ArchitectureBlockImpl$rrv64_generic_ram/AssignmentBlockImpl$rdata_nxt/GPortImpl$read_cycleIN" class="sprotty-hidden hidden" transform="translate(0, 10)" style="display:block;height:0px;width:0px;"/><g id="sprotty_ArchitectureBlockImpl$rrv64_generic_ram/AssignmentBlockImpl$rdata_nxt/GPortImpl$rdata_nxtOUT" class="sprotty-hidden hidden" transform="translate(20.734375, 20)" style="display:block;height:0px;width:0px;"/></g><g id="sprotty_ArchitectureBlockImpl$rrv64_generic_ram/AssignmentBlockImpl$nxt_data" class="statement" transform="translate(217.359375, 225)"><rect x="0" y="0" rx="10" ry="5" width="20.734375" height="50" class="sprotty-node" style="fill:rgb(245, 245, 245);stroke:rgb(112, 112, 112);"/><text class="clickable sprotty-label statementtype" id="sprotty_ArchitectureBlockImpl$rrv64_generic_ram/AssignmentBlockImpl$nxt_data/labeltype" transform="translate(5, 18.9921875) translate(5.390625, 9.34375)" style="cursor:default;font-size:8px;font-weight:700;perspective-origin:-0.0104167px 0px;fill:rgb(112, 112, 112);text-anchor:middle;">&lt;=</text><g id="sprotty_ArchitectureBlockImpl$rrv64_generic_ram/AssignmentBlockImpl$nxt_data/GPortImpl$wd_iIN" class="sprotty-hidden hidden" transform="translate(0, 20)" style="display:block;height:0px;width:0px;"/><g id="sprotty_ArchitectureBlockImpl$rrv64_generic_ram/AssignmentBlockImpl$nxt_data/GPortImpl$addr_iIN" class="sprotty-hidden hidden" transform="translate(0, 30)" style="display:block;height:0px;width:0px;"/><g id="sprotty_ArchitectureBlockImpl$rrv64_generic_ram/AssignmentBlockImpl$nxt_data/GPortImpl$memIN" class="sprotty-hidden hidden" transform="translate(0, 40)" style="display:block;height:0px;width:0px;"/><g id="sprotty_ArchitectureBlockImpl$rrv64_generic_ram/AssignmentBlockImpl$nxt_data/GPortImpl$real_weIN" class="sprotty-hidden hidden" transform="translate(0, 10)" style="display:block;height:0px;width:0px;"/><g id="sprotty_ArchitectureBlockImpl$rrv64_generic_ram/AssignmentBlockImpl$nxt_data/GPortImpl$nxt_dataOUT" class="sprotty-hidden hidden" transform="translate(20.734375, 25)" style="display:block;height:0px;width:0px;"/></g><g id="sprotty_ArchitectureBlockImpl$rrv64_generic_ram/AssignmentBlockImpl$write_cycle" class="statement" transform="translate(217.359375, 122)"><rect x="0" y="0" rx="10" ry="5" width="20.734375" height="30" class="sprotty-node" style="fill:rgb(245, 245, 245);stroke:rgb(112, 112, 112);"/><text class="clickable sprotty-label statementtype" id="sprotty_ArchitectureBlockImpl$rrv64_generic_ram/AssignmentBlockImpl$write_cycle/labeltype" transform="translate(5, 8.9921875) translate(5.390625, 9.34375)" style="cursor:default;font-size:8px;font-weight:700;perspective-origin:-0.0104167px 0px;fill:rgb(112, 112, 112);text-anchor:middle;">&lt;=</text><g id="sprotty_ArchitectureBlockImpl$rrv64_generic_ram/AssignmentBlockImpl$write_cycle/GPortImpl$we_iIN" class="sprotty-hidden hidden" transform="translate(0, 20)" style="display:block;height:0px;width:0px;"/><g id="sprotty_ArchitectureBlockImpl$rrv64_generic_ram/AssignmentBlockImpl$write_cycle/GPortImpl$cs_iIN" class="sprotty-hidden hidden" transform="translate(0, 10)" style="display:block;height:0px;width:0px;"/><g id="sprotty_ArchitectureBlockImpl$rrv64_generic_ram/AssignmentBlockImpl$write_cycle/GPortImpl$write_cycleOUT" class="sprotty-hidden hidden" transform="translate(20.734375, 15)" style="display:block;height:0px;width:0px;"/></g><g id="sprotty_ArchitectureBlockImpl$rrv64_generic_ram/AssignmentBlockImpl$read_cycle" class="statement" transform="translate(264.08854166666663, 48)"><rect x="0" y="0" rx="10" ry="5" width="20.734375" height="30" class="sprotty-node" style="fill:rgb(245, 245, 245);stroke:rgb(112, 112, 112);"/><text class="clickable sprotty-label statementtype" id="sprotty_ArchitectureBlockImpl$rrv64_generic_ram/AssignmentBlockImpl$read_cycle/labeltype" transform="translate(5, 8.9921875) translate(5.390625, 9.34375)" style="cursor:default;font-size:8px;font-weight:700;perspective-origin:-0.0104167px 0px;fill:rgb(112, 112, 112);text-anchor:middle;">&lt;=</text><g id="sprotty_ArchitectureBlockImpl$rrv64_generic_ram/AssignmentBlockImpl$read_cycle/GPortImpl$we_iIN" class="sprotty-hidden hidden" transform="translate(0, 20)" style="display:block;height:0px;width:0px;"/><g id="sprotty_ArchitectureBlockImpl$rrv64_generic_ram/AssignmentBlockImpl$read_cycle/GPortImpl$cs_iIN" class="sprotty-hidden hidden" transform="translate(0, 10)" style="display:block;height:0px;width:0px;"/><g id="sprotty_ArchitectureBlockImpl$rrv64_generic_ram/AssignmentBlockImpl$read_cycle/GPortImpl$read_cycleOUT" class="sprotty-hidden hidden" transform="translate(20.734375, 15)" style="display:block;height:0px;width:0px;"/></g><g id="sprotty_ArchitectureBlockImpl$rrv64_generic_ram/BPortImpl$we_i" class="triangle" transform="translate(0, 209)"><path d="M 0,0 L 5,2.5 L 0,5 Z" transform="translate(-1.67, -2.5)" class="sprotty-port" style="fill:rgb(48, 48, 48);stroke:rgb(48, 48, 48);"/><text class="clickable sprotty-label port" id="sprotty_ArchitectureBlockImpl$rrv64_generic_ram/BPortImpl$we_i/label" transform="translate(6, 6) translate(13.796875, 14)" style="cursor:default;font-size:12px;perspective-origin:-0.208333px 0px;fill:rgb(48, 48, 48);text-anchor:middle;">we_i</text></g><g id="sprotty_ArchitectureBlockImpl$rrv64_generic_ram/BPortImpl$cs_i" class="triangle" transform="translate(0, 132)"><path d="M 0,0 L 5,2.5 L 0,5 Z" transform="translate(-1.67, -2.5)" class="sprotty-port" style="fill:rgb(48, 48, 48);stroke:rgb(48, 48, 48);"/><text class="clickable sprotty-label port" id="sprotty_ArchitectureBlockImpl$rrv64_generic_ram/BPortImpl$cs_i/label" transform="translate(6, 6) translate(10.875, 14)" style="cursor:default;font-size:12px;perspective-origin:0.0104167px 0px;fill:rgb(48, 48, 48);text-anchor:middle;">cs_i</text></g><g id="sprotty_ArchitectureBlockImpl$rrv64_generic_ram/BPortImpl$wd_i" class="triangle" transform="translate(0, 245)"><path d="M 0,0 L 5,2.5 L 0,5 Z" transform="translate(-1.67, -2.5)" class="sprotty-port" style="fill:rgb(48, 48, 48);stroke:rgb(48, 48, 48);"/><text class="clickable sprotty-label port" id="sprotty_ArchitectureBlockImpl$rrv64_generic_ram/BPortImpl$wd_i/label" transform="translate(6, 6) translate(14.1875, 14)" style="cursor:default;font-size:12px;perspective-origin:-0.208333px 0px;fill:rgb(48, 48, 48);text-anchor:middle;">wd_i</text></g><g id="sprotty_ArchitectureBlockImpl$rrv64_generic_ram/BPortImpl$addr_i" class="triangle" transform="translate(0, 293)"><path d="M 0,0 L 5,2.5 L 0,5 Z" transform="translate(-1.67, -2.5)" class="sprotty-port" style="fill:rgb(48, 48, 48);stroke:rgb(48, 48, 48);"/><text class="clickable sprotty-label port" id="sprotty_ArchitectureBlockImpl$rrv64_generic_ram/BPortImpl$addr_i/label" transform="translate(6, 6) translate(18.15625, 14)" style="cursor:default;font-size:12px;perspective-origin:0.0104167px 0px;fill:rgb(48, 48, 48);text-anchor:middle;">addr_i</text></g><g id="sprotty_ArchitectureBlockImpl$rrv64_generic_ram/BPortImpl$clk" class="triangle" transform="translate(0, 98)"><path d="M 0,0 L 5,2.5 L 0,5 Z" transform="translate(-1.67, -2.5)" class="sprotty-port" style="fill:rgb(48, 48, 48);stroke:rgb(48, 48, 48);"/><text class="clickable sprotty-label port" id="sprotty_ArchitectureBlockImpl$rrv64_generic_ram/BPortImpl$clk/label" transform="translate(6, 6) translate(8.078125, 14)" style="cursor:default;font-size:12px;perspective-origin:0.239583px 0px;fill:rgb(48, 48, 48);text-anchor:middle;">clk</text></g><g id="sprotty_ArchitectureBlockImpl$rrv64_generic_ram/BPortImpl$rd_o" class="triangle" transform="translate(494.03125, 63)"><path d="M 0,0 L 5,2.5 L 0,5 Z" transform="translate(-1.67, -2.5)" class="sprotty-port" style="fill:rgb(48, 48, 48);stroke:rgb(48, 48, 48);"/><text class="clickable sprotty-label port" id="sprotty_ArchitectureBlockImpl$rrv64_generic_ram/BPortImpl$rd_o/label" transform="translate(-32.03125, 6) translate(12.984375, 14)" style="cursor:default;font-size:12px;perspective-origin:0.0208333px 0px;fill:rgb(48, 48, 48);text-anchor:middle;">rd_o</text></g></g></g></svg>