<svg xmlns="http://www.w3.org/2000/svg" id="sprotty_work.lru_get_new_line" class="sprotty-graph sprotty-block-diagram blockdiagram" style="font-family:&quot;Noto Sans&quot;, Helvetica, Arial, sans-serif;-webkit-locale:&quot;en&quot;;perspective-origin:0px 0px;transform-origin:0px 0px;" version="1.1" viewBox="7 7 246.9375 118" width="246.9375" height="118"><g transform="scale(1) translate(0,0)"><g id="sprotty_ArchitectureBlockImpl$lru_get_new_line" class="architecture" transform="translate(12, 12)"><g class="sprotty-block" style="fill:rgb(255, 255, 255);stroke:rgb(48, 48, 48);stroke-dasharray:0px;"><rect x="0" y="0" rx="1" ry="1" width="236.9375" height="108"/><text x="118.46875" y="12" class="sprotty-block-name" style="cursor:pointer;font-weight:700;perspective-origin:78.9896px 0px;fill:rgb(48, 48, 48);stroke:rgba(0, 0, 0, 0);dominant-baseline:middle;text-anchor:middle;">lru_get_new_line</text><line x1="0" y1="20" x2="236.9375" y2="20"/></g><g id="sprotty_ArchitectureBlockImpl$lru_get_new_line/AlwaysBlockImpl$null3/GPortImpl$new_lruOUT_to_ArchitectureBlockImpl$lru_get_new_line/BPortImpl$new_lru" class="sprotty-edge thick edge" style="fill:none;stroke:rgb(112, 112, 112);stroke-linejoin:round;stroke-width:3px;"><g><path d="M 146.46875 69 L 236.9375 69 "/><path d="M 146.46875 69 L 236.9375 69 " class="clickable"/></g></g><g id="sprotty_ArchitectureBlockImpl$lru_get_new_line/AlwaysBlockImpl$null3/GPortImpl$repl_posOUT_to_ArchitectureBlockImpl$lru_get_new_line/BPortImpl$repl_pos" class="sprotty-edge thick edge" style="fill:none;stroke:rgb(112, 112, 112);stroke-linejoin:round;stroke-width:3px;"><g><path d="M 146.46875 59 L 154.46875 59 C 155.46875 59 156.46875 58 156.46875 57 L 156.46875 37 C 156.46875 36 157.46875 35 158.46875 35 L 236.9375 35 "/><path d="M 146.46875 59 L 154.46875 59 C 155.46875 59 156.46875 58 156.46875 57 L 156.46875 37 C 156.46875 36 157.46875 35 158.46875 35 L 236.9375 35 " class="clickable"/></g><circle r="3" id="sprotty_ArchitectureBlockImpl$lru_get_new_line/AlwaysBlockImpl$null3/GPortImpl$repl_posOUT_to_ArchitectureBlockImpl$lru_get_new_line/BPortImpl$repl_pos/junction0" transform="translate(156.46875, 35)" class="sprotty-junction thick" style="fill:rgb(112, 112, 112);stroke:none;"/></g><g id="sprotty_ArchitectureBlockImpl$lru_get_new_line/BPortImpl$old_lru_to_ArchitectureBlockImpl$lru_get_new_line/AlwaysBlockImpl$null3/GPortImpl$old_lruIN" class="sprotty-edge thick edge" style="fill:none;stroke:rgb(112, 112, 112);stroke-linejoin:round;stroke-width:3px;"><g><path d="M 0 69 L 81.21875 69 "/><path d="M 0 69 L 81.21875 69 " class="clickable"/></g></g><g id="sprotty_ArchitectureBlockImpl$lru_get_new_line/BPortImpl$repl_pos_to_ArchitectureBlockImpl$lru_get_new_line/AlwaysBlockImpl$null3/GPortImpl$repl_posIN" class="sprotty-edge thick edge" style="fill:none;stroke:rgb(112, 112, 112);stroke-linejoin:round;stroke-width:3px;"><g><path d="M 236.9375 35 L 73.21875 35 C 72.21875 35 71.21875 36 71.21875 37 L 71.21875 57 C 71.21875 58 72.21875 59 73.21875 59 L 81.21875 59 "/><path d="M 236.9375 35 L 73.21875 35 C 72.21875 35 71.21875 36 71.21875 37 L 71.21875 57 C 71.21875 58 72.21875 59 73.21875 59 L 81.21875 59 " class="clickable"/></g></g><g id="sprotty_ArchitectureBlockImpl$lru_get_new_line/AlwaysBlockImpl$null3" class="statement" transform="translate(81.21875, 49)"><rect x="0" y="0" rx="10" ry="5" width="65.25" height="30" class="sprotty-node" style="fill:rgb(245, 245, 245);stroke:rgb(112, 112, 112);"/><text class="clickable sprotty-label statementtype" id="sprotty_ArchitectureBlockImpl$lru_get_new_line/AlwaysBlockImpl$null3/labeltype" transform="translate(5, 8.9921875) translate(27.53125, 9.34375)" style="cursor:default;font-size:8px;font-weight:700;perspective-origin:0.0625px 0px;fill:rgb(112, 112, 112);text-anchor:middle;">always_comb</text><g id="sprotty_ArchitectureBlockImpl$lru_get_new_line/AlwaysBlockImpl$null3/GPortImpl$repl_posIN" class="sprotty-hidden hidden" transform="translate(0, 10)" style="display:block;height:0px;width:0px;"/><g id="sprotty_ArchitectureBlockImpl$lru_get_new_line/AlwaysBlockImpl$null3/GPortImpl$old_lruIN" class="sprotty-hidden hidden" transform="translate(0, 20)" style="display:block;height:0px;width:0px;"/><g id="sprotty_ArchitectureBlockImpl$lru_get_new_line/AlwaysBlockImpl$null3/GPortImpl$repl_posOUT" class="sprotty-hidden hidden" transform="translate(65.25, 10)" style="display:block;height:0px;width:0px;"/><g id="sprotty_ArchitectureBlockImpl$lru_get_new_line/AlwaysBlockImpl$null3/GPortImpl$new_lruOUT" class="sprotty-hidden hidden" transform="translate(65.25, 20)" style="display:block;height:0px;width:0px;"/></g><g id="sprotty_ArchitectureBlockImpl$lru_get_new_line/BPortImpl$old_lru" class="triangle" transform="translate(0, 69)"><path d="M 0,0 L 5,2.5 L 0,5 Z" transform="translate(-1.67, -2.5)" class="sprotty-port" style="fill:rgb(48, 48, 48);stroke:rgb(48, 48, 48);"/><text class="clickable sprotty-label port" id="sprotty_ArchitectureBlockImpl$lru_get_new_line/BPortImpl$old_lru/label" transform="translate(6, 6) translate(20.109375, 14)" style="cursor:default;font-size:12px;perspective-origin:0px 0px;fill:rgb(48, 48, 48);text-anchor:middle;">old_lru</text></g><g id="sprotty_ArchitectureBlockImpl$lru_get_new_line/BPortImpl$new_lru" class="triangle" transform="translate(236.9375, 69)"><path d="M 0,0 L 5,2.5 L 0,5 Z" transform="translate(-1.67, -2.5)" class="sprotty-port" style="fill:rgb(48, 48, 48);stroke:rgb(48, 48, 48);"/><text class="clickable sprotty-label port" id="sprotty_ArchitectureBlockImpl$lru_get_new_line/BPortImpl$new_lru/label" transform="translate(-51.75, 6) translate(22.875, 14)" style="cursor:default;font-size:12px;perspective-origin:0px 0px;fill:rgb(48, 48, 48);text-anchor:middle;">new_lru</text></g><g id="sprotty_ArchitectureBlockImpl$lru_get_new_line/BPortImpl$repl_pos" class="triangle" transform="translate(236.9375, 35)"><path d="M 0,0 L 5,2.5 L 0,5 Z" transform="translate(-1.67, -2.5)" class="sprotty-port" style="fill:rgb(48, 48, 48);stroke:rgb(48, 48, 48);"/><text class="clickable sprotty-label port" id="sprotty_ArchitectureBlockImpl$lru_get_new_line/BPortImpl$repl_pos/label" transform="translate(-55.46875, 6) translate(24.546875, 14)" style="cursor:default;font-size:12px;perspective-origin:0.125px 0px;fill:rgb(48, 48, 48);text-anchor:middle;">repl_pos</text></g></g></g></svg>