<svg xmlns="http://www.w3.org/2000/svg" id="sprotty_work.std_dffe" class="sprotty-graph sprotty-block-diagram blockdiagram" style="font-family:&quot;Noto Sans&quot;, Helvetica, Arial, sans-serif;-webkit-locale:&quot;en&quot;;perspective-origin:0px 0px;transform-origin:0px 0px;" version="1.1" viewBox="7 7 186.296875 152" width="186.296875" height="152"><g transform="scale(1) translate(0,0)"><g id="sprotty_ArchitectureBlockImpl$std_dffe" class="architecture" transform="translate(12, 12)"><g class="sprotty-block" style="fill:rgb(255, 255, 255);stroke:rgb(48, 48, 48);stroke-dasharray:0px;"><rect x="0" y="0" rx="1" ry="1" width="176.296875" height="142"/><text x="88.1484375" y="12" class="sprotty-block-name" style="cursor:pointer;font-weight:700;perspective-origin:58.5521px 0px;fill:rgb(48, 48, 48);stroke:rgba(0, 0, 0, 0);dominant-baseline:middle;text-anchor:middle;">std_dffe</text><line x1="0" y1="20" x2="176.296875" y2="20"/></g><g id="sprotty_ArchitectureBlockImpl$std_dffe/AssignmentBlockImpl$q/GPortImpl$qOUT_to_ArchitectureBlockImpl$std_dffe/BPortImpl$q" class="sprotty-edge thick edge" style="fill:none;stroke:rgb(112, 112, 112);stroke-linejoin:round;stroke-width:3px;"><g><path d="M 147.828125 69 L 176.296875 69 "/><path d="M 147.828125 69 L 176.296875 69 " class="clickable"/></g></g><g id="sprotty_ArchitectureBlockImpl$std_dffe/BPortImpl$clk_to_ArchitectureBlockImpl$std_dffe/AlwaysBlockImpl$null4/GPortImpl$clkIN" class="sprotty-edge edge" style="fill:none;stroke:rgb(112, 112, 112);stroke-linejoin:round;"><g><path d="M 0 35 L 45.875 35 C 46.875 35 47.875 36 47.875 37 L 47.875 57 C 47.875 58 48.875 59 49.875 59 L 57.875 59 "/><path d="M 0 35 L 45.875 35 C 46.875 35 47.875 36 47.875 37 L 47.875 57 C 47.875 58 48.875 59 49.875 59 L 57.875 59 " class="clickable"/></g></g><g id="sprotty_ArchitectureBlockImpl$std_dffe/BPortImpl$en_to_ArchitectureBlockImpl$std_dffe/AlwaysBlockImpl$null4/GPortImpl$enIN" class="sprotty-edge edge" style="fill:none;stroke:rgb(112, 112, 112);stroke-linejoin:round;"><g><path d="M 0 69 L 57.875 69 "/><path d="M 0 69 L 57.875 69 " class="clickable"/></g></g><g id="sprotty_ArchitectureBlockImpl$std_dffe/BPortImpl$d_to_ArchitectureBlockImpl$std_dffe/AlwaysBlockImpl$null4/GPortImpl$dIN" class="sprotty-edge thick edge" style="fill:none;stroke:rgb(112, 112, 112);stroke-linejoin:round;stroke-width:3px;"><g><path d="M 0 103 L 45.875 103 C 46.875 103 47.875 102 47.875 101 L 47.875 81 C 47.875 80 48.875 79 49.875 79 L 57.875 79 "/><path d="M 0 103 L 45.875 103 C 46.875 103 47.875 102 47.875 101 L 47.875 81 C 47.875 80 48.875 79 49.875 79 L 57.875 79 " class="clickable"/></g></g><g id="sprotty_ArchitectureBlockImpl$std_dffe/AlwaysBlockImpl$null4/GPortImpl$dff_qOUT_to_ArchitectureBlockImpl$std_dffe/AssignmentBlockImpl$q/GPortImpl$dff_qIN" class="sprotty-edge thick edge" style="fill:none;stroke:rgb(112, 112, 112);stroke-linejoin:round;stroke-width:3px;"><g><path d="M 107.09375 69 L 127.09375 69 "/><path d="M 107.09375 69 L 127.09375 69 " class="clickable"/></g></g><g id="sprotty_ArchitectureBlockImpl$std_dffe/AlwaysBlockImpl$null4" class="statement" transform="translate(57.875, 49)"><rect x="0" y="0" rx="10" ry="5" width="49.21875" height="40" class="sprotty-node" style="fill:rgb(245, 245, 245);stroke:rgb(112, 112, 112);"/><text class="clickable sprotty-label statementtype" id="sprotty_ArchitectureBlockImpl$std_dffe/AlwaysBlockImpl$null4/labeltype" transform="translate(5, 13.9921875) translate(19.484375, 9.34375)" style="cursor:default;font-size:8px;font-weight:700;perspective-origin:0.0833333px 0px;fill:rgb(112, 112, 112);text-anchor:middle;">always_ff</text><g id="sprotty_ArchitectureBlockImpl$std_dffe/AlwaysBlockImpl$null4/GPortImpl$dIN" class="sprotty-hidden hidden" transform="translate(0, 30)" style="display:block;height:0px;width:0px;"/><g id="sprotty_ArchitectureBlockImpl$std_dffe/AlwaysBlockImpl$null4/GPortImpl$enIN" class="sprotty-hidden hidden" transform="translate(0, 20)" style="display:block;height:0px;width:0px;"/><g id="sprotty_ArchitectureBlockImpl$std_dffe/AlwaysBlockImpl$null4/GPortImpl$clkIN" class="sprotty-hidden hidden" transform="translate(0, 10)" style="display:block;height:0px;width:0px;"/><g id="sprotty_ArchitectureBlockImpl$std_dffe/AlwaysBlockImpl$null4/GPortImpl$dff_qOUT" class="sprotty-hidden hidden" transform="translate(49.21875, 20)" style="display:block;height:0px;width:0px;"/></g><g id="sprotty_ArchitectureBlockImpl$std_dffe/AssignmentBlockImpl$q" class="statement" transform="translate(127.09375, 57.9921875)"><rect x="0" y="0" rx="10" ry="5" width="20.734375" height="22.015625" class="sprotty-node" style="fill:rgb(245, 245, 245);stroke:rgb(112, 112, 112);"/><text class="clickable sprotty-label statementtype" id="sprotty_ArchitectureBlockImpl$std_dffe/AssignmentBlockImpl$q/labeltype" transform="translate(5, 5) translate(5.390625, 9.34375)" style="cursor:default;font-size:8px;font-weight:700;perspective-origin:-0.0104167px 0px;fill:rgb(112, 112, 112);text-anchor:middle;">&lt;=</text><g id="sprotty_ArchitectureBlockImpl$std_dffe/AssignmentBlockImpl$q/GPortImpl$dff_qIN" class="sprotty-hidden hidden" transform="translate(0, 11.0078125)" style="display:block;height:0px;width:0px;"/><g id="sprotty_ArchitectureBlockImpl$std_dffe/AssignmentBlockImpl$q/GPortImpl$qOUT" class="sprotty-hidden hidden" transform="translate(20.734375, 11.0078125)" style="display:block;height:0px;width:0px;"/></g><g id="sprotty_ArchitectureBlockImpl$std_dffe/BPortImpl$d" class="triangle" transform="translate(0, 103)"><path d="M 0,0 L 5,2.5 L 0,5 Z" transform="translate(-1.67, -2.5)" class="sprotty-port" style="fill:rgb(48, 48, 48);stroke:rgb(48, 48, 48);"/><text class="clickable sprotty-label port" id="sprotty_ArchitectureBlockImpl$std_dffe/BPortImpl$d/label" transform="translate(6, 6) translate(3.734375, 14)" style="cursor:default;font-size:12px;perspective-origin:0px 0px;fill:rgb(48, 48, 48);text-anchor:middle;">d</text></g><g id="sprotty_ArchitectureBlockImpl$std_dffe/BPortImpl$en" class="triangle" transform="translate(0, 69)"><path d="M 0,0 L 5,2.5 L 0,5 Z" transform="translate(-1.67, -2.5)" class="sprotty-port" style="fill:rgb(48, 48, 48);stroke:rgb(48, 48, 48);"/><text class="clickable sprotty-label port" id="sprotty_ArchitectureBlockImpl$std_dffe/BPortImpl$en/label" transform="translate(6, 6) translate(7, 14)" style="cursor:default;font-size:12px;perspective-origin:0px 0px;fill:rgb(48, 48, 48);text-anchor:middle;">en</text></g><g id="sprotty_ArchitectureBlockImpl$std_dffe/BPortImpl$clk" class="triangle" transform="translate(0, 35)"><path d="M 0,0 L 5,2.5 L 0,5 Z" transform="translate(-1.67, -2.5)" class="sprotty-port" style="fill:rgb(48, 48, 48);stroke:rgb(48, 48, 48);"/><text class="clickable sprotty-label port" id="sprotty_ArchitectureBlockImpl$std_dffe/BPortImpl$clk/label" transform="translate(6, 6) translate(8.078125, 14)" style="cursor:default;font-size:12px;perspective-origin:0.239583px 0px;fill:rgb(48, 48, 48);text-anchor:middle;">clk</text></g><g id="sprotty_ArchitectureBlockImpl$std_dffe/BPortImpl$q" class="triangle" transform="translate(176.296875, 69)"><path d="M 0,0 L 5,2.5 L 0,5 Z" transform="translate(-1.67, -2.5)" class="sprotty-port" style="fill:rgb(48, 48, 48);stroke:rgb(48, 48, 48);"/><text class="clickable sprotty-label port" id="sprotty_ArchitectureBlockImpl$std_dffe/BPortImpl$q/label" transform="translate(-13.46875, 6) translate(3.734375, 14)" style="cursor:default;font-size:12px;perspective-origin:0px 0px;fill:rgb(48, 48, 48);text-anchor:middle;">q</text></g></g></g></svg>