<svg xmlns="http://www.w3.org/2000/svg" id="sprotty_work.std_dffre" class="sprotty-graph sprotty-block-diagram blockdiagram" style="font-family:&quot;Noto Sans&quot;, Helvetica, Arial, sans-serif;-webkit-locale:&quot;en&quot;;perspective-origin:0px 0px;transform-origin:0px 0px;" version="1.1" viewBox="7 7 201.265625 186" width="201.265625" height="186"><g transform="scale(1) translate(0,0)"><g id="sprotty_ArchitectureBlockImpl$std_dffre" class="architecture" transform="translate(12, 12)"><g class="sprotty-block" style="fill:rgb(255, 255, 255);stroke:rgb(48, 48, 48);stroke-dasharray:0px;"><rect x="0" y="0" rx="1" ry="1" width="191.265625" height="176"/><text x="95.6328125" y="12" class="sprotty-block-name" style="cursor:pointer;font-weight:700;perspective-origin:63.5417px 0px;fill:rgb(48, 48, 48);stroke:rgba(0, 0, 0, 0);dominant-baseline:middle;text-anchor:middle;">std_dffre</text><line x1="0" y1="20" x2="191.265625" y2="20"/></g><g id="sprotty_ArchitectureBlockImpl$std_dffre/AssignmentBlockImpl$q/GPortImpl$qOUT_to_ArchitectureBlockImpl$std_dffre/BPortImpl$q" class="sprotty-edge thick edge" style="fill:none;stroke:rgb(112, 112, 112);stroke-linejoin:round;stroke-width:3px;"><g><path d="M 162.796875 74 L 191.265625 74 "/><path d="M 162.796875 74 L 191.265625 74 " class="clickable"/></g></g><g id="sprotty_ArchitectureBlockImpl$std_dffre/BPortImpl$clk_to_ArchitectureBlockImpl$std_dffre/AlwaysBlockImpl$null5/GPortImpl$clkIN" class="sprotty-edge edge" style="fill:none;stroke:rgb(112, 112, 112);stroke-linejoin:round;"><g><path d="M 0 35 L 50.84375 35 C 51.84375 35 52.84375 36 52.84375 37 L 52.84375 57 C 52.84375 58 53.84375 59 54.84375 59 L 72.84375 59 "/><path d="M 0 35 L 50.84375 35 C 51.84375 35 52.84375 36 52.84375 37 L 52.84375 57 C 52.84375 58 53.84375 59 54.84375 59 L 72.84375 59 " class="clickable"/></g></g><g id="sprotty_ArchitectureBlockImpl$std_dffre/BPortImpl$rstn_to_ArchitectureBlockImpl$std_dffre/AlwaysBlockImpl$null5/GPortImpl$rstnIN" class="sprotty-edge edge" style="fill:none;stroke:rgb(112, 112, 112);stroke-linejoin:round;"><g><path d="M 0 137 L 60.84375 137 C 61.84375 137 62.84375 136 62.84375 135 L 62.84375 91 C 62.84375 90 63.84375 89 64.84375 89 L 72.84375 89 "/><path d="M 0 137 L 60.84375 137 C 61.84375 137 62.84375 136 62.84375 135 L 62.84375 91 C 62.84375 90 63.84375 89 64.84375 89 L 72.84375 89 " class="clickable"/></g></g><g id="sprotty_ArchitectureBlockImpl$std_dffre/BPortImpl$en_to_ArchitectureBlockImpl$std_dffre/AlwaysBlockImpl$null5/GPortImpl$enIN" class="sprotty-edge edge" style="fill:none;stroke:rgb(112, 112, 112);stroke-linejoin:round;"><g><path d="M 0 103 L 50.84375 103 C 51.84375 103 52.84375 102 52.84375 101 L 52.84375 81 C 52.84375 80 53.84375 79 54.84375 79 L 72.84375 79 "/><path d="M 0 103 L 50.84375 103 C 51.84375 103 52.84375 102 52.84375 101 L 52.84375 81 C 52.84375 80 53.84375 79 54.84375 79 L 72.84375 79 " class="clickable"/></g></g><g id="sprotty_ArchitectureBlockImpl$std_dffre/BPortImpl$d_to_ArchitectureBlockImpl$std_dffre/AlwaysBlockImpl$null5/GPortImpl$dIN" class="sprotty-edge thick edge" style="fill:none;stroke:rgb(112, 112, 112);stroke-linejoin:round;stroke-width:3px;"><g><path d="M 0 69 L 72.84375 69 "/><path d="M 0 69 L 72.84375 69 " class="clickable"/></g></g><g id="sprotty_ArchitectureBlockImpl$std_dffre/AlwaysBlockImpl$null5/GPortImpl$dff_qOUT_to_ArchitectureBlockImpl$std_dffre/AssignmentBlockImpl$q/GPortImpl$dff_qIN" class="sprotty-edge thick edge" style="fill:none;stroke:rgb(112, 112, 112);stroke-linejoin:round;stroke-width:3px;"><g><path d="M 122.0625 74 L 142.0625 74 "/><path d="M 122.0625 74 L 142.0625 74 " class="clickable"/></g></g><g id="sprotty_ArchitectureBlockImpl$std_dffre/AlwaysBlockImpl$null5" class="statement" transform="translate(72.84375, 49)"><rect x="0" y="0" rx="10" ry="5" width="49.21875" height="50" class="sprotty-node" style="fill:rgb(245, 245, 245);stroke:rgb(112, 112, 112);"/><text class="clickable sprotty-label statementtype" id="sprotty_ArchitectureBlockImpl$std_dffre/AlwaysBlockImpl$null5/labeltype" transform="translate(5, 18.9921875) translate(19.484375, 9.34375)" style="cursor:default;font-size:8px;font-weight:700;perspective-origin:0.0833333px 0px;fill:rgb(112, 112, 112);text-anchor:middle;">always_ff</text><g id="sprotty_ArchitectureBlockImpl$std_dffre/AlwaysBlockImpl$null5/GPortImpl$dIN" class="sprotty-hidden hidden" transform="translate(0, 20)" style="display:block;height:0px;width:0px;"/><g id="sprotty_ArchitectureBlockImpl$std_dffre/AlwaysBlockImpl$null5/GPortImpl$enIN" class="sprotty-hidden hidden" transform="translate(0, 30)" style="display:block;height:0px;width:0px;"/><g id="sprotty_ArchitectureBlockImpl$std_dffre/AlwaysBlockImpl$null5/GPortImpl$rstnIN" class="sprotty-hidden hidden" transform="translate(0, 40)" style="display:block;height:0px;width:0px;"/><g id="sprotty_ArchitectureBlockImpl$std_dffre/AlwaysBlockImpl$null5/GPortImpl$clkIN" class="sprotty-hidden hidden" transform="translate(0, 10)" style="display:block;height:0px;width:0px;"/><g id="sprotty_ArchitectureBlockImpl$std_dffre/AlwaysBlockImpl$null5/GPortImpl$dff_qOUT" class="sprotty-hidden hidden" transform="translate(49.21875, 25)" style="display:block;height:0px;width:0px;"/></g><g id="sprotty_ArchitectureBlockImpl$std_dffre/AssignmentBlockImpl$q" class="statement" transform="translate(142.0625, 62.9921875)"><rect x="0" y="0" rx="10" ry="5" width="20.734375" height="22.015625" class="sprotty-node" style="fill:rgb(245, 245, 245);stroke:rgb(112, 112, 112);"/><text class="clickable sprotty-label statementtype" id="sprotty_ArchitectureBlockImpl$std_dffre/AssignmentBlockImpl$q/labeltype" transform="translate(5, 5) translate(5.390625, 9.34375)" style="cursor:default;font-size:8px;font-weight:700;perspective-origin:-0.0104167px 0px;fill:rgb(112, 112, 112);text-anchor:middle;">&lt;=</text><g id="sprotty_ArchitectureBlockImpl$std_dffre/AssignmentBlockImpl$q/GPortImpl$dff_qIN" class="sprotty-hidden hidden" transform="translate(0, 11.0078125)" style="display:block;height:0px;width:0px;"/><g id="sprotty_ArchitectureBlockImpl$std_dffre/AssignmentBlockImpl$q/GPortImpl$qOUT" class="sprotty-hidden hidden" transform="translate(20.734375, 11.0078125)" style="display:block;height:0px;width:0px;"/></g><g id="sprotty_ArchitectureBlockImpl$std_dffre/BPortImpl$d" class="triangle" transform="translate(0, 69)"><path d="M 0,0 L 5,2.5 L 0,5 Z" transform="translate(-1.67, -2.5)" class="sprotty-port" style="fill:rgb(48, 48, 48);stroke:rgb(48, 48, 48);"/><text class="clickable sprotty-label port" id="sprotty_ArchitectureBlockImpl$std_dffre/BPortImpl$d/label" transform="translate(6, 6) translate(3.734375, 14)" style="cursor:default;font-size:12px;perspective-origin:0px 0px;fill:rgb(48, 48, 48);text-anchor:middle;">d</text></g><g id="sprotty_ArchitectureBlockImpl$std_dffre/BPortImpl$en" class="triangle" transform="translate(0, 103)"><path d="M 0,0 L 5,2.5 L 0,5 Z" transform="translate(-1.67, -2.5)" class="sprotty-port" style="fill:rgb(48, 48, 48);stroke:rgb(48, 48, 48);"/><text class="clickable sprotty-label port" id="sprotty_ArchitectureBlockImpl$std_dffre/BPortImpl$en/label" transform="translate(6, 6) translate(7, 14)" style="cursor:default;font-size:12px;perspective-origin:0px 0px;fill:rgb(48, 48, 48);text-anchor:middle;">en</text></g><g id="sprotty_ArchitectureBlockImpl$std_dffre/BPortImpl$rstn" class="triangle" transform="translate(0, 137)"><path d="M 0,0 L 5,2.5 L 0,5 Z" transform="translate(-1.67, -2.5)" class="sprotty-port" style="fill:rgb(48, 48, 48);stroke:rgb(48, 48, 48);"/><text class="clickable sprotty-label port" id="sprotty_ArchitectureBlockImpl$std_dffre/BPortImpl$rstn/label" transform="translate(6, 6) translate(10.921875, 14)" style="cursor:default;font-size:12px;perspective-origin:0px 0px;fill:rgb(48, 48, 48);text-anchor:middle;">rstn</text></g><g id="sprotty_ArchitectureBlockImpl$std_dffre/BPortImpl$clk" class="triangle" transform="translate(0, 35)"><path d="M 0,0 L 5,2.5 L 0,5 Z" transform="translate(-1.67, -2.5)" class="sprotty-port" style="fill:rgb(48, 48, 48);stroke:rgb(48, 48, 48);"/><text class="clickable sprotty-label port" id="sprotty_ArchitectureBlockImpl$std_dffre/BPortImpl$clk/label" transform="translate(6, 6) translate(8.078125, 14)" style="cursor:default;font-size:12px;perspective-origin:0.239583px 0px;fill:rgb(48, 48, 48);text-anchor:middle;">clk</text></g><g id="sprotty_ArchitectureBlockImpl$std_dffre/BPortImpl$q" class="triangle" transform="translate(191.265625, 74)"><path d="M 0,0 L 5,2.5 L 0,5 Z" transform="translate(-1.67, -2.5)" class="sprotty-port" style="fill:rgb(48, 48, 48);stroke:rgb(48, 48, 48);"/><text class="clickable sprotty-label port" id="sprotty_ArchitectureBlockImpl$std_dffre/BPortImpl$q/label" transform="translate(-13.46875, 6) translate(3.734375, 14)" style="cursor:default;font-size:12px;perspective-origin:0px 0px;fill:rgb(48, 48, 48);text-anchor:middle;">q</text></g></g></g></svg>